<svg width="152" height="152" viewBox="0 0 152 152" fill="none" xmlns="http://www.w3.org/2000/svg">
<path d="M152 0H0V152H152V0Z" fill="white"/>
<path d="M31.5472 5.73584H28.6792V8.60376H31.5472V5.73584Z" fill="black"/>
<path d="M34.4151 5.73584H31.5472V8.60376H34.4151V5.73584Z" fill="black"/>
<path d="M37.283 5.73584H34.4151V8.60376H37.283V5.73584Z" fill="black"/>
<path d="M40.1509 5.73584H37.283V8.60376H40.1509V5.73584Z" fill="black"/>
<path d="M43.0189 5.73584H40.151V8.60376H43.0189V5.73584Z" fill="black"/>
<path d="M45.8868 5.73584H43.0189V8.60376H45.8868V5.73584Z" fill="black"/>
<path d="M48.7547 5.73584H45.8868V8.60376H48.7547V5.73584Z" fill="black"/>
<path d="M51.6227 5.73584H48.7547V8.60376H51.6227V5.73584Z" fill="black"/>
<path d="M60.2264 5.73584H57.3585V8.60376H60.2264V5.73584Z" fill="black"/>
<path d="M68.8302 5.73584H65.9623V8.60376H68.8302V5.73584Z" fill="black"/>
<path d="M77.434 5.73584H74.566V8.60376H77.434V5.73584Z" fill="black"/>
<path d="M91.7736 5.73584H88.9057V8.60376H91.7736V5.73584Z" fill="black"/>
<path d="M94.6415 5.73584H91.7736V8.60376H94.6415V5.73584Z" fill="black"/>
<path d="M97.5094 5.73584H94.6415V8.60376H97.5094V5.73584Z" fill="black"/>
<path d="M103.245 5.73584H100.377V8.60376H103.245V5.73584Z" fill="black"/>
<path d="M111.849 5.73584H108.981V8.60376H111.849V5.73584Z" fill="black"/>
<path d="M123.321 5.73584H120.453V8.60376H123.321V5.73584Z" fill="black"/>
<path d="M31.5472 8.60376H28.6792V11.4717H31.5472V8.60376Z" fill="black"/>
<path d="M37.283 8.60376H34.4151V11.4717H37.283V8.60376Z" fill="black"/>
<path d="M40.1509 8.60376H37.283V11.4717H40.1509V8.60376Z" fill="black"/>
<path d="M43.0189 8.60376H40.151V11.4717H43.0189V8.60376Z" fill="black"/>
<path d="M45.8868 8.60376H43.0189V11.4717H45.8868V8.60376Z" fill="black"/>
<path d="M51.6227 8.60376H48.7547V11.4717H51.6227V8.60376Z" fill="black"/>
<path d="M54.4906 8.60376H51.6227V11.4717H54.4906V8.60376Z" fill="black"/>
<path d="M57.3585 8.60376H54.4906V11.4717H57.3585V8.60376Z" fill="black"/>
<path d="M60.2264 8.60376H57.3585V11.4717H60.2264V8.60376Z" fill="black"/>
<path d="M63.0943 8.60376H60.2264V11.4717H63.0943V8.60376Z" fill="black"/>
<path d="M68.8302 8.60376H65.9623V11.4717H68.8302V8.60376Z" fill="black"/>
<path d="M71.6981 8.60376H68.8302V11.4717H71.6981V8.60376Z" fill="black"/>
<path d="M80.3019 8.60376H77.434V11.4717H80.3019V8.60376Z" fill="black"/>
<path d="M88.9057 8.60376H86.0377V11.4717H88.9057V8.60376Z" fill="black"/>
<path d="M91.7736 8.60376H88.9057V11.4717H91.7736V8.60376Z" fill="black"/>
<path d="M94.6415 8.60376H91.7736V11.4717H94.6415V8.60376Z" fill="black"/>
<path d="M103.245 8.60376H100.377V11.4717H103.245V8.60376Z" fill="black"/>
<path d="M106.113 8.60376H103.245V11.4717H106.113V8.60376Z" fill="black"/>
<path d="M117.585 8.60376H114.717V11.4717H117.585V8.60376Z" fill="black"/>
<path d="M120.453 8.60376H117.585V11.4717H120.453V8.60376Z" fill="black"/>
<path d="M123.321 8.60376H120.453V11.4717H123.321V8.60376Z" fill="black"/>
<path d="M34.4151 11.4717H31.5472V14.3396H34.4151V11.4717Z" fill="black"/>
<path d="M37.283 11.4717H34.4151V14.3396H37.283V11.4717Z" fill="black"/>
<path d="M45.8868 11.4717H43.0189V14.3396H45.8868V11.4717Z" fill="black"/>
<path d="M54.4906 11.4717H51.6227V14.3396H54.4906V11.4717Z" fill="black"/>
<path d="M60.2264 11.4717H57.3585V14.3396H60.2264V11.4717Z" fill="black"/>
<path d="M63.0943 11.4717H60.2264V14.3396H63.0943V11.4717Z" fill="black"/>
<path d="M65.9623 11.4717H63.0943V14.3396H65.9623V11.4717Z" fill="black"/>
<path d="M71.6981 11.4717H68.8302V14.3396H71.6981V11.4717Z" fill="black"/>
<path d="M74.566 11.4717H71.6981V14.3396H74.566V11.4717Z" fill="black"/>
<path d="M77.434 11.4717H74.566V14.3396H77.434V11.4717Z" fill="black"/>
<path d="M80.3019 11.4717H77.434V14.3396H80.3019V11.4717Z" fill="black"/>
<path d="M86.0377 11.4717H83.1698V14.3396H86.0377V11.4717Z" fill="black"/>
<path d="M91.7736 11.4717H88.9057V14.3396H91.7736V11.4717Z" fill="black"/>
<path d="M94.6415 11.4717H91.7736V14.3396H94.6415V11.4717Z" fill="black"/>
<path d="M97.5094 11.4717H94.6415V14.3396H97.5094V11.4717Z" fill="black"/>
<path d="M100.377 11.4717H97.5094V14.3396H100.377V11.4717Z" fill="black"/>
<path d="M106.113 11.4717H103.245V14.3396H106.113V11.4717Z" fill="black"/>
<path d="M111.849 11.4717H108.981V14.3396H111.849V11.4717Z" fill="black"/>
<path d="M114.717 11.4717H111.849V14.3396H114.717V11.4717Z" fill="black"/>
<path d="M120.453 11.4717H117.585V14.3396H120.453V11.4717Z" fill="black"/>
<path d="M123.321 11.4717H120.453V14.3396H123.321V11.4717Z" fill="black"/>
<path d="M31.5472 14.3396H28.6792V17.2075H31.5472V14.3396Z" fill="black"/>
<path d="M54.4906 14.3396H51.6227V17.2075H54.4906V14.3396Z" fill="black"/>
<path d="M57.3585 14.3396H54.4906V17.2075H57.3585V14.3396Z" fill="black"/>
<path d="M60.2264 14.3396H57.3585V17.2075H60.2264V14.3396Z" fill="black"/>
<path d="M68.8302 14.3396H65.9623V17.2075H68.8302V14.3396Z" fill="black"/>
<path d="M77.434 14.3396H74.566V17.2075H77.434V14.3396Z" fill="black"/>
<path d="M86.0377 14.3396H83.1698V17.2075H86.0377V14.3396Z" fill="black"/>
<path d="M91.7736 14.3396H88.9057V17.2075H91.7736V14.3396Z" fill="black"/>
<path d="M94.6415 14.3396H91.7736V17.2075H94.6415V14.3396Z" fill="black"/>
<path d="M103.245 14.3396H100.377V17.2075H103.245V14.3396Z" fill="black"/>
<path d="M111.849 14.3396H108.981V17.2075H111.849V14.3396Z" fill="black"/>
<path d="M114.717 14.3396H111.849V17.2075H114.717V14.3396Z" fill="black"/>
<path d="M120.453 14.3396H117.585V17.2075H120.453V14.3396Z" fill="black"/>
<path d="M34.4151 17.2076H31.5472V20.0755H34.4151V17.2076Z" fill="black"/>
<path d="M37.283 17.2076H34.4151V20.0755H37.283V17.2076Z" fill="black"/>
<path d="M40.1509 17.2076H37.283V20.0755H40.1509V17.2076Z" fill="black"/>
<path d="M51.6227 17.2076H48.7547V20.0755H51.6227V17.2076Z" fill="black"/>
<path d="M57.3585 17.2076H54.4906V20.0755H57.3585V17.2076Z" fill="black"/>
<path d="M60.2264 17.2076H57.3585V20.0755H60.2264V17.2076Z" fill="black"/>
<path d="M63.0943 17.2076H60.2264V20.0755H63.0943V17.2076Z" fill="black"/>
<path d="M71.6981 17.2076H68.8302V20.0755H71.6981V17.2076Z" fill="black"/>
<path d="M74.566 17.2076H71.6981V20.0755H74.566V17.2076Z" fill="black"/>
<path d="M77.434 17.2076H74.566V20.0755H77.434V17.2076Z" fill="black"/>
<path d="M80.3019 17.2076H77.434V20.0755H80.3019V17.2076Z" fill="black"/>
<path d="M83.1698 17.2076H80.3019V20.0755H83.1698V17.2076Z" fill="black"/>
<path d="M88.9057 17.2076H86.0377V20.0755H88.9057V17.2076Z" fill="black"/>
<path d="M91.7736 17.2076H88.9057V20.0755H91.7736V17.2076Z" fill="black"/>
<path d="M103.245 17.2076H100.377V20.0755H103.245V17.2076Z" fill="black"/>
<path d="M114.717 17.2076H111.849V20.0755H114.717V17.2076Z" fill="black"/>
<path d="M37.283 20.0755H34.4151V22.9434H37.283V20.0755Z" fill="black"/>
<path d="M40.1509 20.0755H37.283V22.9434H40.1509V20.0755Z" fill="black"/>
<path d="M54.4906 20.0755H51.6227V22.9434H54.4906V20.0755Z" fill="black"/>
<path d="M60.2264 20.0755H57.3585V22.9434H60.2264V20.0755Z" fill="black"/>
<path d="M63.0943 20.0755H60.2264V22.9434H63.0943V20.0755Z" fill="black"/>
<path d="M65.9623 20.0755H63.0943V22.9434H65.9623V20.0755Z" fill="black"/>
<path d="M71.6981 20.0755H68.8302V22.9434H71.6981V20.0755Z" fill="black"/>
<path d="M83.1698 20.0755H80.3019V22.9434H83.1698V20.0755Z" fill="black"/>
<path d="M88.9057 20.0755H86.0377V22.9434H88.9057V20.0755Z" fill="black"/>
<path d="M94.6415 20.0755H91.7736V22.9434H94.6415V20.0755Z" fill="black"/>
<path d="M97.5094 20.0755H94.6415V22.9434H97.5094V20.0755Z" fill="black"/>
<path d="M117.585 20.0755H114.717V22.9434H117.585V20.0755Z" fill="black"/>
<path d="M31.5472 22.9434H28.6792V25.8113H31.5472V22.9434Z" fill="black"/>
<path d="M37.283 22.9434H34.4151V25.8113H37.283V22.9434Z" fill="black"/>
<path d="M43.0189 22.9434H40.151V25.8113H43.0189V22.9434Z" fill="black"/>
<path d="M48.7547 22.9434H45.8868V25.8113H48.7547V22.9434Z" fill="black"/>
<path d="M54.4906 22.9434H51.6227V25.8113H54.4906V22.9434Z" fill="black"/>
<path d="M60.2264 22.9434H57.3585V25.8113H60.2264V22.9434Z" fill="black"/>
<path d="M65.9623 22.9434H63.0943V25.8113H65.9623V22.9434Z" fill="black"/>
<path d="M71.6981 22.9434H68.8302V25.8113H71.6981V22.9434Z" fill="black"/>
<path d="M77.434 22.9434H74.566V25.8113H77.434V22.9434Z" fill="black"/>
<path d="M83.1698 22.9434H80.3019V25.8113H83.1698V22.9434Z" fill="black"/>
<path d="M88.9057 22.9434H86.0377V25.8113H88.9057V22.9434Z" fill="black"/>
<path d="M94.6415 22.9434H91.7736V25.8113H94.6415V22.9434Z" fill="black"/>
<path d="M100.377 22.9434H97.5094V25.8113H100.377V22.9434Z" fill="black"/>
<path d="M106.113 22.9434H103.245V25.8113H106.113V22.9434Z" fill="black"/>
<path d="M111.849 22.9434H108.981V25.8113H111.849V22.9434Z" fill="black"/>
<path d="M117.585 22.9434H114.717V25.8113H117.585V22.9434Z" fill="black"/>
<path d="M123.321 22.9434H120.453V25.8113H123.321V22.9434Z" fill="black"/>
<path d="M31.5472 25.8113H28.6792V28.6792H31.5472V25.8113Z" fill="black"/>
<path d="M40.1509 25.8113H37.283V28.6792H40.1509V25.8113Z" fill="black"/>
<path d="M43.0189 25.8113H40.151V28.6792H43.0189V25.8113Z" fill="black"/>
<path d="M48.7547 25.8113H45.8868V28.6792H48.7547V25.8113Z" fill="black"/>
<path d="M60.2264 25.8113H57.3585V28.6792H60.2264V25.8113Z" fill="black"/>
<path d="M63.0943 25.8113H60.2264V28.6792H63.0943V25.8113Z" fill="black"/>
<path d="M68.8302 25.8113H65.9623V28.6792H68.8302V25.8113Z" fill="black"/>
<path d="M71.6981 25.8113H68.8302V28.6792H71.6981V25.8113Z" fill="black"/>
<path d="M83.1698 25.8113H80.3019V28.6792H83.1698V25.8113Z" fill="black"/>
<path d="M91.7736 25.8113H88.9057V28.6792H91.7736V25.8113Z" fill="black"/>
<path d="M97.5094 25.8113H94.6415V28.6792H97.5094V25.8113Z" fill="black"/>
<path d="M111.849 25.8113H108.981V28.6792H111.849V25.8113Z" fill="black"/>
<path d="M114.717 25.8113H111.849V28.6792H114.717V25.8113Z" fill="black"/>
<path d="M117.585 25.8113H114.717V28.6792H117.585V25.8113Z" fill="black"/>
<path d="M8.60378 28.6792H5.73586V31.5472H8.60378V28.6792Z" fill="black"/>
<path d="M14.3396 28.6792H11.4717V31.5472H14.3396V28.6792Z" fill="black"/>
<path d="M17.2076 28.6792H14.3396V31.5472H17.2076V28.6792Z" fill="black"/>
<path d="M22.9434 28.6792H20.0755V31.5472H22.9434V28.6792Z" fill="black"/>
<path d="M25.8113 28.6792H22.9434V31.5472H25.8113V28.6792Z" fill="black"/>
<path d="M28.6792 28.6792H25.8113V31.5472H28.6792V28.6792Z" fill="black"/>
<path d="M34.4151 28.6792H31.5472V31.5472H34.4151V28.6792Z" fill="black"/>
<path d="M37.283 28.6792H34.4151V31.5472H37.283V28.6792Z" fill="black"/>
<path d="M40.1509 28.6792H37.283V31.5472H40.1509V28.6792Z" fill="black"/>
<path d="M43.0189 28.6792H40.151V31.5472H43.0189V28.6792Z" fill="black"/>
<path d="M45.8868 28.6792H43.0189V31.5472H45.8868V28.6792Z" fill="black"/>
<path d="M51.6227 28.6792H48.7547V31.5472H51.6227V28.6792Z" fill="black"/>
<path d="M54.4906 28.6792H51.6227V31.5472H54.4906V28.6792Z" fill="black"/>
<path d="M63.0943 28.6792H60.2264V31.5472H63.0943V28.6792Z" fill="black"/>
<path d="M65.9623 28.6792H63.0943V31.5472H65.9623V28.6792Z" fill="black"/>
<path d="M71.6981 28.6792H68.8302V31.5472H71.6981V28.6792Z" fill="black"/>
<path d="M74.566 28.6792H71.6981V31.5472H74.566V28.6792Z" fill="black"/>
<path d="M77.434 28.6792H74.566V31.5472H77.434V28.6792Z" fill="black"/>
<path d="M80.3019 28.6792H77.434V31.5472H80.3019V28.6792Z" fill="black"/>
<path d="M83.1698 28.6792H80.3019V31.5472H83.1698V28.6792Z" fill="black"/>
<path d="M86.0377 28.6792H83.1698V31.5472H86.0377V28.6792Z" fill="black"/>
<path d="M88.9057 28.6792H86.0377V31.5472H88.9057V28.6792Z" fill="black"/>
<path d="M97.5094 28.6792H94.6415V31.5472H97.5094V28.6792Z" fill="black"/>
<path d="M114.717 28.6792H111.849V31.5472H114.717V28.6792Z" fill="black"/>
<path d="M120.453 28.6792H117.585V31.5472H120.453V28.6792Z" fill="black"/>
<path d="M129.057 28.6792H126.189V31.5472H129.057V28.6792Z" fill="black"/>
<path d="M137.66 28.6792H134.792V31.5472H137.66V28.6792Z" fill="black"/>
<path d="M143.396 28.6792H140.528V31.5472H143.396V28.6792Z" fill="black"/>
<path d="M146.264 28.6792H143.396V31.5472H146.264V28.6792Z" fill="black"/>
<path d="M11.4717 31.5471H8.60378V34.4151H11.4717V31.5471Z" fill="black"/>
<path d="M14.3396 31.5471H11.4717V34.4151H14.3396V31.5471Z" fill="black"/>
<path d="M28.6792 31.5471H25.8113V34.4151H28.6792V31.5471Z" fill="black"/>
<path d="M31.5472 31.5471H28.6792V34.4151H31.5472V31.5471Z" fill="black"/>
<path d="M45.8868 31.5471H43.0189V34.4151H45.8868V31.5471Z" fill="black"/>
<path d="M48.7547 31.5471H45.8868V34.4151H48.7547V31.5471Z" fill="black"/>
<path d="M54.4906 31.5471H51.6227V34.4151H54.4906V31.5471Z" fill="black"/>
<path d="M57.3585 31.5471H54.4906V34.4151H57.3585V31.5471Z" fill="black"/>
<path d="M60.2264 31.5471H57.3585V34.4151H60.2264V31.5471Z" fill="black"/>
<path d="M74.566 31.5471H71.6981V34.4151H74.566V31.5471Z" fill="black"/>
<path d="M77.434 31.5471H74.566V34.4151H77.434V31.5471Z" fill="black"/>
<path d="M80.3019 31.5471H77.434V34.4151H80.3019V31.5471Z" fill="black"/>
<path d="M94.6415 31.5471H91.7736V34.4151H94.6415V31.5471Z" fill="black"/>
<path d="M103.245 31.5471H100.377V34.4151H103.245V31.5471Z" fill="black"/>
<path d="M111.849 31.5471H108.981V34.4151H111.849V31.5471Z" fill="black"/>
<path d="M120.453 31.5471H117.585V34.4151H120.453V31.5471Z" fill="black"/>
<path d="M126.189 31.5471H123.321V34.4151H126.189V31.5471Z" fill="black"/>
<path d="M129.057 31.5471H126.189V34.4151H129.057V31.5471Z" fill="black"/>
<path d="M131.925 31.5471H129.057V34.4151H131.925V31.5471Z" fill="black"/>
<path d="M8.60378 34.4151H5.73586V37.283H8.60378V34.4151Z" fill="black"/>
<path d="M11.4717 34.4151H8.60378V37.283H11.4717V34.4151Z" fill="black"/>
<path d="M14.3396 34.4151H11.4717V37.283H14.3396V34.4151Z" fill="black"/>
<path d="M17.2076 34.4151H14.3396V37.283H17.2076V34.4151Z" fill="black"/>
<path d="M20.0755 34.4151H17.2076V37.283H20.0755V34.4151Z" fill="black"/>
<path d="M25.8113 34.4151H22.9434V37.283H25.8113V34.4151Z" fill="black"/>
<path d="M31.5472 34.4151H28.6792V37.283H31.5472V34.4151Z" fill="black"/>
<path d="M40.1509 34.4151H37.283V37.283H40.1509V34.4151Z" fill="black"/>
<path d="M43.0189 34.4151H40.151V37.283H43.0189V34.4151Z" fill="black"/>
<path d="M45.8868 34.4151H43.0189V37.283H45.8868V34.4151Z" fill="black"/>
<path d="M48.7547 34.4151H45.8868V37.283H48.7547V34.4151Z" fill="black"/>
<path d="M57.3585 34.4151H54.4906V37.283H57.3585V34.4151Z" fill="black"/>
<path d="M60.2264 34.4151H57.3585V37.283H60.2264V34.4151Z" fill="black"/>
<path d="M65.9623 34.4151H63.0943V37.283H65.9623V34.4151Z" fill="black"/>
<path d="M68.8302 34.4151H65.9623V37.283H68.8302V34.4151Z" fill="black"/>
<path d="M74.566 34.4151H71.6981V37.283H74.566V34.4151Z" fill="black"/>
<path d="M80.3019 34.4151H77.434V37.283H80.3019V34.4151Z" fill="black"/>
<path d="M86.0377 34.4151H83.1698V37.283H86.0377V34.4151Z" fill="black"/>
<path d="M91.7736 34.4151H88.9057V37.283H91.7736V34.4151Z" fill="black"/>
<path d="M94.6415 34.4151H91.7736V37.283H94.6415V34.4151Z" fill="black"/>
<path d="M106.113 34.4151H103.245V37.283H106.113V34.4151Z" fill="black"/>
<path d="M108.981 34.4151H106.113V37.283H108.981V34.4151Z" fill="black"/>
<path d="M111.849 34.4151H108.981V37.283H111.849V34.4151Z" fill="black"/>
<path d="M126.189 34.4151H123.321V37.283H126.189V34.4151Z" fill="black"/>
<path d="M131.925 34.4151H129.057V37.283H131.925V34.4151Z" fill="black"/>
<path d="M134.792 34.4151H131.925V37.283H134.792V34.4151Z" fill="black"/>
<path d="M137.66 34.4151H134.792V37.283H137.66V34.4151Z" fill="black"/>
<path d="M143.396 34.4151H140.528V37.283H143.396V34.4151Z" fill="black"/>
<path d="M8.60378 37.283H5.73586V40.1509H8.60378V37.283Z" fill="black"/>
<path d="M17.2076 37.283H14.3396V40.1509H17.2076V37.283Z" fill="black"/>
<path d="M20.0755 37.283H17.2076V40.1509H20.0755V37.283Z" fill="black"/>
<path d="M28.6792 37.283H25.8113V40.1509H28.6792V37.283Z" fill="black"/>
<path d="M31.5472 37.283H28.6792V40.1509H31.5472V37.283Z" fill="black"/>
<path d="M34.4151 37.283H31.5472V40.1509H34.4151V37.283Z" fill="black"/>
<path d="M37.283 37.283H34.4151V40.1509H37.283V37.283Z" fill="black"/>
<path d="M40.1509 37.283H37.283V40.1509H40.1509V37.283Z" fill="black"/>
<path d="M43.0189 37.283H40.151V40.1509H43.0189V37.283Z" fill="black"/>
<path d="M48.7547 37.283H45.8868V40.1509H48.7547V37.283Z" fill="black"/>
<path d="M51.6227 37.283H48.7547V40.1509H51.6227V37.283Z" fill="black"/>
<path d="M57.3585 37.283H54.4906V40.1509H57.3585V37.283Z" fill="black"/>
<path d="M63.0943 37.283H60.2264V40.1509H63.0943V37.283Z" fill="black"/>
<path d="M68.8302 37.283H65.9623V40.1509H68.8302V37.283Z" fill="black"/>
<path d="M71.6981 37.283H68.8302V40.1509H71.6981V37.283Z" fill="black"/>
<path d="M77.434 37.283H74.566V40.1509H77.434V37.283Z" fill="black"/>
<path d="M80.3019 37.283H77.434V40.1509H80.3019V37.283Z" fill="black"/>
<path d="M86.0377 37.283H83.1698V40.1509H86.0377V37.283Z" fill="black"/>
<path d="M91.7736 37.283H88.9057V40.1509H91.7736V37.283Z" fill="black"/>
<path d="M94.6415 37.283H91.7736V40.1509H94.6415V37.283Z" fill="black"/>
<path d="M97.5094 37.283H94.6415V40.1509H97.5094V37.283Z" fill="black"/>
<path d="M100.377 37.283H97.5094V40.1509H100.377V37.283Z" fill="black"/>
<path d="M103.245 37.283H100.377V40.1509H103.245V37.283Z" fill="black"/>
<path d="M106.113 37.283H103.245V40.1509H106.113V37.283Z" fill="black"/>
<path d="M108.981 37.283H106.113V40.1509H108.981V37.283Z" fill="black"/>
<path d="M111.849 37.283H108.981V40.1509H111.849V37.283Z" fill="black"/>
<path d="M120.453 37.283H117.585V40.1509H120.453V37.283Z" fill="black"/>
<path d="M123.321 37.283H120.453V40.1509H123.321V37.283Z" fill="black"/>
<path d="M129.057 37.283H126.189V40.1509H129.057V37.283Z" fill="black"/>
<path d="M134.792 37.283H131.925V40.1509H134.792V37.283Z" fill="black"/>
<path d="M137.66 37.283H134.792V40.1509H137.66V37.283Z" fill="black"/>
<path d="M140.528 37.283H137.66V40.1509H140.528V37.283Z" fill="black"/>
<path d="M11.4717 40.1509H8.60378V43.0189H11.4717V40.1509Z" fill="black"/>
<path d="M14.3396 40.1509H11.4717V43.0189H14.3396V40.1509Z" fill="black"/>
<path d="M20.0755 40.1509H17.2076V43.0189H20.0755V40.1509Z" fill="black"/>
<path d="M25.8113 40.1509H22.9434V43.0189H25.8113V40.1509Z" fill="black"/>
<path d="M28.6792 40.1509H25.8113V43.0189H28.6792V40.1509Z" fill="black"/>
<path d="M31.5472 40.1509H28.6792V43.0189H31.5472V40.1509Z" fill="black"/>
<path d="M34.4151 40.1509H31.5472V43.0189H34.4151V40.1509Z" fill="black"/>
<path d="M40.1509 40.1509H37.283V43.0189H40.1509V40.1509Z" fill="black"/>
<path d="M43.0189 40.1509H40.151V43.0189H43.0189V40.1509Z" fill="black"/>
<path d="M45.8868 40.1509H43.0189V43.0189H45.8868V40.1509Z" fill="black"/>
<path d="M51.6227 40.1509H48.7547V43.0189H51.6227V40.1509Z" fill="black"/>
<path d="M54.4906 40.1509H51.6227V43.0189H54.4906V40.1509Z" fill="black"/>
<path d="M60.2264 40.1509H57.3585V43.0189H60.2264V40.1509Z" fill="black"/>
<path d="M63.0943 40.1509H60.2264V43.0189H63.0943V40.1509Z" fill="black"/>
<path d="M68.8302 40.1509H65.9623V43.0189H68.8302V40.1509Z" fill="black"/>
<path d="M77.434 40.1509H74.566V43.0189H77.434V40.1509Z" fill="black"/>
<path d="M83.1698 40.1509H80.3019V43.0189H83.1698V40.1509Z" fill="black"/>
<path d="M91.7736 40.1509H88.9057V43.0189H91.7736V40.1509Z" fill="black"/>
<path d="M94.6415 40.1509H91.7736V43.0189H94.6415V40.1509Z" fill="black"/>
<path d="M97.5094 40.1509H94.6415V43.0189H97.5094V40.1509Z" fill="black"/>
<path d="M108.981 40.1509H106.113V43.0189H108.981V40.1509Z" fill="black"/>
<path d="M111.849 40.1509H108.981V43.0189H111.849V40.1509Z" fill="black"/>
<path d="M114.717 40.1509H111.849V43.0189H114.717V40.1509Z" fill="black"/>
<path d="M120.453 40.1509H117.585V43.0189H120.453V40.1509Z" fill="black"/>
<path d="M123.321 40.1509H120.453V43.0189H123.321V40.1509Z" fill="black"/>
<path d="M137.66 40.1509H134.792V43.0189H137.66V40.1509Z" fill="black"/>
<path d="M146.264 40.1509H143.396V43.0189H146.264V40.1509Z" fill="black"/>
<path d="M11.4717 43.0189H8.60378V45.8868H11.4717V43.0189Z" fill="black"/>
<path d="M14.3396 43.0189H11.4717V45.8868H14.3396V43.0189Z" fill="black"/>
<path d="M22.9434 43.0189H20.0755V45.8868H22.9434V43.0189Z" fill="black"/>
<path d="M37.283 43.0189H34.4151V45.8868H37.283V43.0189Z" fill="black"/>
<path d="M48.7547 43.0189H45.8868V45.8868H48.7547V43.0189Z" fill="black"/>
<path d="M51.6227 43.0189H48.7547V45.8868H51.6227V43.0189Z" fill="black"/>
<path d="M60.2264 43.0189H57.3585V45.8868H60.2264V43.0189Z" fill="black"/>
<path d="M65.9623 43.0189H63.0943V45.8868H65.9623V43.0189Z" fill="black"/>
<path d="M68.8302 43.0189H65.9623V45.8868H68.8302V43.0189Z" fill="black"/>
<path d="M74.566 43.0189H71.6981V45.8868H74.566V43.0189Z" fill="black"/>
<path d="M83.1698 43.0189H80.3019V45.8868H83.1698V43.0189Z" fill="black"/>
<path d="M86.0377 43.0189H83.1698V45.8868H86.0377V43.0189Z" fill="black"/>
<path d="M91.7736 43.0189H88.9057V45.8868H91.7736V43.0189Z" fill="black"/>
<path d="M97.5094 43.0189H94.6415V45.8868H97.5094V43.0189Z" fill="black"/>
<path d="M103.245 43.0189H100.377V45.8868H103.245V43.0189Z" fill="black"/>
<path d="M108.981 43.0189H106.113V45.8868H108.981V43.0189Z" fill="black"/>
<path d="M114.717 43.0189H111.849V45.8868H114.717V43.0189Z" fill="black"/>
<path d="M117.585 43.0189H114.717V45.8868H117.585V43.0189Z" fill="black"/>
<path d="M126.189 43.0189H123.321V45.8868H126.189V43.0189Z" fill="black"/>
<path d="M134.792 43.0189H131.925V45.8868H134.792V43.0189Z" fill="black"/>
<path d="M137.66 43.0189H134.792V45.8868H137.66V43.0189Z" fill="black"/>
<path d="M146.264 43.0189H143.396V45.8868H146.264V43.0189Z" fill="black"/>
<path d="M11.4717 45.8868H8.60378V48.7547H11.4717V45.8868Z" fill="black"/>
<path d="M14.3396 45.8868H11.4717V48.7547H14.3396V45.8868Z" fill="black"/>
<path d="M20.0755 45.8868H17.2076V48.7547H20.0755V45.8868Z" fill="black"/>
<path d="M25.8113 45.8868H22.9434V48.7547H25.8113V45.8868Z" fill="black"/>
<path d="M34.4151 45.8868H31.5472V48.7547H34.4151V45.8868Z" fill="black"/>
<path d="M37.283 45.8868H34.4151V48.7547H37.283V45.8868Z" fill="black"/>
<path d="M45.8868 45.8868H43.0189V48.7547H45.8868V45.8868Z" fill="black"/>
<path d="M48.7547 45.8868H45.8868V48.7547H48.7547V45.8868Z" fill="black"/>
<path d="M54.4906 45.8868H51.6227V48.7547H54.4906V45.8868Z" fill="black"/>
<path d="M68.8302 45.8868H65.9623V48.7547H68.8302V45.8868Z" fill="black"/>
<path d="M71.6981 45.8868H68.8302V48.7547H71.6981V45.8868Z" fill="black"/>
<path d="M83.1698 45.8868H80.3019V48.7547H83.1698V45.8868Z" fill="black"/>
<path d="M88.9057 45.8868H86.0377V48.7547H88.9057V45.8868Z" fill="black"/>
<path d="M94.6415 45.8868H91.7736V48.7547H94.6415V45.8868Z" fill="black"/>
<path d="M100.377 45.8868H97.5094V48.7547H100.377V45.8868Z" fill="black"/>
<path d="M106.113 45.8868H103.245V48.7547H106.113V45.8868Z" fill="black"/>
<path d="M114.717 45.8868H111.849V48.7547H114.717V45.8868Z" fill="black"/>
<path d="M120.453 45.8868H117.585V48.7547H120.453V45.8868Z" fill="black"/>
<path d="M123.321 45.8868H120.453V48.7547H123.321V45.8868Z" fill="black"/>
<path d="M129.057 45.8868H126.189V48.7547H129.057V45.8868Z" fill="black"/>
<path d="M137.66 45.8868H134.792V48.7547H137.66V45.8868Z" fill="black"/>
<path d="M143.396 45.8868H140.528V48.7547H143.396V45.8868Z" fill="black"/>
<path d="M14.3396 48.7547H11.4717V51.6226H14.3396V48.7547Z" fill="black"/>
<path d="M22.9434 48.7547H20.0755V51.6226H22.9434V48.7547Z" fill="black"/>
<path d="M28.6792 48.7547H25.8113V51.6226H28.6792V48.7547Z" fill="black"/>
<path d="M31.5472 48.7547H28.6792V51.6226H31.5472V48.7547Z" fill="black"/>
<path d="M37.283 48.7547H34.4151V51.6226H37.283V48.7547Z" fill="black"/>
<path d="M40.1509 48.7547H37.283V51.6226H40.1509V48.7547Z" fill="black"/>
<path d="M43.0189 48.7547H40.151V51.6226H43.0189V48.7547Z" fill="black"/>
<path d="M45.8868 48.7547H43.0189V51.6226H45.8868V48.7547Z" fill="black"/>
<path d="M51.6227 48.7547H48.7547V51.6226H51.6227V48.7547Z" fill="black"/>
<path d="M57.3585 48.7547H54.4906V51.6226H57.3585V48.7547Z" fill="black"/>
<path d="M60.2264 48.7547H57.3585V51.6226H60.2264V48.7547Z" fill="black"/>
<path d="M68.8302 48.7547H65.9623V51.6226H68.8302V48.7547Z" fill="black"/>
<path d="M74.566 48.7547H71.6981V51.6226H74.566V48.7547Z" fill="black"/>
<path d="M88.9057 48.7547H86.0377V51.6226H88.9057V48.7547Z" fill="black"/>
<path d="M91.7736 48.7547H88.9057V51.6226H91.7736V48.7547Z" fill="black"/>
<path d="M94.6415 48.7547H91.7736V51.6226H94.6415V48.7547Z" fill="black"/>
<path d="M100.377 48.7547H97.5094V51.6226H100.377V48.7547Z" fill="black"/>
<path d="M103.245 48.7547H100.377V51.6226H103.245V48.7547Z" fill="black"/>
<path d="M111.849 48.7547H108.981V51.6226H111.849V48.7547Z" fill="black"/>
<path d="M126.189 48.7547H123.321V51.6226H126.189V48.7547Z" fill="black"/>
<path d="M129.057 48.7547H126.189V51.6226H129.057V48.7547Z" fill="black"/>
<path d="M137.66 48.7547H134.792V51.6226H137.66V48.7547Z" fill="black"/>
<path d="M146.264 48.7547H143.396V51.6226H146.264V48.7547Z" fill="black"/>
<path d="M8.60378 51.6226H5.73586V54.4905H8.60378V51.6226Z" fill="black"/>
<path d="M14.3396 51.6226H11.4717V54.4905H14.3396V51.6226Z" fill="black"/>
<path d="M22.9434 51.6226H20.0755V54.4905H22.9434V51.6226Z" fill="black"/>
<path d="M25.8113 51.6226H22.9434V54.4905H25.8113V51.6226Z" fill="black"/>
<path d="M31.5472 51.6226H28.6792V54.4905H31.5472V51.6226Z" fill="black"/>
<path d="M37.283 51.6226H34.4151V54.4905H37.283V51.6226Z" fill="black"/>
<path d="M40.1509 51.6226H37.283V54.4905H40.1509V51.6226Z" fill="black"/>
<path d="M43.0189 51.6226H40.151V54.4905H43.0189V51.6226Z" fill="black"/>
<path d="M48.7547 51.6226H45.8868V54.4905H48.7547V51.6226Z" fill="black"/>
<path d="M54.4906 51.6226H51.6227V54.4905H54.4906V51.6226Z" fill="black"/>
<path d="M63.0943 51.6226H60.2264V54.4905H63.0943V51.6226Z" fill="black"/>
<path d="M74.566 51.6226H71.6981V54.4905H74.566V51.6226Z" fill="black"/>
<path d="M80.3019 51.6226H77.434V54.4905H80.3019V51.6226Z" fill="black"/>
<path d="M83.1698 51.6226H80.3019V54.4905H83.1698V51.6226Z" fill="black"/>
<path d="M91.7736 51.6226H88.9057V54.4905H91.7736V51.6226Z" fill="black"/>
<path d="M97.5094 51.6226H94.6415V54.4905H97.5094V51.6226Z" fill="black"/>
<path d="M100.377 51.6226H97.5094V54.4905H100.377V51.6226Z" fill="black"/>
<path d="M103.245 51.6226H100.377V54.4905H103.245V51.6226Z" fill="black"/>
<path d="M117.585 51.6226H114.717V54.4905H117.585V51.6226Z" fill="black"/>
<path d="M126.189 51.6226H123.321V54.4905H126.189V51.6226Z" fill="black"/>
<path d="M131.925 51.6226H129.057V54.4905H131.925V51.6226Z" fill="black"/>
<path d="M134.792 51.6226H131.925V54.4905H134.792V51.6226Z" fill="black"/>
<path d="M140.528 51.6226H137.66V54.4905H140.528V51.6226Z" fill="black"/>
<path d="M143.396 51.6226H140.528V54.4905H143.396V51.6226Z" fill="black"/>
<path d="M146.264 51.6226H143.396V54.4905H146.264V51.6226Z" fill="black"/>
<path d="M8.60378 54.4906H5.73586V57.3585H8.60378V54.4906Z" fill="black"/>
<path d="M14.3396 54.4906H11.4717V57.3585H14.3396V54.4906Z" fill="black"/>
<path d="M17.2076 54.4906H14.3396V57.3585H17.2076V54.4906Z" fill="black"/>
<path d="M28.6792 54.4906H25.8113V57.3585H28.6792V54.4906Z" fill="black"/>
<path d="M34.4151 54.4906H31.5472V57.3585H34.4151V54.4906Z" fill="black"/>
<path d="M40.1509 54.4906H37.283V57.3585H40.1509V54.4906Z" fill="black"/>
<path d="M45.8868 54.4906H43.0189V57.3585H45.8868V54.4906Z" fill="black"/>
<path d="M48.7547 54.4906H45.8868V57.3585H48.7547V54.4906Z" fill="black"/>
<path d="M54.4906 54.4906H51.6227V57.3585H54.4906V54.4906Z" fill="black"/>
<path d="M57.3585 54.4906H54.4906V57.3585H57.3585V54.4906Z" fill="black"/>
<path d="M63.0943 54.4906H60.2264V57.3585H63.0943V54.4906Z" fill="black"/>
<path d="M71.6981 54.4906H68.8302V57.3585H71.6981V54.4906Z" fill="black"/>
<path d="M80.3019 54.4906H77.434V57.3585H80.3019V54.4906Z" fill="black"/>
<path d="M86.0377 54.4906H83.1698V57.3585H86.0377V54.4906Z" fill="black"/>
<path d="M88.9057 54.4906H86.0377V57.3585H88.9057V54.4906Z" fill="black"/>
<path d="M100.377 54.4906H97.5094V57.3585H100.377V54.4906Z" fill="black"/>
<path d="M106.113 54.4906H103.245V57.3585H106.113V54.4906Z" fill="black"/>
<path d="M108.981 54.4906H106.113V57.3585H108.981V54.4906Z" fill="black"/>
<path d="M114.717 54.4906H111.849V57.3585H114.717V54.4906Z" fill="black"/>
<path d="M120.453 54.4906H117.585V57.3585H120.453V54.4906Z" fill="black"/>
<path d="M123.321 54.4906H120.453V57.3585H123.321V54.4906Z" fill="black"/>
<path d="M137.66 54.4906H134.792V57.3585H137.66V54.4906Z" fill="black"/>
<path d="M140.528 54.4906H137.66V57.3585H140.528V54.4906Z" fill="black"/>
<path d="M143.396 54.4906H140.528V57.3585H143.396V54.4906Z" fill="black"/>
<path d="M146.264 54.4906H143.396V57.3585H146.264V54.4906Z" fill="black"/>
<path d="M11.4717 57.3585H8.60378V60.2264H11.4717V57.3585Z" fill="black"/>
<path d="M14.3396 57.3585H11.4717V60.2264H14.3396V57.3585Z" fill="black"/>
<path d="M20.0755 57.3585H17.2076V60.2264H20.0755V57.3585Z" fill="black"/>
<path d="M25.8113 57.3585H22.9434V60.2264H25.8113V57.3585Z" fill="black"/>
<path d="M31.5472 57.3585H28.6792V60.2264H31.5472V57.3585Z" fill="black"/>
<path d="M40.1509 57.3585H37.283V60.2264H40.1509V57.3585Z" fill="black"/>
<path d="M43.0189 57.3585H40.151V60.2264H43.0189V57.3585Z" fill="black"/>
<path d="M45.8868 57.3585H43.0189V60.2264H45.8868V57.3585Z" fill="black"/>
<path d="M48.7547 57.3585H45.8868V60.2264H48.7547V57.3585Z" fill="black"/>
<path d="M57.3585 57.3585H54.4906V60.2264H57.3585V57.3585Z" fill="black"/>
<path d="M60.2264 57.3585H57.3585V60.2264H60.2264V57.3585Z" fill="black"/>
<path d="M74.566 57.3585H71.6981V60.2264H74.566V57.3585Z" fill="black"/>
<path d="M77.434 57.3585H74.566V60.2264H77.434V57.3585Z" fill="black"/>
<path d="M83.1698 57.3585H80.3019V60.2264H83.1698V57.3585Z" fill="black"/>
<path d="M86.0377 57.3585H83.1698V60.2264H86.0377V57.3585Z" fill="black"/>
<path d="M91.7736 57.3585H88.9057V60.2264H91.7736V57.3585Z" fill="black"/>
<path d="M97.5094 57.3585H94.6415V60.2264H97.5094V57.3585Z" fill="black"/>
<path d="M100.377 57.3585H97.5094V60.2264H100.377V57.3585Z" fill="black"/>
<path d="M103.245 57.3585H100.377V60.2264H103.245V57.3585Z" fill="black"/>
<path d="M106.113 57.3585H103.245V60.2264H106.113V57.3585Z" fill="black"/>
<path d="M108.981 57.3585H106.113V60.2264H108.981V57.3585Z" fill="black"/>
<path d="M111.849 57.3585H108.981V60.2264H111.849V57.3585Z" fill="black"/>
<path d="M117.585 57.3585H114.717V60.2264H117.585V57.3585Z" fill="black"/>
<path d="M120.453 57.3585H117.585V60.2264H120.453V57.3585Z" fill="black"/>
<path d="M123.321 57.3585H120.453V60.2264H123.321V57.3585Z" fill="black"/>
<path d="M126.189 57.3585H123.321V60.2264H126.189V57.3585Z" fill="black"/>
<path d="M131.925 57.3585H129.057V60.2264H131.925V57.3585Z" fill="black"/>
<path d="M137.66 57.3585H134.792V60.2264H137.66V57.3585Z" fill="black"/>
<path d="M146.264 57.3585H143.396V60.2264H146.264V57.3585Z" fill="black"/>
<path d="M8.60378 60.2264H5.73586V63.0943H8.60378V60.2264Z" fill="black"/>
<path d="M11.4717 60.2264H8.60378V63.0943H11.4717V60.2264Z" fill="black"/>
<path d="M22.9434 60.2264H20.0755V63.0943H22.9434V60.2264Z" fill="black"/>
<path d="M34.4151 60.2264H31.5472V63.0943H34.4151V60.2264Z" fill="black"/>
<path d="M40.1509 60.2264H37.283V63.0943H40.1509V60.2264Z" fill="black"/>
<path d="M43.0189 60.2264H40.151V63.0943H43.0189V60.2264Z" fill="black"/>
<path d="M45.8868 60.2264H43.0189V63.0943H45.8868V60.2264Z" fill="black"/>
<path d="M48.7547 60.2264H45.8868V63.0943H48.7547V60.2264Z" fill="black"/>
<path d="M54.4906 60.2264H51.6227V63.0943H54.4906V60.2264Z" fill="black"/>
<path d="M60.2264 60.2264H57.3585V63.0943H60.2264V60.2264Z" fill="black"/>
<path d="M63.0943 60.2264H60.2264V63.0943H63.0943V60.2264Z" fill="black"/>
<path d="M65.9623 60.2264H63.0943V63.0943H65.9623V60.2264Z" fill="black"/>
<path d="M74.566 60.2264H71.6981V63.0943H74.566V60.2264Z" fill="black"/>
<path d="M80.3019 60.2264H77.434V63.0943H80.3019V60.2264Z" fill="black"/>
<path d="M83.1698 60.2264H80.3019V63.0943H83.1698V60.2264Z" fill="black"/>
<path d="M94.6415 60.2264H91.7736V63.0943H94.6415V60.2264Z" fill="black"/>
<path d="M97.5094 60.2264H94.6415V63.0943H97.5094V60.2264Z" fill="black"/>
<path d="M103.245 60.2264H100.377V63.0943H103.245V60.2264Z" fill="black"/>
<path d="M106.113 60.2264H103.245V63.0943H106.113V60.2264Z" fill="black"/>
<path d="M111.849 60.2264H108.981V63.0943H111.849V60.2264Z" fill="black"/>
<path d="M117.585 60.2264H114.717V63.0943H117.585V60.2264Z" fill="black"/>
<path d="M126.189 60.2264H123.321V63.0943H126.189V60.2264Z" fill="black"/>
<path d="M131.925 60.2264H129.057V63.0943H131.925V60.2264Z" fill="black"/>
<path d="M137.66 60.2264H134.792V63.0943H137.66V60.2264Z" fill="black"/>
<path d="M143.396 60.2264H140.528V63.0943H143.396V60.2264Z" fill="black"/>
<path d="M146.264 60.2264H143.396V63.0943H146.264V60.2264Z" fill="black"/>
<path d="M11.4717 63.0943H8.60378V65.9623H11.4717V63.0943Z" fill="black"/>
<path d="M14.3396 63.0943H11.4717V65.9623H14.3396V63.0943Z" fill="black"/>
<path d="M22.9434 63.0943H20.0755V65.9623H22.9434V63.0943Z" fill="black"/>
<path d="M25.8113 63.0943H22.9434V65.9623H25.8113V63.0943Z" fill="black"/>
<path d="M28.6792 63.0943H25.8113V65.9623H28.6792V63.0943Z" fill="black"/>
<path d="M34.4151 63.0943H31.5472V65.9623H34.4151V63.0943Z" fill="black"/>
<path d="M40.1509 63.0943H37.283V65.9623H40.1509V63.0943Z" fill="black"/>
<path d="M43.0189 63.0943H40.151V65.9623H43.0189V63.0943Z" fill="black"/>
<path d="M45.8868 63.0943H43.0189V65.9623H45.8868V63.0943Z" fill="black"/>
<path d="M48.7547 63.0943H45.8868V65.9623H48.7547V63.0943Z" fill="black"/>
<path d="M54.4906 63.0943H51.6227V65.9623H54.4906V63.0943Z" fill="black"/>
<path d="M63.0943 63.0943H60.2264V65.9623H63.0943V63.0943Z" fill="black"/>
<path d="M74.566 63.0943H71.6981V65.9623H74.566V63.0943Z" fill="black"/>
<path d="M83.1698 63.0943H80.3019V65.9623H83.1698V63.0943Z" fill="black"/>
<path d="M86.0377 63.0943H83.1698V65.9623H86.0377V63.0943Z" fill="black"/>
<path d="M88.9057 63.0943H86.0377V65.9623H88.9057V63.0943Z" fill="black"/>
<path d="M91.7736 63.0943H88.9057V65.9623H91.7736V63.0943Z" fill="black"/>
<path d="M94.6415 63.0943H91.7736V65.9623H94.6415V63.0943Z" fill="black"/>
<path d="M97.5094 63.0943H94.6415V65.9623H97.5094V63.0943Z" fill="black"/>
<path d="M106.113 63.0943H103.245V65.9623H106.113V63.0943Z" fill="black"/>
<path d="M114.717 63.0943H111.849V65.9623H114.717V63.0943Z" fill="black"/>
<path d="M120.453 63.0943H117.585V65.9623H120.453V63.0943Z" fill="black"/>
<path d="M131.925 63.0943H129.057V65.9623H131.925V63.0943Z" fill="black"/>
<path d="M137.66 63.0943H134.792V65.9623H137.66V63.0943Z" fill="black"/>
<path d="M8.60378 65.9622H5.73586V68.8302H8.60378V65.9622Z" fill="black"/>
<path d="M11.4717 65.9622H8.60378V68.8302H11.4717V65.9622Z" fill="black"/>
<path d="M17.2076 65.9622H14.3396V68.8302H17.2076V65.9622Z" fill="black"/>
<path d="M20.0755 65.9622H17.2076V68.8302H20.0755V65.9622Z" fill="black"/>
<path d="M28.6792 65.9622H25.8113V68.8302H28.6792V65.9622Z" fill="black"/>
<path d="M31.5472 65.9622H28.6792V68.8302H31.5472V65.9622Z" fill="black"/>
<path d="M34.4151 65.9622H31.5472V68.8302H34.4151V65.9622Z" fill="black"/>
<path d="M37.283 65.9622H34.4151V68.8302H37.283V65.9622Z" fill="black"/>
<path d="M40.1509 65.9622H37.283V68.8302H40.1509V65.9622Z" fill="black"/>
<path d="M43.0189 65.9622H40.151V68.8302H43.0189V65.9622Z" fill="black"/>
<path d="M48.7547 65.9622H45.8868V68.8302H48.7547V65.9622Z" fill="black"/>
<path d="M51.6227 65.9622H48.7547V68.8302H51.6227V65.9622Z" fill="black"/>
<path d="M63.0943 65.9622H60.2264V68.8302H63.0943V65.9622Z" fill="black"/>
<path d="M74.566 65.9622H71.6981V68.8302H74.566V65.9622Z" fill="black"/>
<path d="M77.434 65.9622H74.566V68.8302H77.434V65.9622Z" fill="black"/>
<path d="M91.7736 65.9622H88.9057V68.8302H91.7736V65.9622Z" fill="black"/>
<path d="M94.6415 65.9622H91.7736V68.8302H94.6415V65.9622Z" fill="black"/>
<path d="M111.849 65.9622H108.981V68.8302H111.849V65.9622Z" fill="black"/>
<path d="M114.717 65.9622H111.849V68.8302H114.717V65.9622Z" fill="black"/>
<path d="M129.057 65.9622H126.189V68.8302H129.057V65.9622Z" fill="black"/>
<path d="M131.925 65.9622H129.057V68.8302H131.925V65.9622Z" fill="black"/>
<path d="M134.792 65.9622H131.925V68.8302H134.792V65.9622Z" fill="black"/>
<path d="M20.0755 68.8302H17.2076V71.6981H20.0755V68.8302Z" fill="black"/>
<path d="M22.9434 68.8302H20.0755V71.6981H22.9434V68.8302Z" fill="black"/>
<path d="M25.8113 68.8302H22.9434V71.6981H25.8113V68.8302Z" fill="black"/>
<path d="M28.6792 68.8302H25.8113V71.6981H28.6792V68.8302Z" fill="black"/>
<path d="M31.5472 68.8302H28.6792V71.6981H31.5472V68.8302Z" fill="black"/>
<path d="M34.4151 68.8302H31.5472V71.6981H34.4151V68.8302Z" fill="black"/>
<path d="M40.1509 68.8302H37.283V71.6981H40.1509V68.8302Z" fill="black"/>
<path d="M43.0189 68.8302H40.151V71.6981H43.0189V68.8302Z" fill="black"/>
<path d="M45.8868 68.8302H43.0189V71.6981H45.8868V68.8302Z" fill="black"/>
<path d="M57.3585 68.8302H54.4906V71.6981H57.3585V68.8302Z" fill="black"/>
<path d="M63.0943 68.8302H60.2264V71.6981H63.0943V68.8302Z" fill="black"/>
<path d="M65.9623 68.8302H63.0943V71.6981H65.9623V68.8302Z" fill="black"/>
<path d="M71.6981 68.8302H68.8302V71.6981H71.6981V68.8302Z" fill="black"/>
<path d="M74.566 68.8302H71.6981V71.6981H74.566V68.8302Z" fill="black"/>
<path d="M77.434 68.8302H74.566V71.6981H77.434V68.8302Z" fill="black"/>
<path d="M80.3019 68.8302H77.434V71.6981H80.3019V68.8302Z" fill="black"/>
<path d="M83.1698 68.8302H80.3019V71.6981H83.1698V68.8302Z" fill="black"/>
<path d="M86.0377 68.8302H83.1698V71.6981H86.0377V68.8302Z" fill="black"/>
<path d="M94.6415 68.8302H91.7736V71.6981H94.6415V68.8302Z" fill="black"/>
<path d="M106.113 68.8302H103.245V71.6981H106.113V68.8302Z" fill="black"/>
<path d="M108.981 68.8302H106.113V71.6981H108.981V68.8302Z" fill="black"/>
<path d="M111.849 68.8302H108.981V71.6981H111.849V68.8302Z" fill="black"/>
<path d="M114.717 68.8302H111.849V71.6981H114.717V68.8302Z" fill="black"/>
<path d="M120.453 68.8302H117.585V71.6981H120.453V68.8302Z" fill="black"/>
<path d="M123.321 68.8302H120.453V71.6981H123.321V68.8302Z" fill="black"/>
<path d="M126.189 68.8302H123.321V71.6981H126.189V68.8302Z" fill="black"/>
<path d="M129.057 68.8302H126.189V71.6981H129.057V68.8302Z" fill="black"/>
<path d="M131.925 68.8302H129.057V71.6981H131.925V68.8302Z" fill="black"/>
<path d="M134.792 68.8302H131.925V71.6981H134.792V68.8302Z" fill="black"/>
<path d="M137.66 68.8302H134.792V71.6981H137.66V68.8302Z" fill="black"/>
<path d="M143.396 68.8302H140.528V71.6981H143.396V68.8302Z" fill="black"/>
<path d="M8.60378 71.6981H5.73586V74.566H8.60378V71.6981Z" fill="black"/>
<path d="M11.4717 71.6981H8.60378V74.566H11.4717V71.6981Z" fill="black"/>
<path d="M17.2076 71.6981H14.3396V74.566H17.2076V71.6981Z" fill="black"/>
<path d="M20.0755 71.6981H17.2076V74.566H20.0755V71.6981Z" fill="black"/>
<path d="M31.5472 71.6981H28.6792V74.566H31.5472V71.6981Z" fill="black"/>
<path d="M40.1509 71.6981H37.283V74.566H40.1509V71.6981Z" fill="black"/>
<path d="M43.0189 71.6981H40.151V74.566H43.0189V71.6981Z" fill="black"/>
<path d="M45.8868 71.6981H43.0189V74.566H45.8868V71.6981Z" fill="black"/>
<path d="M48.7547 71.6981H45.8868V74.566H48.7547V71.6981Z" fill="black"/>
<path d="M51.6227 71.6981H48.7547V74.566H51.6227V71.6981Z" fill="black"/>
<path d="M57.3585 71.6981H54.4906V74.566H57.3585V71.6981Z" fill="black"/>
<path d="M60.2264 71.6981H57.3585V74.566H60.2264V71.6981Z" fill="black"/>
<path d="M68.8302 71.6981H65.9623V74.566H68.8302V71.6981Z" fill="black"/>
<path d="M71.6981 71.6981H68.8302V74.566H71.6981V71.6981Z" fill="black"/>
<path d="M83.1698 71.6981H80.3019V74.566H83.1698V71.6981Z" fill="black"/>
<path d="M91.7736 71.6981H88.9057V74.566H91.7736V71.6981Z" fill="black"/>
<path d="M94.6415 71.6981H91.7736V74.566H94.6415V71.6981Z" fill="black"/>
<path d="M100.377 71.6981H97.5094V74.566H100.377V71.6981Z" fill="black"/>
<path d="M103.245 71.6981H100.377V74.566H103.245V71.6981Z" fill="black"/>
<path d="M106.113 71.6981H103.245V74.566H106.113V71.6981Z" fill="black"/>
<path d="M108.981 71.6981H106.113V74.566H108.981V71.6981Z" fill="black"/>
<path d="M111.849 71.6981H108.981V74.566H111.849V71.6981Z" fill="black"/>
<path d="M123.321 71.6981H120.453V74.566H123.321V71.6981Z" fill="black"/>
<path d="M134.792 71.6981H131.925V74.566H134.792V71.6981Z" fill="black"/>
<path d="M137.66 71.6981H134.792V74.566H137.66V71.6981Z" fill="black"/>
<path d="M140.528 71.6981H137.66V74.566H140.528V71.6981Z" fill="black"/>
<path d="M14.3396 74.566H11.4717V77.434H14.3396V74.566Z" fill="black"/>
<path d="M17.2076 74.566H14.3396V77.434H17.2076V74.566Z" fill="black"/>
<path d="M20.0755 74.566H17.2076V77.434H20.0755V74.566Z" fill="black"/>
<path d="M25.8113 74.566H22.9434V77.434H25.8113V74.566Z" fill="black"/>
<path d="M31.5472 74.566H28.6792V77.434H31.5472V74.566Z" fill="black"/>
<path d="M34.4151 74.566H31.5472V77.434H34.4151V74.566Z" fill="black"/>
<path d="M37.283 74.566H34.4151V77.434H37.283V74.566Z" fill="black"/>
<path d="M43.0189 74.566H40.151V77.434H43.0189V74.566Z" fill="black"/>
<path d="M45.8868 74.566H43.0189V77.434H45.8868V74.566Z" fill="black"/>
<path d="M60.2264 74.566H57.3585V77.434H60.2264V74.566Z" fill="black"/>
<path d="M65.9623 74.566H63.0943V77.434H65.9623V74.566Z" fill="black"/>
<path d="M68.8302 74.566H65.9623V77.434H68.8302V74.566Z" fill="black"/>
<path d="M71.6981 74.566H68.8302V77.434H71.6981V74.566Z" fill="black"/>
<path d="M77.434 74.566H74.566V77.434H77.434V74.566Z" fill="black"/>
<path d="M83.1698 74.566H80.3019V77.434H83.1698V74.566Z" fill="black"/>
<path d="M86.0377 74.566H83.1698V77.434H86.0377V74.566Z" fill="black"/>
<path d="M91.7736 74.566H88.9057V77.434H91.7736V74.566Z" fill="black"/>
<path d="M94.6415 74.566H91.7736V77.434H94.6415V74.566Z" fill="black"/>
<path d="M111.849 74.566H108.981V77.434H111.849V74.566Z" fill="black"/>
<path d="M114.717 74.566H111.849V77.434H114.717V74.566Z" fill="black"/>
<path d="M120.453 74.566H117.585V77.434H120.453V74.566Z" fill="black"/>
<path d="M123.321 74.566H120.453V77.434H123.321V74.566Z" fill="black"/>
<path d="M129.057 74.566H126.189V77.434H129.057V74.566Z" fill="black"/>
<path d="M134.792 74.566H131.925V77.434H134.792V74.566Z" fill="black"/>
<path d="M137.66 74.566H134.792V77.434H137.66V74.566Z" fill="black"/>
<path d="M146.264 74.566H143.396V77.434H146.264V74.566Z" fill="black"/>
<path d="M8.60378 77.434H5.73586V80.3019H8.60378V77.434Z" fill="black"/>
<path d="M11.4717 77.434H8.60378V80.3019H11.4717V77.434Z" fill="black"/>
<path d="M17.2076 77.434H14.3396V80.3019H17.2076V77.434Z" fill="black"/>
<path d="M20.0755 77.434H17.2076V80.3019H20.0755V77.434Z" fill="black"/>
<path d="M31.5472 77.434H28.6792V80.3019H31.5472V77.434Z" fill="black"/>
<path d="M34.4151 77.434H31.5472V80.3019H34.4151V77.434Z" fill="black"/>
<path d="M40.1509 77.434H37.283V80.3019H40.1509V77.434Z" fill="black"/>
<path d="M43.0189 77.434H40.151V80.3019H43.0189V77.434Z" fill="black"/>
<path d="M45.8868 77.434H43.0189V80.3019H45.8868V77.434Z" fill="black"/>
<path d="M65.9623 77.434H63.0943V80.3019H65.9623V77.434Z" fill="black"/>
<path d="M68.8302 77.434H65.9623V80.3019H68.8302V77.434Z" fill="black"/>
<path d="M71.6981 77.434H68.8302V80.3019H71.6981V77.434Z" fill="black"/>
<path d="M83.1698 77.434H80.3019V80.3019H83.1698V77.434Z" fill="black"/>
<path d="M91.7736 77.434H88.9057V80.3019H91.7736V77.434Z" fill="black"/>
<path d="M97.5094 77.434H94.6415V80.3019H97.5094V77.434Z" fill="black"/>
<path d="M100.377 77.434H97.5094V80.3019H100.377V77.434Z" fill="black"/>
<path d="M103.245 77.434H100.377V80.3019H103.245V77.434Z" fill="black"/>
<path d="M114.717 77.434H111.849V80.3019H114.717V77.434Z" fill="black"/>
<path d="M117.585 77.434H114.717V80.3019H117.585V77.434Z" fill="black"/>
<path d="M123.321 77.434H120.453V80.3019H123.321V77.434Z" fill="black"/>
<path d="M134.792 77.434H131.925V80.3019H134.792V77.434Z" fill="black"/>
<path d="M146.264 77.434H143.396V80.3019H146.264V77.434Z" fill="black"/>
<path d="M8.60378 80.3019H5.73586V83.1698H8.60378V80.3019Z" fill="black"/>
<path d="M11.4717 80.3019H8.60378V83.1698H11.4717V80.3019Z" fill="black"/>
<path d="M14.3396 80.3019H11.4717V83.1698H14.3396V80.3019Z" fill="black"/>
<path d="M17.2076 80.3019H14.3396V83.1698H17.2076V80.3019Z" fill="black"/>
<path d="M20.0755 80.3019H17.2076V83.1698H20.0755V80.3019Z" fill="black"/>
<path d="M22.9434 80.3019H20.0755V83.1698H22.9434V80.3019Z" fill="black"/>
<path d="M25.8113 80.3019H22.9434V83.1698H25.8113V80.3019Z" fill="black"/>
<path d="M28.6792 80.3019H25.8113V83.1698H28.6792V80.3019Z" fill="black"/>
<path d="M31.5472 80.3019H28.6792V83.1698H31.5472V80.3019Z" fill="black"/>
<path d="M37.283 80.3019H34.4151V83.1698H37.283V80.3019Z" fill="black"/>
<path d="M43.0189 80.3019H40.151V83.1698H43.0189V80.3019Z" fill="black"/>
<path d="M45.8868 80.3019H43.0189V83.1698H45.8868V80.3019Z" fill="black"/>
<path d="M48.7547 80.3019H45.8868V83.1698H48.7547V80.3019Z" fill="black"/>
<path d="M51.6227 80.3019H48.7547V83.1698H51.6227V80.3019Z" fill="black"/>
<path d="M54.4906 80.3019H51.6227V83.1698H54.4906V80.3019Z" fill="black"/>
<path d="M63.0943 80.3019H60.2264V83.1698H63.0943V80.3019Z" fill="black"/>
<path d="M65.9623 80.3019H63.0943V83.1698H65.9623V80.3019Z" fill="black"/>
<path d="M71.6981 80.3019H68.8302V83.1698H71.6981V80.3019Z" fill="black"/>
<path d="M74.566 80.3019H71.6981V83.1698H74.566V80.3019Z" fill="black"/>
<path d="M77.434 80.3019H74.566V83.1698H77.434V80.3019Z" fill="black"/>
<path d="M80.3019 80.3019H77.434V83.1698H80.3019V80.3019Z" fill="black"/>
<path d="M83.1698 80.3019H80.3019V83.1698H83.1698V80.3019Z" fill="black"/>
<path d="M88.9057 80.3019H86.0377V83.1698H88.9057V80.3019Z" fill="black"/>
<path d="M94.6415 80.3019H91.7736V83.1698H94.6415V80.3019Z" fill="black"/>
<path d="M106.113 80.3019H103.245V83.1698H106.113V80.3019Z" fill="black"/>
<path d="M108.981 80.3019H106.113V83.1698H108.981V80.3019Z" fill="black"/>
<path d="M114.717 80.3019H111.849V83.1698H114.717V80.3019Z" fill="black"/>
<path d="M123.321 80.3019H120.453V83.1698H123.321V80.3019Z" fill="black"/>
<path d="M126.189 80.3019H123.321V83.1698H126.189V80.3019Z" fill="black"/>
<path d="M129.057 80.3019H126.189V83.1698H129.057V80.3019Z" fill="black"/>
<path d="M131.925 80.3019H129.057V83.1698H131.925V80.3019Z" fill="black"/>
<path d="M134.792 80.3019H131.925V83.1698H134.792V80.3019Z" fill="black"/>
<path d="M8.60378 83.1698H5.73586V86.0377H8.60378V83.1698Z" fill="black"/>
<path d="M11.4717 83.1698H8.60378V86.0377H11.4717V83.1698Z" fill="black"/>
<path d="M14.3396 83.1698H11.4717V86.0377H14.3396V83.1698Z" fill="black"/>
<path d="M17.2076 83.1698H14.3396V86.0377H17.2076V83.1698Z" fill="black"/>
<path d="M20.0755 83.1698H17.2076V86.0377H20.0755V83.1698Z" fill="black"/>
<path d="M31.5472 83.1698H28.6792V86.0377H31.5472V83.1698Z" fill="black"/>
<path d="M34.4151 83.1698H31.5472V86.0377H34.4151V83.1698Z" fill="black"/>
<path d="M37.283 83.1698H34.4151V86.0377H37.283V83.1698Z" fill="black"/>
<path d="M45.8868 83.1698H43.0189V86.0377H45.8868V83.1698Z" fill="black"/>
<path d="M54.4906 83.1698H51.6227V86.0377H54.4906V83.1698Z" fill="black"/>
<path d="M57.3585 83.1698H54.4906V86.0377H57.3585V83.1698Z" fill="black"/>
<path d="M63.0943 83.1698H60.2264V86.0377H63.0943V83.1698Z" fill="black"/>
<path d="M68.8302 83.1698H65.9623V86.0377H68.8302V83.1698Z" fill="black"/>
<path d="M74.566 83.1698H71.6981V86.0377H74.566V83.1698Z" fill="black"/>
<path d="M77.434 83.1698H74.566V86.0377H77.434V83.1698Z" fill="black"/>
<path d="M80.3019 83.1698H77.434V86.0377H80.3019V83.1698Z" fill="black"/>
<path d="M83.1698 83.1698H80.3019V86.0377H83.1698V83.1698Z" fill="black"/>
<path d="M86.0377 83.1698H83.1698V86.0377H86.0377V83.1698Z" fill="black"/>
<path d="M88.9057 83.1698H86.0377V86.0377H88.9057V83.1698Z" fill="black"/>
<path d="M91.7736 83.1698H88.9057V86.0377H91.7736V83.1698Z" fill="black"/>
<path d="M94.6415 83.1698H91.7736V86.0377H94.6415V83.1698Z" fill="black"/>
<path d="M100.377 83.1698H97.5094V86.0377H100.377V83.1698Z" fill="black"/>
<path d="M108.981 83.1698H106.113V86.0377H108.981V83.1698Z" fill="black"/>
<path d="M114.717 83.1698H111.849V86.0377H114.717V83.1698Z" fill="black"/>
<path d="M120.453 83.1698H117.585V86.0377H120.453V83.1698Z" fill="black"/>
<path d="M123.321 83.1698H120.453V86.0377H123.321V83.1698Z" fill="black"/>
<path d="M137.66 83.1698H134.792V86.0377H137.66V83.1698Z" fill="black"/>
<path d="M146.264 83.1698H143.396V86.0377H146.264V83.1698Z" fill="black"/>
<path d="M8.60378 86.0377H5.73586V88.9056H8.60378V86.0377Z" fill="black"/>
<path d="M11.4717 86.0377H8.60378V88.9056H11.4717V86.0377Z" fill="black"/>
<path d="M17.2076 86.0377H14.3396V88.9056H17.2076V86.0377Z" fill="black"/>
<path d="M22.9434 86.0377H20.0755V88.9056H22.9434V86.0377Z" fill="black"/>
<path d="M25.8113 86.0377H22.9434V88.9056H25.8113V86.0377Z" fill="black"/>
<path d="M31.5472 86.0377H28.6792V88.9056H31.5472V86.0377Z" fill="black"/>
<path d="M34.4151 86.0377H31.5472V88.9056H34.4151V86.0377Z" fill="black"/>
<path d="M37.283 86.0377H34.4151V88.9056H37.283V86.0377Z" fill="black"/>
<path d="M40.1509 86.0377H37.283V88.9056H40.1509V86.0377Z" fill="black"/>
<path d="M45.8868 86.0377H43.0189V88.9056H45.8868V86.0377Z" fill="black"/>
<path d="M48.7547 86.0377H45.8868V88.9056H48.7547V86.0377Z" fill="black"/>
<path d="M51.6227 86.0377H48.7547V88.9056H51.6227V86.0377Z" fill="black"/>
<path d="M54.4906 86.0377H51.6227V88.9056H54.4906V86.0377Z" fill="black"/>
<path d="M57.3585 86.0377H54.4906V88.9056H57.3585V86.0377Z" fill="black"/>
<path d="M60.2264 86.0377H57.3585V88.9056H60.2264V86.0377Z" fill="black"/>
<path d="M65.9623 86.0377H63.0943V88.9056H65.9623V86.0377Z" fill="black"/>
<path d="M68.8302 86.0377H65.9623V88.9056H68.8302V86.0377Z" fill="black"/>
<path d="M77.434 86.0377H74.566V88.9056H77.434V86.0377Z" fill="black"/>
<path d="M83.1698 86.0377H80.3019V88.9056H83.1698V86.0377Z" fill="black"/>
<path d="M86.0377 86.0377H83.1698V88.9056H86.0377V86.0377Z" fill="black"/>
<path d="M97.5094 86.0377H94.6415V88.9056H97.5094V86.0377Z" fill="black"/>
<path d="M100.377 86.0377H97.5094V88.9056H100.377V86.0377Z" fill="black"/>
<path d="M117.585 86.0377H114.717V88.9056H117.585V86.0377Z" fill="black"/>
<path d="M123.321 86.0377H120.453V88.9056H123.321V86.0377Z" fill="black"/>
<path d="M126.189 86.0377H123.321V88.9056H126.189V86.0377Z" fill="black"/>
<path d="M137.66 86.0377H134.792V88.9056H137.66V86.0377Z" fill="black"/>
<path d="M140.528 86.0377H137.66V88.9056H140.528V86.0377Z" fill="black"/>
<path d="M11.4717 88.9056H8.60378V91.7736H11.4717V88.9056Z" fill="black"/>
<path d="M14.3396 88.9056H11.4717V91.7736H14.3396V88.9056Z" fill="black"/>
<path d="M20.0755 88.9056H17.2076V91.7736H20.0755V88.9056Z" fill="black"/>
<path d="M34.4151 88.9056H31.5472V91.7736H34.4151V88.9056Z" fill="black"/>
<path d="M40.1509 88.9056H37.283V91.7736H40.1509V88.9056Z" fill="black"/>
<path d="M45.8868 88.9056H43.0189V91.7736H45.8868V88.9056Z" fill="black"/>
<path d="M54.4906 88.9056H51.6227V91.7736H54.4906V88.9056Z" fill="black"/>
<path d="M65.9623 88.9056H63.0943V91.7736H65.9623V88.9056Z" fill="black"/>
<path d="M71.6981 88.9056H68.8302V91.7736H71.6981V88.9056Z" fill="black"/>
<path d="M80.3019 88.9056H77.434V91.7736H80.3019V88.9056Z" fill="black"/>
<path d="M86.0377 88.9056H83.1698V91.7736H86.0377V88.9056Z" fill="black"/>
<path d="M91.7736 88.9056H88.9057V91.7736H91.7736V88.9056Z" fill="black"/>
<path d="M100.377 88.9056H97.5094V91.7736H100.377V88.9056Z" fill="black"/>
<path d="M106.113 88.9056H103.245V91.7736H106.113V88.9056Z" fill="black"/>
<path d="M108.981 88.9056H106.113V91.7736H108.981V88.9056Z" fill="black"/>
<path d="M114.717 88.9056H111.849V91.7736H114.717V88.9056Z" fill="black"/>
<path d="M129.057 88.9056H126.189V91.7736H129.057V88.9056Z" fill="black"/>
<path d="M131.925 88.9056H129.057V91.7736H131.925V88.9056Z" fill="black"/>
<path d="M137.66 88.9056H134.792V91.7736H137.66V88.9056Z" fill="black"/>
<path d="M140.528 88.9056H137.66V91.7736H140.528V88.9056Z" fill="black"/>
<path d="M146.264 88.9056H143.396V91.7736H146.264V88.9056Z" fill="black"/>
<path d="M8.60378 91.7736H5.73586V94.6415H8.60378V91.7736Z" fill="black"/>
<path d="M11.4717 91.7736H8.60378V94.6415H11.4717V91.7736Z" fill="black"/>
<path d="M22.9434 91.7736H20.0755V94.6415H22.9434V91.7736Z" fill="black"/>
<path d="M25.8113 91.7736H22.9434V94.6415H25.8113V91.7736Z" fill="black"/>
<path d="M40.1509 91.7736H37.283V94.6415H40.1509V91.7736Z" fill="black"/>
<path d="M45.8868 91.7736H43.0189V94.6415H45.8868V91.7736Z" fill="black"/>
<path d="M48.7547 91.7736H45.8868V94.6415H48.7547V91.7736Z" fill="black"/>
<path d="M65.9623 91.7736H63.0943V94.6415H65.9623V91.7736Z" fill="black"/>
<path d="M74.566 91.7736H71.6981V94.6415H74.566V91.7736Z" fill="black"/>
<path d="M77.434 91.7736H74.566V94.6415H77.434V91.7736Z" fill="black"/>
<path d="M88.9057 91.7736H86.0377V94.6415H88.9057V91.7736Z" fill="black"/>
<path d="M94.6415 91.7736H91.7736V94.6415H94.6415V91.7736Z" fill="black"/>
<path d="M106.113 91.7736H103.245V94.6415H106.113V91.7736Z" fill="black"/>
<path d="M111.849 91.7736H108.981V94.6415H111.849V91.7736Z" fill="black"/>
<path d="M114.717 91.7736H111.849V94.6415H114.717V91.7736Z" fill="black"/>
<path d="M117.585 91.7736H114.717V94.6415H117.585V91.7736Z" fill="black"/>
<path d="M120.453 91.7736H117.585V94.6415H120.453V91.7736Z" fill="black"/>
<path d="M123.321 91.7736H120.453V94.6415H123.321V91.7736Z" fill="black"/>
<path d="M126.189 91.7736H123.321V94.6415H126.189V91.7736Z" fill="black"/>
<path d="M129.057 91.7736H126.189V94.6415H129.057V91.7736Z" fill="black"/>
<path d="M143.396 91.7736H140.528V94.6415H143.396V91.7736Z" fill="black"/>
<path d="M146.264 91.7736H143.396V94.6415H146.264V91.7736Z" fill="black"/>
<path d="M11.4717 94.6415H8.60378V97.5094H11.4717V94.6415Z" fill="black"/>
<path d="M20.0755 94.6415H17.2076V97.5094H20.0755V94.6415Z" fill="black"/>
<path d="M22.9434 94.6415H20.0755V97.5094H22.9434V94.6415Z" fill="black"/>
<path d="M37.283 94.6415H34.4151V97.5094H37.283V94.6415Z" fill="black"/>
<path d="M43.0189 94.6415H40.151V97.5094H43.0189V94.6415Z" fill="black"/>
<path d="M45.8868 94.6415H43.0189V97.5094H45.8868V94.6415Z" fill="black"/>
<path d="M48.7547 94.6415H45.8868V97.5094H48.7547V94.6415Z" fill="black"/>
<path d="M57.3585 94.6415H54.4906V97.5094H57.3585V94.6415Z" fill="black"/>
<path d="M63.0943 94.6415H60.2264V97.5094H63.0943V94.6415Z" fill="black"/>
<path d="M68.8302 94.6415H65.9623V97.5094H68.8302V94.6415Z" fill="black"/>
<path d="M71.6981 94.6415H68.8302V97.5094H71.6981V94.6415Z" fill="black"/>
<path d="M74.566 94.6415H71.6981V97.5094H74.566V94.6415Z" fill="black"/>
<path d="M77.434 94.6415H74.566V97.5094H77.434V94.6415Z" fill="black"/>
<path d="M86.0377 94.6415H83.1698V97.5094H86.0377V94.6415Z" fill="black"/>
<path d="M88.9057 94.6415H86.0377V97.5094H88.9057V94.6415Z" fill="black"/>
<path d="M91.7736 94.6415H88.9057V97.5094H91.7736V94.6415Z" fill="black"/>
<path d="M103.245 94.6415H100.377V97.5094H103.245V94.6415Z" fill="black"/>
<path d="M108.981 94.6415H106.113V97.5094H108.981V94.6415Z" fill="black"/>
<path d="M111.849 94.6415H108.981V97.5094H111.849V94.6415Z" fill="black"/>
<path d="M114.717 94.6415H111.849V97.5094H114.717V94.6415Z" fill="black"/>
<path d="M117.585 94.6415H114.717V97.5094H117.585V94.6415Z" fill="black"/>
<path d="M120.453 94.6415H117.585V97.5094H120.453V94.6415Z" fill="black"/>
<path d="M126.189 94.6415H123.321V97.5094H126.189V94.6415Z" fill="black"/>
<path d="M134.792 94.6415H131.925V97.5094H134.792V94.6415Z" fill="black"/>
<path d="M137.66 94.6415H134.792V97.5094H137.66V94.6415Z" fill="black"/>
<path d="M146.264 94.6415H143.396V97.5094H146.264V94.6415Z" fill="black"/>
<path d="M11.4717 97.5094H8.60378V100.377H11.4717V97.5094Z" fill="black"/>
<path d="M20.0755 97.5094H17.2076V100.377H20.0755V97.5094Z" fill="black"/>
<path d="M25.8113 97.5094H22.9434V100.377H25.8113V97.5094Z" fill="black"/>
<path d="M34.4151 97.5094H31.5472V100.377H34.4151V97.5094Z" fill="black"/>
<path d="M37.283 97.5094H34.4151V100.377H37.283V97.5094Z" fill="black"/>
<path d="M43.0189 97.5094H40.151V100.377H43.0189V97.5094Z" fill="black"/>
<path d="M48.7547 97.5094H45.8868V100.377H48.7547V97.5094Z" fill="black"/>
<path d="M54.4906 97.5094H51.6227V100.377H54.4906V97.5094Z" fill="black"/>
<path d="M57.3585 97.5094H54.4906V100.377H57.3585V97.5094Z" fill="black"/>
<path d="M63.0943 97.5094H60.2264V100.377H63.0943V97.5094Z" fill="black"/>
<path d="M68.8302 97.5094H65.9623V100.377H68.8302V97.5094Z" fill="black"/>
<path d="M74.566 97.5094H71.6981V100.377H74.566V97.5094Z" fill="black"/>
<path d="M77.434 97.5094H74.566V100.377H77.434V97.5094Z" fill="black"/>
<path d="M80.3019 97.5094H77.434V100.377H80.3019V97.5094Z" fill="black"/>
<path d="M83.1698 97.5094H80.3019V100.377H83.1698V97.5094Z" fill="black"/>
<path d="M88.9057 97.5094H86.0377V100.377H88.9057V97.5094Z" fill="black"/>
<path d="M91.7736 97.5094H88.9057V100.377H91.7736V97.5094Z" fill="black"/>
<path d="M97.5094 97.5094H94.6415V100.377H97.5094V97.5094Z" fill="black"/>
<path d="M103.245 97.5094H100.377V100.377H103.245V97.5094Z" fill="black"/>
<path d="M106.113 97.5094H103.245V100.377H106.113V97.5094Z" fill="black"/>
<path d="M123.321 97.5094H120.453V100.377H123.321V97.5094Z" fill="black"/>
<path d="M126.189 97.5094H123.321V100.377H126.189V97.5094Z" fill="black"/>
<path d="M129.057 97.5094H126.189V100.377H129.057V97.5094Z" fill="black"/>
<path d="M131.925 97.5094H129.057V100.377H131.925V97.5094Z" fill="black"/>
<path d="M140.528 97.5094H137.66V100.377H140.528V97.5094Z" fill="black"/>
<path d="M11.4717 100.377H8.60378V103.245H11.4717V100.377Z" fill="black"/>
<path d="M17.2076 100.377H14.3396V103.245H17.2076V100.377Z" fill="black"/>
<path d="M20.0755 100.377H17.2076V103.245H20.0755V100.377Z" fill="black"/>
<path d="M22.9434 100.377H20.0755V103.245H22.9434V100.377Z" fill="black"/>
<path d="M34.4151 100.377H31.5472V103.245H34.4151V100.377Z" fill="black"/>
<path d="M43.0189 100.377H40.151V103.245H43.0189V100.377Z" fill="black"/>
<path d="M45.8868 100.377H43.0189V103.245H45.8868V100.377Z" fill="black"/>
<path d="M48.7547 100.377H45.8868V103.245H48.7547V100.377Z" fill="black"/>
<path d="M57.3585 100.377H54.4906V103.245H57.3585V100.377Z" fill="black"/>
<path d="M63.0943 100.377H60.2264V103.245H63.0943V100.377Z" fill="black"/>
<path d="M77.434 100.377H74.566V103.245H77.434V100.377Z" fill="black"/>
<path d="M88.9057 100.377H86.0377V103.245H88.9057V100.377Z" fill="black"/>
<path d="M94.6415 100.377H91.7736V103.245H94.6415V100.377Z" fill="black"/>
<path d="M97.5094 100.377H94.6415V103.245H97.5094V100.377Z" fill="black"/>
<path d="M103.245 100.377H100.377V103.245H103.245V100.377Z" fill="black"/>
<path d="M108.981 100.377H106.113V103.245H108.981V100.377Z" fill="black"/>
<path d="M111.849 100.377H108.981V103.245H111.849V100.377Z" fill="black"/>
<path d="M114.717 100.377H111.849V103.245H114.717V100.377Z" fill="black"/>
<path d="M126.189 100.377H123.321V103.245H126.189V100.377Z" fill="black"/>
<path d="M131.925 100.377H129.057V103.245H131.925V100.377Z" fill="black"/>
<path d="M146.264 100.377H143.396V103.245H146.264V100.377Z" fill="black"/>
<path d="M8.60378 103.245H5.73586V106.113H8.60378V103.245Z" fill="black"/>
<path d="M25.8113 103.245H22.9434V106.113H25.8113V103.245Z" fill="black"/>
<path d="M34.4151 103.245H31.5472V106.113H34.4151V103.245Z" fill="black"/>
<path d="M43.0189 103.245H40.151V106.113H43.0189V103.245Z" fill="black"/>
<path d="M51.6227 103.245H48.7547V106.113H51.6227V103.245Z" fill="black"/>
<path d="M60.2264 103.245H57.3585V106.113H60.2264V103.245Z" fill="black"/>
<path d="M63.0943 103.245H60.2264V106.113H63.0943V103.245Z" fill="black"/>
<path d="M65.9623 103.245H63.0943V106.113H65.9623V103.245Z" fill="black"/>
<path d="M71.6981 103.245H68.8302V106.113H71.6981V103.245Z" fill="black"/>
<path d="M74.566 103.245H71.6981V106.113H74.566V103.245Z" fill="black"/>
<path d="M83.1698 103.245H80.3019V106.113H83.1698V103.245Z" fill="black"/>
<path d="M94.6415 103.245H91.7736V106.113H94.6415V103.245Z" fill="black"/>
<path d="M100.377 103.245H97.5094V106.113H100.377V103.245Z" fill="black"/>
<path d="M103.245 103.245H100.377V106.113H103.245V103.245Z" fill="black"/>
<path d="M106.113 103.245H103.245V106.113H106.113V103.245Z" fill="black"/>
<path d="M117.585 103.245H114.717V106.113H117.585V103.245Z" fill="black"/>
<path d="M126.189 103.245H123.321V106.113H126.189V103.245Z" fill="black"/>
<path d="M131.925 103.245H129.057V106.113H131.925V103.245Z" fill="black"/>
<path d="M134.792 103.245H131.925V106.113H134.792V103.245Z" fill="black"/>
<path d="M11.4717 106.113H8.60378V108.981H11.4717V106.113Z" fill="black"/>
<path d="M14.3396 106.113H11.4717V108.981H14.3396V106.113Z" fill="black"/>
<path d="M17.2076 106.113H14.3396V108.981H17.2076V106.113Z" fill="black"/>
<path d="M20.0755 106.113H17.2076V108.981H20.0755V106.113Z" fill="black"/>
<path d="M22.9434 106.113H20.0755V108.981H22.9434V106.113Z" fill="black"/>
<path d="M28.6792 106.113H25.8113V108.981H28.6792V106.113Z" fill="black"/>
<path d="M31.5472 106.113H28.6792V108.981H31.5472V106.113Z" fill="black"/>
<path d="M37.283 106.113H34.4151V108.981H37.283V106.113Z" fill="black"/>
<path d="M43.0189 106.113H40.151V108.981H43.0189V106.113Z" fill="black"/>
<path d="M57.3585 106.113H54.4906V108.981H57.3585V106.113Z" fill="black"/>
<path d="M60.2264 106.113H57.3585V108.981H60.2264V106.113Z" fill="black"/>
<path d="M71.6981 106.113H68.8302V108.981H71.6981V106.113Z" fill="black"/>
<path d="M74.566 106.113H71.6981V108.981H74.566V106.113Z" fill="black"/>
<path d="M80.3019 106.113H77.434V108.981H80.3019V106.113Z" fill="black"/>
<path d="M83.1698 106.113H80.3019V108.981H83.1698V106.113Z" fill="black"/>
<path d="M100.377 106.113H97.5094V108.981H100.377V106.113Z" fill="black"/>
<path d="M103.245 106.113H100.377V108.981H103.245V106.113Z" fill="black"/>
<path d="M106.113 106.113H103.245V108.981H106.113V106.113Z" fill="black"/>
<path d="M108.981 106.113H106.113V108.981H108.981V106.113Z" fill="black"/>
<path d="M111.849 106.113H108.981V108.981H111.849V106.113Z" fill="black"/>
<path d="M114.717 106.113H111.849V108.981H114.717V106.113Z" fill="black"/>
<path d="M129.057 106.113H126.189V108.981H129.057V106.113Z" fill="black"/>
<path d="M137.66 106.113H134.792V108.981H137.66V106.113Z" fill="black"/>
<path d="M140.528 106.113H137.66V108.981H140.528V106.113Z" fill="black"/>
<path d="M143.396 106.113H140.528V108.981H143.396V106.113Z" fill="black"/>
<path d="M14.3396 108.981H11.4717V111.849H14.3396V108.981Z" fill="black"/>
<path d="M22.9434 108.981H20.0755V111.849H22.9434V108.981Z" fill="black"/>
<path d="M25.8113 108.981H22.9434V111.849H25.8113V108.981Z" fill="black"/>
<path d="M28.6792 108.981H25.8113V111.849H28.6792V108.981Z" fill="black"/>
<path d="M31.5472 108.981H28.6792V111.849H31.5472V108.981Z" fill="black"/>
<path d="M34.4151 108.981H31.5472V111.849H34.4151V108.981Z" fill="black"/>
<path d="M37.283 108.981H34.4151V111.849H37.283V108.981Z" fill="black"/>
<path d="M43.0189 108.981H40.151V111.849H43.0189V108.981Z" fill="black"/>
<path d="M57.3585 108.981H54.4906V111.849H57.3585V108.981Z" fill="black"/>
<path d="M60.2264 108.981H57.3585V111.849H60.2264V108.981Z" fill="black"/>
<path d="M65.9623 108.981H63.0943V111.849H65.9623V108.981Z" fill="black"/>
<path d="M68.8302 108.981H65.9623V111.849H68.8302V108.981Z" fill="black"/>
<path d="M71.6981 108.981H68.8302V111.849H71.6981V108.981Z" fill="black"/>
<path d="M77.434 108.981H74.566V111.849H77.434V108.981Z" fill="black"/>
<path d="M80.3019 108.981H77.434V111.849H80.3019V108.981Z" fill="black"/>
<path d="M86.0377 108.981H83.1698V111.849H86.0377V108.981Z" fill="black"/>
<path d="M111.849 108.981H108.981V111.849H111.849V108.981Z" fill="black"/>
<path d="M114.717 108.981H111.849V111.849H114.717V108.981Z" fill="black"/>
<path d="M117.585 108.981H114.717V111.849H117.585V108.981Z" fill="black"/>
<path d="M120.453 108.981H117.585V111.849H120.453V108.981Z" fill="black"/>
<path d="M123.321 108.981H120.453V111.849H123.321V108.981Z" fill="black"/>
<path d="M129.057 108.981H126.189V111.849H129.057V108.981Z" fill="black"/>
<path d="M134.792 108.981H131.925V111.849H134.792V108.981Z" fill="black"/>
<path d="M140.528 108.981H137.66V111.849H140.528V108.981Z" fill="black"/>
<path d="M143.396 108.981H140.528V111.849H143.396V108.981Z" fill="black"/>
<path d="M146.264 108.981H143.396V111.849H146.264V108.981Z" fill="black"/>
<path d="M11.4717 111.849H8.60378V114.717H11.4717V111.849Z" fill="black"/>
<path d="M14.3396 111.849H11.4717V114.717H14.3396V111.849Z" fill="black"/>
<path d="M20.0755 111.849H17.2076V114.717H20.0755V111.849Z" fill="black"/>
<path d="M22.9434 111.849H20.0755V114.717H22.9434V111.849Z" fill="black"/>
<path d="M31.5472 111.849H28.6792V114.717H31.5472V111.849Z" fill="black"/>
<path d="M37.283 111.849H34.4151V114.717H37.283V111.849Z" fill="black"/>
<path d="M40.1509 111.849H37.283V114.717H40.1509V111.849Z" fill="black"/>
<path d="M45.8868 111.849H43.0189V114.717H45.8868V111.849Z" fill="black"/>
<path d="M48.7547 111.849H45.8868V114.717H48.7547V111.849Z" fill="black"/>
<path d="M54.4906 111.849H51.6227V114.717H54.4906V111.849Z" fill="black"/>
<path d="M57.3585 111.849H54.4906V114.717H57.3585V111.849Z" fill="black"/>
<path d="M65.9623 111.849H63.0943V114.717H65.9623V111.849Z" fill="black"/>
<path d="M71.6981 111.849H68.8302V114.717H71.6981V111.849Z" fill="black"/>
<path d="M80.3019 111.849H77.434V114.717H80.3019V111.849Z" fill="black"/>
<path d="M83.1698 111.849H80.3019V114.717H83.1698V111.849Z" fill="black"/>
<path d="M97.5094 111.849H94.6415V114.717H97.5094V111.849Z" fill="black"/>
<path d="M100.377 111.849H97.5094V114.717H100.377V111.849Z" fill="black"/>
<path d="M117.585 111.849H114.717V114.717H117.585V111.849Z" fill="black"/>
<path d="M123.321 111.849H120.453V114.717H123.321V111.849Z" fill="black"/>
<path d="M126.189 111.849H123.321V114.717H126.189V111.849Z" fill="black"/>
<path d="M134.792 111.849H131.925V114.717H134.792V111.849Z" fill="black"/>
<path d="M146.264 111.849H143.396V114.717H146.264V111.849Z" fill="black"/>
<path d="M11.4717 114.717H8.60378V117.585H11.4717V114.717Z" fill="black"/>
<path d="M22.9434 114.717H20.0755V117.585H22.9434V114.717Z" fill="black"/>
<path d="M25.8113 114.717H22.9434V117.585H25.8113V114.717Z" fill="black"/>
<path d="M31.5472 114.717H28.6792V117.585H31.5472V114.717Z" fill="black"/>
<path d="M43.0189 114.717H40.151V117.585H43.0189V114.717Z" fill="black"/>
<path d="M45.8868 114.717H43.0189V117.585H45.8868V114.717Z" fill="black"/>
<path d="M48.7547 114.717H45.8868V117.585H48.7547V114.717Z" fill="black"/>
<path d="M57.3585 114.717H54.4906V117.585H57.3585V114.717Z" fill="black"/>
<path d="M60.2264 114.717H57.3585V117.585H60.2264V114.717Z" fill="black"/>
<path d="M63.0943 114.717H60.2264V117.585H63.0943V114.717Z" fill="black"/>
<path d="M68.8302 114.717H65.9623V117.585H68.8302V114.717Z" fill="black"/>
<path d="M71.6981 114.717H68.8302V117.585H71.6981V114.717Z" fill="black"/>
<path d="M74.566 114.717H71.6981V117.585H74.566V114.717Z" fill="black"/>
<path d="M88.9057 114.717H86.0377V117.585H88.9057V114.717Z" fill="black"/>
<path d="M91.7736 114.717H88.9057V117.585H91.7736V114.717Z" fill="black"/>
<path d="M94.6415 114.717H91.7736V117.585H94.6415V114.717Z" fill="black"/>
<path d="M108.981 114.717H106.113V117.585H108.981V114.717Z" fill="black"/>
<path d="M114.717 114.717H111.849V117.585H114.717V114.717Z" fill="black"/>
<path d="M117.585 114.717H114.717V117.585H117.585V114.717Z" fill="black"/>
<path d="M123.321 114.717H120.453V117.585H123.321V114.717Z" fill="black"/>
<path d="M11.4717 117.585H8.60378V120.453H11.4717V117.585Z" fill="black"/>
<path d="M14.3396 117.585H11.4717V120.453H14.3396V117.585Z" fill="black"/>
<path d="M17.2076 117.585H14.3396V120.453H17.2076V117.585Z" fill="black"/>
<path d="M28.6792 117.585H25.8113V120.453H28.6792V117.585Z" fill="black"/>
<path d="M31.5472 117.585H28.6792V120.453H31.5472V117.585Z" fill="black"/>
<path d="M45.8868 117.585H43.0189V120.453H45.8868V117.585Z" fill="black"/>
<path d="M48.7547 117.585H45.8868V120.453H48.7547V117.585Z" fill="black"/>
<path d="M51.6227 117.585H48.7547V120.453H51.6227V117.585Z" fill="black"/>
<path d="M63.0943 117.585H60.2264V120.453H63.0943V117.585Z" fill="black"/>
<path d="M68.8302 117.585H65.9623V120.453H68.8302V117.585Z" fill="black"/>
<path d="M71.6981 117.585H68.8302V120.453H71.6981V117.585Z" fill="black"/>
<path d="M74.566 117.585H71.6981V120.453H74.566V117.585Z" fill="black"/>
<path d="M77.434 117.585H74.566V120.453H77.434V117.585Z" fill="black"/>
<path d="M88.9057 117.585H86.0377V120.453H88.9057V117.585Z" fill="black"/>
<path d="M91.7736 117.585H88.9057V120.453H91.7736V117.585Z" fill="black"/>
<path d="M94.6415 117.585H91.7736V120.453H94.6415V117.585Z" fill="black"/>
<path d="M100.377 117.585H97.5094V120.453H100.377V117.585Z" fill="black"/>
<path d="M114.717 117.585H111.849V120.453H114.717V117.585Z" fill="black"/>
<path d="M123.321 117.585H120.453V120.453H123.321V117.585Z" fill="black"/>
<path d="M131.925 117.585H129.057V120.453H131.925V117.585Z" fill="black"/>
<path d="M137.66 117.585H134.792V120.453H137.66V117.585Z" fill="black"/>
<path d="M146.264 117.585H143.396V120.453H146.264V117.585Z" fill="black"/>
<path d="M8.60378 120.453H5.73586V123.321H8.60378V120.453Z" fill="black"/>
<path d="M11.4717 120.453H8.60378V123.321H11.4717V120.453Z" fill="black"/>
<path d="M14.3396 120.453H11.4717V123.321H14.3396V120.453Z" fill="black"/>
<path d="M25.8113 120.453H22.9434V123.321H25.8113V120.453Z" fill="black"/>
<path d="M28.6792 120.453H25.8113V123.321H28.6792V120.453Z" fill="black"/>
<path d="M40.1509 120.453H37.283V123.321H40.1509V120.453Z" fill="black"/>
<path d="M43.0189 120.453H40.151V123.321H43.0189V120.453Z" fill="black"/>
<path d="M45.8868 120.453H43.0189V123.321H45.8868V120.453Z" fill="black"/>
<path d="M48.7547 120.453H45.8868V123.321H48.7547V120.453Z" fill="black"/>
<path d="M51.6227 120.453H48.7547V123.321H51.6227V120.453Z" fill="black"/>
<path d="M54.4906 120.453H51.6227V123.321H54.4906V120.453Z" fill="black"/>
<path d="M57.3585 120.453H54.4906V123.321H57.3585V120.453Z" fill="black"/>
<path d="M60.2264 120.453H57.3585V123.321H60.2264V120.453Z" fill="black"/>
<path d="M63.0943 120.453H60.2264V123.321H63.0943V120.453Z" fill="black"/>
<path d="M71.6981 120.453H68.8302V123.321H71.6981V120.453Z" fill="black"/>
<path d="M74.566 120.453H71.6981V123.321H74.566V120.453Z" fill="black"/>
<path d="M77.434 120.453H74.566V123.321H77.434V120.453Z" fill="black"/>
<path d="M80.3019 120.453H77.434V123.321H80.3019V120.453Z" fill="black"/>
<path d="M83.1698 120.453H80.3019V123.321H83.1698V120.453Z" fill="black"/>
<path d="M100.377 120.453H97.5094V123.321H100.377V120.453Z" fill="black"/>
<path d="M108.981 120.453H106.113V123.321H108.981V120.453Z" fill="black"/>
<path d="M117.585 120.453H114.717V123.321H117.585V120.453Z" fill="black"/>
<path d="M123.321 120.453H120.453V123.321H123.321V120.453Z" fill="black"/>
<path d="M126.189 120.453H123.321V123.321H126.189V120.453Z" fill="black"/>
<path d="M129.057 120.453H126.189V123.321H129.057V120.453Z" fill="black"/>
<path d="M131.925 120.453H129.057V123.321H131.925V120.453Z" fill="black"/>
<path d="M134.792 120.453H131.925V123.321H134.792V120.453Z" fill="black"/>
<path d="M137.66 120.453H134.792V123.321H137.66V120.453Z" fill="black"/>
<path d="M140.528 120.453H137.66V123.321H140.528V120.453Z" fill="black"/>
<path d="M31.5472 123.321H28.6792V126.189H31.5472V123.321Z" fill="black"/>
<path d="M34.4151 123.321H31.5472V126.189H34.4151V123.321Z" fill="black"/>
<path d="M43.0189 123.321H40.151V126.189H43.0189V123.321Z" fill="black"/>
<path d="M54.4906 123.321H51.6227V126.189H54.4906V123.321Z" fill="black"/>
<path d="M57.3585 123.321H54.4906V126.189H57.3585V123.321Z" fill="black"/>
<path d="M63.0943 123.321H60.2264V126.189H63.0943V123.321Z" fill="black"/>
<path d="M68.8302 123.321H65.9623V126.189H68.8302V123.321Z" fill="black"/>
<path d="M71.6981 123.321H68.8302V126.189H71.6981V123.321Z" fill="black"/>
<path d="M83.1698 123.321H80.3019V126.189H83.1698V123.321Z" fill="black"/>
<path d="M88.9057 123.321H86.0377V126.189H88.9057V123.321Z" fill="black"/>
<path d="M91.7736 123.321H88.9057V126.189H91.7736V123.321Z" fill="black"/>
<path d="M106.113 123.321H103.245V126.189H106.113V123.321Z" fill="black"/>
<path d="M108.981 123.321H106.113V126.189H108.981V123.321Z" fill="black"/>
<path d="M114.717 123.321H111.849V126.189H114.717V123.321Z" fill="black"/>
<path d="M120.453 123.321H117.585V126.189H120.453V123.321Z" fill="black"/>
<path d="M123.321 123.321H120.453V126.189H123.321V123.321Z" fill="black"/>
<path d="M134.792 123.321H131.925V126.189H134.792V123.321Z" fill="black"/>
<path d="M140.528 123.321H137.66V126.189H140.528V123.321Z" fill="black"/>
<path d="M31.5472 126.189H28.6792V129.057H31.5472V126.189Z" fill="black"/>
<path d="M37.283 126.189H34.4151V129.057H37.283V126.189Z" fill="black"/>
<path d="M40.1509 126.189H37.283V129.057H40.1509V126.189Z" fill="black"/>
<path d="M45.8868 126.189H43.0189V129.057H45.8868V126.189Z" fill="black"/>
<path d="M51.6227 126.189H48.7547V129.057H51.6227V126.189Z" fill="black"/>
<path d="M57.3585 126.189H54.4906V129.057H57.3585V126.189Z" fill="black"/>
<path d="M60.2264 126.189H57.3585V129.057H60.2264V126.189Z" fill="black"/>
<path d="M68.8302 126.189H65.9623V129.057H68.8302V126.189Z" fill="black"/>
<path d="M71.6981 126.189H68.8302V129.057H71.6981V126.189Z" fill="black"/>
<path d="M77.434 126.189H74.566V129.057H77.434V126.189Z" fill="black"/>
<path d="M83.1698 126.189H80.3019V129.057H83.1698V126.189Z" fill="black"/>
<path d="M94.6415 126.189H91.7736V129.057H94.6415V126.189Z" fill="black"/>
<path d="M106.113 126.189H103.245V129.057H106.113V126.189Z" fill="black"/>
<path d="M111.849 126.189H108.981V129.057H111.849V126.189Z" fill="black"/>
<path d="M114.717 126.189H111.849V129.057H114.717V126.189Z" fill="black"/>
<path d="M117.585 126.189H114.717V129.057H117.585V126.189Z" fill="black"/>
<path d="M123.321 126.189H120.453V129.057H123.321V126.189Z" fill="black"/>
<path d="M129.057 126.189H126.189V129.057H129.057V126.189Z" fill="black"/>
<path d="M134.792 126.189H131.925V129.057H134.792V126.189Z" fill="black"/>
<path d="M137.66 126.189H134.792V129.057H137.66V126.189Z" fill="black"/>
<path d="M140.528 126.189H137.66V129.057H140.528V126.189Z" fill="black"/>
<path d="M143.396 126.189H140.528V129.057H143.396V126.189Z" fill="black"/>
<path d="M146.264 126.189H143.396V129.057H146.264V126.189Z" fill="black"/>
<path d="M31.5472 129.057H28.6792V131.925H31.5472V129.057Z" fill="black"/>
<path d="M43.0189 129.057H40.151V131.925H43.0189V129.057Z" fill="black"/>
<path d="M45.8868 129.057H43.0189V131.925H45.8868V129.057Z" fill="black"/>
<path d="M48.7547 129.057H45.8868V131.925H48.7547V129.057Z" fill="black"/>
<path d="M54.4906 129.057H51.6227V131.925H54.4906V129.057Z" fill="black"/>
<path d="M71.6981 129.057H68.8302V131.925H71.6981V129.057Z" fill="black"/>
<path d="M83.1698 129.057H80.3019V131.925H83.1698V129.057Z" fill="black"/>
<path d="M88.9057 129.057H86.0377V131.925H88.9057V129.057Z" fill="black"/>
<path d="M108.981 129.057H106.113V131.925H108.981V129.057Z" fill="black"/>
<path d="M111.849 129.057H108.981V131.925H111.849V129.057Z" fill="black"/>
<path d="M117.585 129.057H114.717V131.925H117.585V129.057Z" fill="black"/>
<path d="M120.453 129.057H117.585V131.925H120.453V129.057Z" fill="black"/>
<path d="M123.321 129.057H120.453V131.925H123.321V129.057Z" fill="black"/>
<path d="M134.792 129.057H131.925V131.925H134.792V129.057Z" fill="black"/>
<path d="M37.283 131.925H34.4151V134.792H37.283V131.925Z" fill="black"/>
<path d="M40.1509 131.925H37.283V134.792H40.1509V131.925Z" fill="black"/>
<path d="M43.0189 131.925H40.151V134.792H43.0189V131.925Z" fill="black"/>
<path d="M48.7547 131.925H45.8868V134.792H48.7547V131.925Z" fill="black"/>
<path d="M57.3585 131.925H54.4906V134.792H57.3585V131.925Z" fill="black"/>
<path d="M68.8302 131.925H65.9623V134.792H68.8302V131.925Z" fill="black"/>
<path d="M71.6981 131.925H68.8302V134.792H71.6981V131.925Z" fill="black"/>
<path d="M74.566 131.925H71.6981V134.792H74.566V131.925Z" fill="black"/>
<path d="M77.434 131.925H74.566V134.792H77.434V131.925Z" fill="black"/>
<path d="M80.3019 131.925H77.434V134.792H80.3019V131.925Z" fill="black"/>
<path d="M83.1698 131.925H80.3019V134.792H83.1698V131.925Z" fill="black"/>
<path d="M88.9057 131.925H86.0377V134.792H88.9057V131.925Z" fill="black"/>
<path d="M103.245 131.925H100.377V134.792H103.245V131.925Z" fill="black"/>
<path d="M106.113 131.925H103.245V134.792H106.113V131.925Z" fill="black"/>
<path d="M108.981 131.925H106.113V134.792H108.981V131.925Z" fill="black"/>
<path d="M120.453 131.925H117.585V134.792H120.453V131.925Z" fill="black"/>
<path d="M123.321 131.925H120.453V134.792H123.321V131.925Z" fill="black"/>
<path d="M126.189 131.925H123.321V134.792H126.189V131.925Z" fill="black"/>
<path d="M129.057 131.925H126.189V134.792H129.057V131.925Z" fill="black"/>
<path d="M131.925 131.925H129.057V134.792H131.925V131.925Z" fill="black"/>
<path d="M134.792 131.925H131.925V134.792H134.792V131.925Z" fill="black"/>
<path d="M143.396 131.925H140.528V134.792H143.396V131.925Z" fill="black"/>
<path d="M31.5472 134.792H28.6792V137.66H31.5472V134.792Z" fill="black"/>
<path d="M34.4151 134.792H31.5472V137.66H34.4151V134.792Z" fill="black"/>
<path d="M37.283 134.792H34.4151V137.66H37.283V134.792Z" fill="black"/>
<path d="M40.1509 134.792H37.283V137.66H40.1509V134.792Z" fill="black"/>
<path d="M45.8868 134.792H43.0189V137.66H45.8868V134.792Z" fill="black"/>
<path d="M48.7547 134.792H45.8868V137.66H48.7547V134.792Z" fill="black"/>
<path d="M51.6227 134.792H48.7547V137.66H51.6227V134.792Z" fill="black"/>
<path d="M57.3585 134.792H54.4906V137.66H57.3585V134.792Z" fill="black"/>
<path d="M68.8302 134.792H65.9623V137.66H68.8302V134.792Z" fill="black"/>
<path d="M80.3019 134.792H77.434V137.66H80.3019V134.792Z" fill="black"/>
<path d="M94.6415 134.792H91.7736V137.66H94.6415V134.792Z" fill="black"/>
<path d="M100.377 134.792H97.5094V137.66H100.377V134.792Z" fill="black"/>
<path d="M103.245 134.792H100.377V137.66H103.245V134.792Z" fill="black"/>
<path d="M120.453 134.792H117.585V137.66H120.453V134.792Z" fill="black"/>
<path d="M123.321 134.792H120.453V137.66H123.321V134.792Z" fill="black"/>
<path d="M126.189 134.792H123.321V137.66H126.189V134.792Z" fill="black"/>
<path d="M129.057 134.792H126.189V137.66H129.057V134.792Z" fill="black"/>
<path d="M131.925 134.792H129.057V137.66H131.925V134.792Z" fill="black"/>
<path d="M134.792 134.792H131.925V137.66H134.792V134.792Z" fill="black"/>
<path d="M143.396 134.792H140.528V137.66H143.396V134.792Z" fill="black"/>
<path d="M146.264 134.792H143.396V137.66H146.264V134.792Z" fill="black"/>
<path d="M31.5472 137.66H28.6792V140.528H31.5472V137.66Z" fill="black"/>
<path d="M37.283 137.66H34.4151V140.528H37.283V137.66Z" fill="black"/>
<path d="M43.0189 137.66H40.151V140.528H43.0189V137.66Z" fill="black"/>
<path d="M54.4906 137.66H51.6227V140.528H54.4906V137.66Z" fill="black"/>
<path d="M60.2264 137.66H57.3585V140.528H60.2264V137.66Z" fill="black"/>
<path d="M63.0943 137.66H60.2264V140.528H63.0943V137.66Z" fill="black"/>
<path d="M65.9623 137.66H63.0943V140.528H65.9623V137.66Z" fill="black"/>
<path d="M71.6981 137.66H68.8302V140.528H71.6981V137.66Z" fill="black"/>
<path d="M74.566 137.66H71.6981V140.528H74.566V137.66Z" fill="black"/>
<path d="M83.1698 137.66H80.3019V140.528H83.1698V137.66Z" fill="black"/>
<path d="M86.0377 137.66H83.1698V140.528H86.0377V137.66Z" fill="black"/>
<path d="M94.6415 137.66H91.7736V140.528H94.6415V137.66Z" fill="black"/>
<path d="M97.5094 137.66H94.6415V140.528H97.5094V137.66Z" fill="black"/>
<path d="M106.113 137.66H103.245V140.528H106.113V137.66Z" fill="black"/>
<path d="M111.849 137.66H108.981V140.528H111.849V137.66Z" fill="black"/>
<path d="M131.925 137.66H129.057V140.528H131.925V137.66Z" fill="black"/>
<path d="M134.792 137.66H131.925V140.528H134.792V137.66Z" fill="black"/>
<path d="M143.396 137.66H140.528V140.528H143.396V137.66Z" fill="black"/>
<path d="M146.264 137.66H143.396V140.528H146.264V137.66Z" fill="black"/>
<path d="M40.1509 140.528H37.283V143.396H40.1509V140.528Z" fill="black"/>
<path d="M45.8868 140.528H43.0189V143.396H45.8868V140.528Z" fill="black"/>
<path d="M51.6227 140.528H48.7547V143.396H51.6227V140.528Z" fill="black"/>
<path d="M63.0943 140.528H60.2264V143.396H63.0943V140.528Z" fill="black"/>
<path d="M71.6981 140.528H68.8302V143.396H71.6981V140.528Z" fill="black"/>
<path d="M74.566 140.528H71.6981V143.396H74.566V140.528Z" fill="black"/>
<path d="M77.434 140.528H74.566V143.396H77.434V140.528Z" fill="black"/>
<path d="M80.3019 140.528H77.434V143.396H80.3019V140.528Z" fill="black"/>
<path d="M86.0377 140.528H83.1698V143.396H86.0377V140.528Z" fill="black"/>
<path d="M91.7736 140.528H88.9057V143.396H91.7736V140.528Z" fill="black"/>
<path d="M100.377 140.528H97.5094V143.396H100.377V140.528Z" fill="black"/>
<path d="M108.981 140.528H106.113V143.396H108.981V140.528Z" fill="black"/>
<path d="M111.849 140.528H108.981V143.396H111.849V140.528Z" fill="black"/>
<path d="M114.717 140.528H111.849V143.396H114.717V140.528Z" fill="black"/>
<path d="M123.321 140.528H120.453V143.396H123.321V140.528Z" fill="black"/>
<path d="M126.189 140.528H123.321V143.396H126.189V140.528Z" fill="black"/>
<path d="M131.925 140.528H129.057V143.396H131.925V140.528Z" fill="black"/>
<path d="M140.528 140.528H137.66V143.396H140.528V140.528Z" fill="black"/>
<path d="M31.5472 143.396H28.6792V146.264H31.5472V143.396Z" fill="black"/>
<path d="M37.283 143.396H34.4151V146.264H37.283V143.396Z" fill="black"/>
<path d="M40.1509 143.396H37.283V146.264H40.1509V143.396Z" fill="black"/>
<path d="M48.7547 143.396H45.8868V146.264H48.7547V143.396Z" fill="black"/>
<path d="M51.6227 143.396H48.7547V146.264H51.6227V143.396Z" fill="black"/>
<path d="M54.4906 143.396H51.6227V146.264H54.4906V143.396Z" fill="black"/>
<path d="M60.2264 143.396H57.3585V146.264H60.2264V143.396Z" fill="black"/>
<path d="M65.9623 143.396H63.0943V146.264H65.9623V143.396Z" fill="black"/>
<path d="M68.8302 143.396H65.9623V146.264H68.8302V143.396Z" fill="black"/>
<path d="M74.566 143.396H71.6981V146.264H74.566V143.396Z" fill="black"/>
<path d="M80.3019 143.396H77.434V146.264H80.3019V143.396Z" fill="black"/>
<path d="M83.1698 143.396H80.3019V146.264H83.1698V143.396Z" fill="black"/>
<path d="M86.0377 143.396H83.1698V146.264H86.0377V143.396Z" fill="black"/>
<path d="M103.245 143.396H100.377V146.264H103.245V143.396Z" fill="black"/>
<path d="M111.849 143.396H108.981V146.264H111.849V143.396Z" fill="black"/>
<path d="M117.585 143.396H114.717V146.264H117.585V143.396Z" fill="black"/>
<path d="M129.057 143.396H126.189V146.264H129.057V143.396Z" fill="black"/>
<path d="M140.528 143.396H137.66V146.264H140.528V143.396Z" fill="black"/>
<path d="M143.396 143.396H140.528V146.264H143.396V143.396Z" fill="black"/>
<path d="M146.264 143.396H143.396V146.264H146.264V143.396Z" fill="black"/>
<path d="M22.8 5.73584H8.74718H5.73586V8.74716V22.8V25.8113H8.74718H22.8H25.8113V22.8V8.74716V5.73584H22.8ZM22.8 22.8H8.74718V8.74716H22.8V22.8Z" fill="black"/>
<path d="M143.253 5.73584H129.2H126.189V8.74716V22.8V25.8113H129.2H143.253H146.264V22.8V8.74716V5.73584H143.253ZM143.253 22.8H129.2V8.74716H143.253V22.8Z" fill="black"/>
<path d="M22.8 126.189H8.74718H5.73586V129.2V143.253V146.264H8.74718H22.8H25.8113V143.253V129.2V126.189H22.8ZM22.8 143.253H8.74718V129.2H22.8V143.253Z" fill="black"/>
<path d="M20.0755 11.4717H11.4717V20.0755H20.0755V11.4717Z" fill="black"/>
<path d="M140.528 11.4717H131.925V20.0755H140.528V11.4717Z" fill="black"/>
<path d="M20.0755 131.925H11.4717V140.528H20.0755V131.925Z" fill="black"/>
</svg>
