<svg width="126" height="45" viewBox="0 0 126 45" fill="none" xmlns="http://www.w3.org/2000/svg">
<path d="M19.8233 26.2125C19.7901 22.5205 22.8409 20.7243 22.9804 20.6407C21.2526 18.1171 18.5746 17.7723 17.6335 17.7448C15.3843 17.5077 13.2026 19.0931 12.0568 19.0931C10.8882 19.0931 9.12385 17.7677 7.22226 17.8066C4.77524 17.8445 2.48601 19.2638 1.23048 21.4678C-1.36062 25.9617 0.571844 32.5657 3.05432 36.1981C4.29612 37.9783 5.74718 39.9635 7.64649 39.8936C9.50462 39.818 10.1987 38.708 12.4411 38.708C14.6628 38.708 15.3146 39.8936 17.2516 39.8489C19.2458 39.818 20.5014 38.0619 21.6997 36.2669C23.1348 34.229 23.7111 32.2197 23.734 32.1166C23.6882 32.1006 19.8622 30.6366 19.8233 26.2125ZM16.1642 15.3552C17.1636 14.1031 17.8474 12.3997 17.6576 10.6711C16.2111 10.7353 14.4021 11.6735 13.3604 12.8981C12.4388 13.9771 11.6155 15.7458 11.8282 17.4091C13.453 17.5306 15.1213 16.5878 16.1642 15.3552Z" fill="#01000C"/>
<path d="M46.7375 39.6371H44.1407L42.7182 35.1593H37.7739L36.4188 39.6371H33.8906L38.7904 24.3924H41.816L46.7375 39.6371ZM42.2894 33.2806L41.003 29.2999C40.867 28.8932 40.6108 27.9355 40.2358 26.428H40.19C40.0391 27.0764 39.7978 28.0341 39.4673 29.2999L38.2027 33.2806H42.2894ZM59.3135 34.0057C59.3135 35.8752 58.8069 37.3529 57.7926 38.4378C56.8847 39.4034 55.7561 39.8857 54.4102 39.8857C52.9569 39.8857 51.9118 39.3668 51.2771 38.3266V44.0944H48.8392V32.2576C48.8392 31.0835 48.8084 29.8795 48.7489 28.6446H50.8929L51.029 30.387H51.0747C51.8877 29.0742 53.1215 28.4178 54.7773 28.4178C56.0717 28.4178 57.1523 28.9299 58.0168 29.9551C58.8801 30.9827 59.3135 32.3321 59.3135 34.0057ZM56.8298 34.0951C56.8298 33.0251 56.5897 32.1431 56.1072 31.4477C55.58 30.7249 54.8722 30.3629 53.9849 30.3629C53.3834 30.3629 52.8368 30.5645 52.3486 30.962C51.8592 31.363 51.539 31.8865 51.3892 32.5348C51.3223 32.7773 51.2843 33.0269 51.276 33.2783V35.1123C51.276 35.9107 51.5207 36.5854 52.0101 37.1376C52.4995 37.6874 53.1353 37.9635 53.9174 37.9635C54.8356 37.9635 55.5503 37.6073 56.0614 36.9005C56.5737 36.1914 56.8298 35.2566 56.8298 34.0951ZM71.934 34.0057C71.934 35.8752 71.4274 37.3529 70.4131 38.4378C69.5041 39.4034 68.3766 39.8857 67.0296 39.8857C65.5763 39.8857 64.5311 39.3668 63.8965 38.3266V44.0944H61.4586V32.2576C61.4586 31.0835 61.4277 29.8795 61.3683 28.6446H63.5123L63.6484 30.387H63.6941C64.506 29.0742 65.7398 28.4178 67.3967 28.4178C68.6899 28.4178 69.7705 28.9299 70.6373 29.9551C71.4994 30.9827 71.934 32.3321 71.934 34.0057ZM69.4492 34.0951C69.4492 33.0251 69.2079 32.1431 68.7254 31.4477C68.1982 30.7249 67.4927 30.3629 66.6054 30.3629C66.0039 30.3629 65.4573 30.5645 64.9668 30.962C64.4774 31.363 64.1583 31.8865 64.0086 32.5348C63.9342 32.8373 63.8942 33.0836 63.8942 33.2783V35.1123C63.8942 35.9107 64.1401 36.5854 64.6272 37.1376C65.1166 37.6863 65.7524 37.9635 66.5368 37.9635C67.4561 37.9635 68.1708 37.6073 68.6808 36.9005C69.1931 36.1914 69.4492 35.2566 69.4492 34.0951ZM86.0444 35.3609C86.0444 36.6588 85.5916 37.7138 84.6917 38.5283C83.7014 39.4172 82.319 39.8628 80.5466 39.8628C78.9092 39.8628 77.5964 39.5466 76.6062 38.9132L77.1699 36.8775C78.2391 37.5122 79.4134 37.8283 80.6918 37.8283C81.6112 37.8283 82.3258 37.6199 82.8358 37.2063C83.347 36.7916 83.6054 36.2372 83.6054 35.5453C83.6054 34.9256 83.3916 34.4066 82.9719 33.9839C82.55 33.5624 81.8524 33.1695 80.8725 32.8086C78.2082 31.8132 76.8749 30.3572 76.8749 28.4419C76.8749 27.1909 77.346 26.1668 78.286 25.3661C79.2259 24.5665 80.4723 24.1667 82.0228 24.1667C83.4076 24.1667 84.5613 24.4085 85.4773 24.8907L84.8655 26.8817C84.0033 26.4143 83.0302 26.1806 81.9416 26.1806C81.0818 26.1806 80.4071 26.3925 79.9246 26.8141C79.5186 27.1909 79.3128 27.6503 79.3128 28.1956C79.3128 28.797 79.5472 29.2964 80.0137 29.6882C80.4185 30.049 81.1572 30.442 82.2252 30.8635C83.5356 31.3928 84.4984 32.009 85.1148 32.717C85.7357 33.4249 86.0444 34.3081 86.0444 35.3609ZM94.1253 30.4775H91.4382V35.8145C91.4382 37.172 91.9116 37.849 92.8607 37.849C93.2963 37.849 93.6577 37.8123 93.9435 37.7356L94.011 39.5902C93.5307 39.77 92.8984 39.8605 92.1151 39.8605C91.1523 39.8605 90.3999 39.5661 89.8568 38.9773C89.3159 38.3885 89.0438 37.4022 89.0438 36.0138V30.4729H87.4429V28.64H89.0438V26.6273L91.4382 25.9034V28.64H94.1253V30.4775ZM106.226 34.0504C106.226 35.74 105.743 37.1273 104.78 38.2121C103.773 39.329 102.433 39.8857 100.762 39.8857C99.1498 39.8857 97.8679 39.3507 96.912 38.282C95.956 37.2109 95.4781 35.8615 95.4781 34.2337C95.4781 32.5303 95.9721 31.135 96.9566 30.0502C97.9434 28.9642 99.2721 28.4212 100.943 28.4212C102.553 28.4212 103.846 28.9574 104.825 30.0273C105.76 31.0651 106.226 32.4054 106.226 34.0504ZM103.698 34.1065C103.698 33.0996 103.481 32.2359 103.046 31.513C102.534 30.6401 101.803 30.2037 100.855 30.2037C99.8782 30.2037 99.1292 30.6401 98.6192 31.513C98.1824 32.2359 97.9651 33.1145 97.9651 34.1523C97.9651 35.1604 98.1824 36.0264 98.6192 36.747C99.1463 37.6199 99.8816 38.0563 100.834 38.0563C101.766 38.0563 102.497 37.6107 103.025 36.7252C103.473 35.9852 103.698 35.1157 103.698 34.1065ZM114.153 30.7925C113.9 30.7466 113.643 30.724 113.385 30.7249C112.527 30.7249 111.864 31.0479 111.397 31.6986C110.993 32.2714 110.789 32.9953 110.789 33.8694V39.6371H108.351V32.1064C108.353 30.9525 108.33 29.7986 108.28 28.6458H110.404L110.493 30.749H110.56C110.819 30.0261 111.224 29.4431 111.779 29.0066C112.288 28.6252 112.906 28.4187 113.542 28.4178C113.767 28.4178 113.97 28.4338 114.151 28.4625L114.153 30.7925ZM125.056 33.6208C125.062 33.9921 125.033 34.3631 124.967 34.7285H117.653C117.681 35.8145 118.035 36.6462 118.715 37.2189C119.331 37.7298 120.128 37.9864 121.107 37.9864C122.19 37.9864 123.178 37.8146 124.066 37.4675L124.448 39.1617C123.41 39.6154 122.184 39.841 120.769 39.841C119.068 39.841 117.732 39.3393 116.76 38.3381C115.791 37.3358 115.305 35.9886 115.305 34.3013C115.305 32.6448 115.756 31.2645 116.661 30.1636C117.608 28.9883 118.887 28.4006 120.497 28.4006C122.079 28.4006 123.276 28.9883 124.089 30.1636C124.733 31.0949 125.056 32.2496 125.056 33.6208ZM122.732 32.9873C122.749 32.2622 122.589 31.6379 122.258 31.1098C121.836 30.4294 121.187 30.0903 120.317 30.0903C119.52 30.0903 118.87 30.4213 118.376 31.0857C117.97 31.6138 117.729 32.2485 117.655 32.985L122.732 32.9873Z" fill="#01000C"/>
<path d="M38.1172 11.9043H37.1035V11.1836H38.0762C38.5059 11.1836 38.8535 11.123 39.1191 11.002C39.3848 10.8809 39.5781 10.7129 39.6992 10.498C39.8203 10.2832 39.8809 10.0352 39.8809 9.75391C39.8809 9.48438 39.8145 9.23828 39.6816 9.01562C39.5488 8.78906 39.3438 8.60938 39.0664 8.47656C38.7891 8.33984 38.4316 8.27148 37.9941 8.27148C37.666 8.27148 37.3691 8.33398 37.1035 8.45898C36.8379 8.58008 36.627 8.75 36.4707 8.96875C36.3145 9.18359 36.2363 9.43164 36.2363 9.71289H35.1055C35.1055 9.34961 35.1816 9.02344 35.334 8.73438C35.4863 8.44141 35.6953 8.19336 35.9609 7.99023C36.2266 7.7832 36.5332 7.625 36.8809 7.51562C37.2324 7.40625 37.6035 7.35156 37.9941 7.35156C38.4512 7.35156 38.8652 7.4043 39.2363 7.50977C39.6074 7.61133 39.9258 7.76367 40.1914 7.9668C40.457 8.16992 40.6602 8.42188 40.8008 8.72266C40.9414 9.02344 41.0117 9.37305 41.0117 9.77148C41.0117 10.0645 40.9434 10.3398 40.8066 10.5977C40.6699 10.8555 40.4746 11.082 40.2207 11.2773C39.9668 11.4727 39.6621 11.627 39.3066 11.7402C38.9512 11.8496 38.5547 11.9043 38.1172 11.9043ZM37.1035 11.4062H38.1172C38.5977 11.4062 39.0254 11.4551 39.4004 11.5527C39.7754 11.6504 40.0918 11.793 40.3496 11.9805C40.6074 12.168 40.8027 12.4004 40.9355 12.6777C41.0723 12.9512 41.1406 13.2656 41.1406 13.6211C41.1406 14.0195 41.0625 14.373 40.9062 14.6816C40.7539 14.9902 40.5371 15.252 40.2559 15.4668C39.9746 15.6816 39.6406 15.8438 39.2539 15.9531C38.8711 16.0625 38.4512 16.1172 37.9941 16.1172C37.627 16.1172 37.2637 16.0703 36.9043 15.9766C36.5488 15.8789 36.2266 15.7305 35.9375 15.5312C35.6484 15.3281 35.416 15.0703 35.2402 14.7578C35.0684 14.4453 34.9824 14.0703 34.9824 13.6328H36.1133C36.1133 13.918 36.1914 14.1797 36.3477 14.418C36.5078 14.6562 36.7285 14.8477 37.0098 14.9922C37.291 15.1328 37.6191 15.2031 37.9941 15.2031C38.4238 15.2031 38.7871 15.1367 39.084 15.0039C39.3848 14.8672 39.6133 14.6816 39.7695 14.4473C39.9297 14.209 40.0098 13.9414 40.0098 13.6445C40.0098 13.3828 39.9668 13.1562 39.8809 12.9648C39.7988 12.7695 39.6758 12.6094 39.5117 12.4844C39.3516 12.3594 39.1504 12.2676 38.9082 12.209C38.6699 12.1465 38.3926 12.1152 38.0762 12.1152H37.1035V11.4062ZM46.2031 14.916V11.6523C46.2031 11.4023 46.1523 11.1855 46.0508 11.002C45.9531 10.8145 45.8047 10.6699 45.6055 10.5684C45.4062 10.4668 45.1602 10.416 44.8672 10.416C44.5938 10.416 44.3535 10.4629 44.1465 10.5566C43.9434 10.6504 43.7832 10.7734 43.666 10.9258C43.5527 11.0781 43.4961 11.2422 43.4961 11.418H42.4121C42.4121 11.1914 42.4707 10.9668 42.5879 10.7441C42.7051 10.5215 42.873 10.3203 43.0918 10.1406C43.3145 9.95703 43.5801 9.8125 43.8887 9.70703C44.2012 9.59766 44.5488 9.54297 44.9316 9.54297C45.3926 9.54297 45.7988 9.62109 46.1504 9.77734C46.5059 9.93359 46.7832 10.1699 46.9824 10.4863C47.1855 10.7988 47.2871 11.1914 47.2871 11.6641V14.6172C47.2871 14.8281 47.3047 15.0527 47.3398 15.291C47.3789 15.5293 47.4355 15.7344 47.5098 15.9062V16H46.3789C46.3242 15.875 46.2812 15.709 46.25 15.502C46.2188 15.291 46.2031 15.0957 46.2031 14.916ZM46.3906 12.1562L46.4023 12.918H45.3066C44.998 12.918 44.7227 12.9434 44.4805 12.9941C44.2383 13.041 44.0352 13.1133 43.8711 13.2109C43.707 13.3086 43.582 13.4316 43.4961 13.5801C43.4102 13.7246 43.3672 13.8945 43.3672 14.0898C43.3672 14.2891 43.4121 14.4707 43.502 14.6348C43.5918 14.7988 43.7266 14.9297 43.9062 15.0273C44.0898 15.1211 44.3145 15.168 44.5801 15.168C44.9121 15.168 45.2051 15.0977 45.459 14.957C45.7129 14.8164 45.9141 14.6445 46.0625 14.4414C46.2148 14.2383 46.2969 14.041 46.3086 13.8496L46.7715 14.3711C46.7441 14.5352 46.6699 14.7168 46.5488 14.916C46.4277 15.1152 46.2656 15.3066 46.0625 15.4902C45.8633 15.6699 45.625 15.8203 45.3477 15.9414C45.0742 16.0586 44.7656 16.1172 44.4219 16.1172C43.9922 16.1172 43.6152 16.0332 43.291 15.8652C42.9707 15.6973 42.7207 15.4727 42.541 15.1914C42.3652 14.9062 42.2773 14.5879 42.2773 14.2363C42.2773 13.8965 42.3438 13.5977 42.4766 13.3398C42.6094 13.0781 42.8008 12.8613 43.0508 12.6895C43.3008 12.5137 43.6016 12.3809 43.9531 12.291C44.3047 12.2012 44.6973 12.1562 45.1309 12.1562H46.3906ZM53.0879 9.66016V10.5566H50.1582V16H49.0742V9.66016H53.0879ZM55.1152 10.8789V18.4375H54.0254V9.66016H55.0215L55.1152 10.8789ZM59.3867 12.7773V12.9004C59.3867 13.3613 59.332 13.7891 59.2227 14.1836C59.1133 14.5742 58.9531 14.9141 58.7422 15.2031C58.5352 15.4922 58.2793 15.7168 57.9746 15.877C57.6699 16.0371 57.3203 16.1172 56.9258 16.1172C56.5234 16.1172 56.168 16.0508 55.8594 15.918C55.5508 15.7852 55.2891 15.5918 55.0742 15.3379C54.8594 15.084 54.6875 14.7793 54.5586 14.4238C54.4336 14.0684 54.3477 13.668 54.3008 13.2227V12.5664C54.3477 12.0977 54.4355 11.6777 54.5645 11.3066C54.6934 10.9355 54.8633 10.6191 55.0742 10.3574C55.2891 10.0918 55.5488 9.89062 55.8535 9.75391C56.1582 9.61328 56.5098 9.54297 56.9082 9.54297C57.3066 9.54297 57.6602 9.62109 57.9688 9.77734C58.2773 9.92969 58.5371 10.1484 58.748 10.4336C58.959 10.7188 59.1172 11.0605 59.2227 11.459C59.332 11.8535 59.3867 12.293 59.3867 12.7773ZM58.2969 12.9004V12.7773C58.2969 12.4609 58.2637 12.1641 58.1973 11.8867C58.1309 11.6055 58.0273 11.3594 57.8867 11.1484C57.75 10.9336 57.5742 10.7656 57.3594 10.6445C57.1445 10.5195 56.8887 10.457 56.5918 10.457C56.3184 10.457 56.0801 10.5039 55.877 10.5977C55.6777 10.6914 55.5078 10.8184 55.3672 10.9785C55.2266 11.1348 55.1113 11.3145 55.0215 11.5176C54.9355 11.7168 54.8711 11.9238 54.8281 12.1387V13.6562C54.9062 13.9297 55.0156 14.1875 55.1562 14.4297C55.2969 14.668 55.4844 14.8613 55.7188 15.0098C55.9531 15.1543 56.248 15.2266 56.6035 15.2266C56.8965 15.2266 57.1484 15.166 57.3594 15.0449C57.5742 14.9199 57.75 14.75 57.8867 14.5352C58.0273 14.3203 58.1309 14.0742 58.1973 13.7969C58.2637 13.5156 58.2969 13.2168 58.2969 12.9004ZM62.4805 15.3438L64.2441 9.66016H65.4043L62.8613 16.9785C62.8027 17.1348 62.7246 17.3027 62.627 17.4824C62.5332 17.666 62.4121 17.8398 62.2637 18.0039C62.1152 18.168 61.9355 18.3008 61.7246 18.4023C61.5176 18.5078 61.2695 18.5605 60.9805 18.5605C60.8945 18.5605 60.7852 18.5488 60.6523 18.5254C60.5195 18.502 60.4258 18.4824 60.3711 18.4668L60.3652 17.5879C60.3965 17.5918 60.4453 17.5957 60.5117 17.5996C60.582 17.6074 60.6309 17.6113 60.6582 17.6113C60.9043 17.6113 61.1133 17.5781 61.2852 17.5117C61.457 17.4492 61.6016 17.3418 61.7188 17.1895C61.8398 17.041 61.9434 16.8359 62.0293 16.5742L62.4805 15.3438ZM61.1855 9.66016L62.832 14.582L63.1133 15.7246L62.334 16.123L60.002 9.66016H61.1855ZM68.75 12.9707H67.584V12.3027H68.6621C68.9629 12.3027 69.2012 12.2656 69.377 12.1914C69.5527 12.1133 69.6777 12.0059 69.752 11.8691C69.8262 11.7324 69.8633 11.5723 69.8633 11.3887C69.8633 11.2246 69.8203 11.0703 69.7344 10.9258C69.6523 10.7773 69.5195 10.6582 69.3359 10.5684C69.1523 10.4746 68.9062 10.4277 68.5977 10.4277C68.3477 10.4277 68.1211 10.4727 67.918 10.5625C67.7148 10.6484 67.5527 10.7676 67.4316 10.9199C67.3145 11.0684 67.2559 11.2363 67.2559 11.4238H66.1719C66.1719 11.0371 66.2812 10.7051 66.5 10.4277C66.7227 10.1465 67.0176 9.92969 67.3848 9.77734C67.7559 9.625 68.1602 9.54883 68.5977 9.54883C68.9648 9.54883 69.293 9.58984 69.582 9.67188C69.875 9.75 70.123 9.86719 70.3262 10.0234C70.5293 10.1758 70.6836 10.3672 70.7891 10.5977C70.8984 10.8242 70.9531 11.0879 70.9531 11.3887C70.9531 11.6035 70.9023 11.8066 70.8008 11.998C70.6992 12.1895 70.5527 12.3594 70.3613 12.5078C70.1699 12.6523 69.9375 12.7656 69.6641 12.8477C69.3945 12.9297 69.0898 12.9707 68.75 12.9707ZM67.584 12.5605H68.75C69.1289 12.5605 69.4629 12.5977 69.752 12.6719C70.041 12.7422 70.2832 12.8477 70.4785 12.9883C70.6738 13.1289 70.8203 13.3027 70.918 13.5098C71.0195 13.7129 71.0703 13.9473 71.0703 14.2129C71.0703 14.5098 71.0098 14.7773 70.8887 15.0156C70.7715 15.25 70.6035 15.4492 70.3848 15.6133C70.166 15.7773 69.9043 15.9023 69.5996 15.9883C69.2988 16.0742 68.9648 16.1172 68.5977 16.1172C68.1875 16.1172 67.7891 16.0469 67.4023 15.9062C67.0156 15.7656 66.6973 15.5488 66.4473 15.2559C66.1973 14.959 66.0723 14.582 66.0723 14.125H67.1562C67.1562 14.3164 67.2168 14.498 67.3379 14.6699C67.459 14.8418 67.627 14.9805 67.8418 15.0859C68.0605 15.1914 68.3125 15.2441 68.5977 15.2441C68.9023 15.2441 69.1562 15.1973 69.3594 15.1035C69.5625 15.0098 69.7148 14.8848 69.8164 14.7285C69.9219 14.5723 69.9746 14.4023 69.9746 14.2188C69.9746 13.9805 69.9277 13.7891 69.834 13.6445C69.7402 13.5 69.5957 13.3945 69.4004 13.3281C69.209 13.2578 68.9629 13.2227 68.6621 13.2227H67.584V12.5605ZM73.6484 14.2832L76.5723 9.66016H77.6621V16H76.5723V11.377L73.6484 16H72.5703V9.66016H73.6484V14.2832ZM81.9863 9.66016V16H80.8965V9.66016H81.9863ZM84.1133 9.66016V10.5391H78.8105V9.66016H84.1133ZM87.3418 16.1172C86.9004 16.1172 86.5 16.043 86.1406 15.8945C85.7852 15.7422 85.4785 15.5293 85.2207 15.2559C84.9668 14.9824 84.7715 14.6582 84.6348 14.2832C84.498 13.9082 84.4297 13.498 84.4297 13.0527V12.8066C84.4297 12.291 84.5059 11.832 84.6582 11.4297C84.8105 11.0234 85.0176 10.6797 85.2793 10.3984C85.541 10.1172 85.8379 9.9043 86.1699 9.75977C86.502 9.61523 86.8457 9.54297 87.2012 9.54297C87.6543 9.54297 88.0449 9.62109 88.373 9.77734C88.7051 9.93359 88.9766 10.1523 89.1875 10.4336C89.3984 10.7109 89.5547 11.0391 89.6562 11.418C89.7578 11.793 89.8086 12.2031 89.8086 12.6484V13.1348H85.0742V12.25H88.7246V12.168C88.709 11.8867 88.6504 11.6133 88.5488 11.3477C88.4512 11.082 88.2949 10.8633 88.0801 10.6914C87.8652 10.5195 87.5723 10.4336 87.2012 10.4336C86.9551 10.4336 86.7285 10.4863 86.5215 10.5918C86.3145 10.6934 86.1367 10.8457 85.9883 11.0488C85.8398 11.252 85.7246 11.5 85.6426 11.793C85.5605 12.0859 85.5195 12.4238 85.5195 12.8066V13.0527C85.5195 13.3535 85.5605 13.6367 85.6426 13.9023C85.7285 14.1641 85.8516 14.3945 86.0117 14.5938C86.1758 14.793 86.373 14.9492 86.6035 15.0625C86.8379 15.1758 87.1035 15.2324 87.4004 15.2324C87.7832 15.2324 88.1074 15.1543 88.373 14.998C88.6387 14.8418 88.8711 14.6328 89.0703 14.3711L89.7266 14.8926C89.5898 15.0996 89.416 15.2969 89.2051 15.4844C88.9941 15.6719 88.7344 15.8242 88.4258 15.9414C88.1211 16.0586 87.7598 16.1172 87.3418 16.1172ZM97.0273 13.2109H94.9473L94.9355 12.3438H96.6348C96.9707 12.3438 97.25 12.3105 97.4727 12.2441C97.6992 12.1777 97.8691 12.0781 97.9824 11.9453C98.0957 11.8125 98.1523 11.6484 98.1523 11.4531C98.1523 11.3008 98.1191 11.168 98.0527 11.0547C97.9902 10.9375 97.8945 10.8418 97.7656 10.7676C97.6367 10.6895 97.4766 10.6328 97.2852 10.5977C97.0977 10.5586 96.877 10.5391 96.623 10.5391H95.2344V16H94.1504V9.66016H96.623C97.0254 9.66016 97.3867 9.69531 97.707 9.76562C98.0312 9.83594 98.3066 9.94336 98.5332 10.0879C98.7637 10.2285 98.9395 10.4082 99.0605 10.627C99.1816 10.8457 99.2422 11.1035 99.2422 11.4004C99.2422 11.5918 99.2031 11.7734 99.125 11.9453C99.0469 12.1172 98.9316 12.2695 98.7793 12.4023C98.627 12.5352 98.4395 12.6445 98.2168 12.7305C97.9941 12.8125 97.7383 12.8652 97.4492 12.8887L97.0273 13.2109ZM97.0273 16H94.5547L95.0938 15.1211H97.0273C97.3281 15.1211 97.5781 15.084 97.7773 15.0098C97.9766 14.9316 98.125 14.8223 98.2227 14.6816C98.3242 14.5371 98.375 14.3652 98.375 14.166C98.375 13.9668 98.3242 13.7969 98.2227 13.6562C98.125 13.5117 97.9766 13.4023 97.7773 13.3281C97.5781 13.25 97.3281 13.2109 97.0273 13.2109H95.3809L95.3926 12.3438H97.4492L97.8418 12.6719C98.1895 12.6992 98.4844 12.7852 98.7266 12.9297C98.9688 13.0742 99.1523 13.2578 99.2773 13.4805C99.4023 13.6992 99.4648 13.9375 99.4648 14.1953C99.4648 14.4922 99.4082 14.7539 99.2949 14.9805C99.1855 15.207 99.0254 15.3965 98.8145 15.5488C98.6035 15.6973 98.3477 15.8105 98.0469 15.8887C97.7461 15.9629 97.4062 16 97.0273 16Z" fill="#01000C"/>
</svg>
