<svg width="117" height="45" viewBox="0 0 117 45" fill="none" xmlns="http://www.w3.org/2000/svg">
<g clip-path="url(#clip0_10706_149)">
<path fill-rule="evenodd" clip-rule="evenodd" d="M0.483226 17.5271C0.17637 17.8569 0 18.3645 0 19.0241V42.4857C0 43.1453 0.17637 43.6529 0.494697 43.9712L0.577864 44.0415L13.7239 30.8954V30.6L0.566392 17.4568L0.483226 17.5271Z" fill="#00D2FF"/>
<path fill-rule="evenodd" clip-rule="evenodd" d="M18.0972 35.2951L13.7123 30.9088V30.6019L18.0986 26.2156L18.1932 26.2744L23.3811 29.2225C24.8666 30.0599 24.8666 31.4393 23.3811 32.2882L18.1932 35.2363C18.1918 35.2363 18.0972 35.2951 18.0972 35.2951Z" fill="#FFDB00"/>
<path fill-rule="evenodd" clip-rule="evenodd" d="M18.1917 35.2363L13.7122 30.7554L0.482964 43.9845C0.96619 44.5036 1.77921 44.5624 2.68831 44.0548L18.1917 35.2363Z" fill="#F3324A"/>
<path fill-rule="evenodd" clip-rule="evenodd" d="M18.191 26.2758L2.68765 17.4688C1.77999 16.9497 0.965533 17.02 0.482307 17.5391L13.7101 30.7554L18.191 26.2758Z" fill="#00F076"/>
<path opacity="0.2" fill-rule="evenodd" clip-rule="evenodd" d="M18.0973 35.1416L2.70008 43.8899C1.83974 44.3846 1.0726 44.3502 0.577902 43.9014L0.494736 43.9846L0.577902 44.0548C1.0726 44.5022 1.83974 44.538 2.70008 44.0433L18.2035 35.2362L18.0973 35.1416Z" fill="white"/>
<path opacity="0.12" fill-rule="evenodd" clip-rule="evenodd" d="M23.3797 32.1348L18.0858 35.1416L18.1804 35.2363L23.3683 32.2882C24.111 31.8638 24.4767 31.3103 24.4767 30.7554C24.4293 31.263 24.0522 31.7462 23.3797 32.1348Z" fill="white"/>
<path opacity="0.25" fill-rule="evenodd" clip-rule="evenodd" d="M2.68857 17.6222L23.3798 29.3774C24.0523 29.7545 24.4294 30.2492 24.4882 30.7568C24.4882 30.2033 24.1226 29.6484 23.3798 29.224L2.68857 17.4688C1.20305 16.6199 0 17.3268 0 19.0246V19.178C0 17.4803 1.20305 16.7848 2.68857 17.6222Z" fill="#00F076"/>
<path fill-rule="evenodd" clip-rule="evenodd" d="M29.5385 30.0112C29.5385 26.253 32.6974 23.193 36.4556 23.193C38.5334 23.193 40.0117 24.0089 41.1273 25.0714L39.8138 26.3849C39.0166 25.6364 37.9354 25.0556 36.4542 25.0556C33.7097 25.0556 31.5646 27.2653 31.5646 30.0098C31.5646 32.7543 33.7097 34.9668 36.4528 34.9668C38.2322 34.9668 39.2446 34.2527 39.8941 33.6017C40.4261 33.0698 40.7746 32.3055 40.9093 31.2573H36.4556V29.399H42.7247C42.7906 29.7316 42.825 30.1302 42.825 30.5619C42.825 31.957 42.4422 33.6878 41.2105 34.9195C40.0117 36.167 38.4832 36.8323 36.4542 36.8323C32.6945 36.8323 29.5356 33.7752 29.5356 30.0141L29.5385 30.0112ZM47.8925 28.0496C45.4649 28.0496 43.4832 29.8965 43.4832 32.4388C43.4832 34.9683 45.4634 36.828 47.8925 36.828C50.3215 36.828 52.2989 34.9654 52.2989 32.4374C52.2989 29.8951 50.3201 28.0482 47.8925 28.0496ZM47.8925 35.1016C46.5632 35.1016 45.4147 34.0047 45.4147 32.4403C45.4147 30.8601 46.5618 29.7789 47.8925 29.7789C49.2217 29.7789 50.3688 30.8587 50.3688 32.4403C50.3688 34.0032 49.2231 35.1016 47.8925 35.1016ZM57.5068 28.0496C55.0792 28.0496 53.1004 29.8965 53.1004 32.4388C53.1004 34.9683 55.0792 36.828 57.5068 36.828C59.9344 36.828 61.9132 34.9654 61.9132 32.4374C61.9132 29.8951 59.9358 28.0482 57.5068 28.0496ZM57.5068 35.1016C56.1776 35.1016 55.029 34.0047 55.029 32.4403C55.029 30.8601 56.1761 29.7789 57.5068 29.7789C58.836 29.7789 59.9846 30.8587 59.9846 32.4403C59.9846 34.0032 58.836 35.1016 57.5068 35.1016ZM69.3064 28.3164V29.0304H69.2404C68.8088 28.5128 67.9772 28.0482 66.9304 28.0482C64.7351 28.0482 62.7205 29.9783 62.7205 32.4575C62.7205 34.9166 64.7337 36.8309 66.9304 36.8309C67.9772 36.8309 68.8088 36.3663 69.2404 35.8343H69.3064V36.4653C69.3064 38.1444 68.4088 39.0434 66.962 39.0434C65.7804 39.0434 65.0491 38.1946 64.7495 37.4819L63.0689 38.1802C63.5507 39.3431 64.8326 40.7742 66.9605 40.7742C69.2204 40.7742 71.1332 39.4421 71.1332 36.2V28.3149L69.3064 28.3164ZM67.0953 35.1016C65.7661 35.1016 64.6491 33.986 64.6491 32.4575C64.6491 30.9117 65.7647 29.7804 67.0953 29.7804C68.4088 29.7804 69.4398 30.9103 69.4398 32.4575C69.4412 33.986 68.4102 35.1016 67.0953 35.1016ZM72.4653 23.659H74.3953V36.5642H72.4653V23.659ZM79.685 35.1016C78.7042 35.1016 78.0045 34.6514 77.5585 33.7724L83.4289 31.3419L83.2268 30.8429C82.8625 29.8635 81.747 28.0496 79.4685 28.0496C77.2072 28.0496 75.3274 29.8291 75.3274 32.4403C75.3274 34.8994 77.19 36.8295 79.685 36.8295C81.6982 36.8295 82.8625 35.6006 83.3443 34.8837L81.8473 33.8871C81.3469 34.6198 80.6644 35.103 79.685 35.1016ZM79.5345 29.746C80.2987 29.746 80.9468 30.1288 81.1634 30.6766L77.2373 32.3069C77.1886 30.6106 78.5522 29.746 79.5345 29.746Z" fill="#01000C"/>
<path fill-rule="evenodd" clip-rule="evenodd" d="M91.8976 23.6591H87.2833V36.5641H89.209V31.676H91.899C94.0341 31.676 96.1333 30.1302 96.1333 27.6668C96.1333 25.2077 94.0355 23.6605 91.9019 23.6605L91.8976 23.6591ZM91.9478 29.8793H89.209V25.4543H91.9478C93.3874 25.4543 94.2076 26.6487 94.2076 27.6668C94.2076 28.6677 93.3874 29.8793 91.9478 29.8793ZM99.1201 36.5641V23.6591H97.1944V36.5641H99.1201ZM107.771 36.5412V31.5943C107.771 29.3029 106.059 28.0253 103.849 28.0253C102.457 28.0253 101.013 28.6404 100.415 30.0012L102.124 30.7138C102.49 30.0012 103.169 29.7675 103.885 29.7675C104.88 29.7675 105.892 30.3654 105.908 31.4294V31.5627C105.56 31.3634 104.814 31.0637 103.899 31.0637C102.057 31.0637 100.181 32.076 100.181 33.9688C100.181 35.6966 101.693 36.8079 103.386 36.8079C104.682 36.8079 105.395 36.2272 105.842 35.5475H105.908V36.5441H107.769L107.771 36.5412ZM103.62 35.0987C102.989 35.0987 102.108 34.7832 102.108 34.0046C102.108 33.0081 103.205 32.6238 104.152 32.6238C104.999 32.6238 105.396 32.8059 105.913 33.0554C105.765 34.214 104.785 35.0844 103.62 35.0987ZM114.543 28.3078L112.335 33.9014H112.269L109.978 28.3078H107.903L111.338 36.1282L109.378 40.4773H111.387L116.683 28.3078H114.543Z" fill="#01000C"/>
</g>
<path d="M37.3132 15.0801V16H30.8562V15.0801H37.3132ZM31.0378 15.0801V18.0977H29.9187L29.9128 15.0801H31.0378ZM38.2976 15.0801L38.2859 18.0918H37.1667V15.0801H38.2976ZM36.2058 7.46875V8.39453H32.4675V7.46875H36.2058ZM37.1785 7.46875V16H36.0535V7.46875H37.1785ZM32.0808 7.46875H33.2117L33.0359 10.9023C33.0125 11.418 32.9636 11.8945 32.8894 12.332C32.8152 12.7656 32.7234 13.1621 32.614 13.5215C32.5046 13.8809 32.3796 14.2031 32.239 14.4883C32.0984 14.7695 31.948 15.0137 31.7878 15.2207C31.6277 15.4238 31.4597 15.5918 31.2839 15.7246C31.1121 15.8535 30.9382 15.9453 30.7625 16H30.2468V15.0801H30.6101C30.7117 14.9707 30.8269 14.8125 30.9558 14.6055C31.0886 14.3984 31.2195 14.1309 31.3484 13.8027C31.4812 13.4707 31.5964 13.0664 31.6941 12.5898C31.7957 12.1133 31.864 11.5508 31.8992 10.9023L32.0808 7.46875ZM39.1765 12.9004V12.7656C39.1765 12.3086 39.2429 11.8848 39.3757 11.4941C39.5085 11.0996 39.7 10.7578 39.95 10.4688C40.2 10.1758 40.5027 9.94922 40.8582 9.78906C41.2136 9.625 41.6121 9.54297 42.0535 9.54297C42.4988 9.54297 42.8992 9.625 43.2546 9.78906C43.614 9.94922 43.9187 10.1758 44.1687 10.4688C44.4226 10.7578 44.616 11.0996 44.7488 11.4941C44.8816 11.8848 44.948 12.3086 44.948 12.7656V12.9004C44.948 13.3574 44.8816 13.7812 44.7488 14.1719C44.616 14.5625 44.4226 14.9043 44.1687 15.1973C43.9187 15.4863 43.616 15.7129 43.2605 15.877C42.9089 16.0371 42.5105 16.1172 42.0652 16.1172C41.6199 16.1172 41.2195 16.0371 40.864 15.877C40.5085 15.7129 40.2039 15.4863 39.95 15.1973C39.7 14.9043 39.5085 14.5625 39.3757 14.1719C39.2429 13.7812 39.1765 13.3574 39.1765 12.9004ZM40.2605 12.7656V12.9004C40.2605 13.2168 40.2976 13.5156 40.3718 13.7969C40.446 14.0742 40.5574 14.3203 40.7058 14.5352C40.8582 14.75 41.0476 14.9199 41.2742 15.0449C41.5007 15.166 41.7644 15.2266 42.0652 15.2266C42.3621 15.2266 42.6218 15.166 42.8445 15.0449C43.071 14.9199 43.2585 14.75 43.407 14.5352C43.5554 14.3203 43.6667 14.0742 43.741 13.7969C43.8191 13.5156 43.8582 13.2168 43.8582 12.9004V12.7656C43.8582 12.4531 43.8191 12.1582 43.741 11.8809C43.6667 11.5996 43.5535 11.3516 43.4011 11.1367C43.2527 10.918 43.0652 10.7461 42.8386 10.6211C42.616 10.4961 42.3542 10.4336 42.0535 10.4336C41.7566 10.4336 41.4949 10.4961 41.2683 10.6211C41.0457 10.7461 40.8582 10.918 40.7058 11.1367C40.5574 11.3516 40.446 11.5996 40.3718 11.8809C40.2976 12.1582 40.2605 12.4531 40.2605 12.7656ZM48.8445 15.2266C49.1023 15.2266 49.3406 15.1738 49.5593 15.0684C49.7781 14.9629 49.9578 14.8184 50.0984 14.6348C50.239 14.4473 50.3191 14.2344 50.3386 13.9961H51.3699C51.3503 14.3711 51.2234 14.7207 50.989 15.0449C50.7585 15.3652 50.4558 15.625 50.0808 15.8242C49.7058 16.0195 49.2937 16.1172 48.8445 16.1172C48.3679 16.1172 47.9519 16.0332 47.5964 15.8652C47.2449 15.6973 46.9519 15.4668 46.7175 15.1738C46.4871 14.8809 46.3132 14.5449 46.196 14.166C46.0828 13.7832 46.0261 13.3789 46.0261 12.9531V12.707C46.0261 12.2812 46.0828 11.8789 46.196 11.5C46.3132 11.1172 46.4871 10.7793 46.7175 10.4863C46.9519 10.1934 47.2449 9.96289 47.5964 9.79492C47.9519 9.62695 48.3679 9.54297 48.8445 9.54297C49.3406 9.54297 49.7742 9.64453 50.1453 9.84766C50.5164 10.0469 50.8074 10.3203 51.0183 10.668C51.2332 11.0117 51.3503 11.4023 51.3699 11.8398H50.3386C50.3191 11.5781 50.2449 11.3418 50.116 11.1309C49.991 10.9199 49.8191 10.752 49.6003 10.627C49.3855 10.498 49.1335 10.4336 48.8445 10.4336C48.5125 10.4336 48.2332 10.5 48.0066 10.6328C47.7839 10.7617 47.6062 10.9375 47.4734 11.1602C47.3445 11.3789 47.2507 11.623 47.1921 11.8926C47.1375 12.1582 47.1101 12.4297 47.1101 12.707V12.9531C47.1101 13.2305 47.1375 13.5039 47.1921 13.7734C47.2468 14.043 47.3386 14.2871 47.4675 14.5059C47.6003 14.7246 47.7781 14.9004 48.0007 15.0332C48.2273 15.1621 48.5085 15.2266 48.8445 15.2266ZM55.1726 9.66016V16H54.0828V9.66016H55.1726ZM57.2996 9.66016V10.5391H51.9968V9.66016H57.2996ZM60.2175 15.3438L61.9812 9.66016H63.1414L60.5984 16.9785C60.5398 17.1348 60.4617 17.3027 60.364 17.4824C60.2703 17.666 60.1492 17.8398 60.0007 18.0039C59.8523 18.168 59.6726 18.3008 59.4617 18.4023C59.2546 18.5078 59.0066 18.5605 58.7175 18.5605C58.6316 18.5605 58.5222 18.5488 58.3894 18.5254C58.2566 18.502 58.1628 18.4824 58.1082 18.4668L58.1023 17.5879C58.1335 17.5918 58.1824 17.5957 58.2488 17.5996C58.3191 17.6074 58.3679 17.6113 58.3953 17.6113C58.6414 17.6113 58.8503 17.5781 59.0222 17.5117C59.1941 17.4492 59.3386 17.3418 59.4558 17.1895C59.5769 17.041 59.6804 16.8359 59.7664 16.5742L60.2175 15.3438ZM58.9226 9.66016L60.5691 14.582L60.8503 15.7246L60.071 16.123L57.739 9.66016H58.9226ZM68.3445 9.66016V10.5566H65.1394V9.66016H68.3445ZM65.2976 9.66016V16H64.2136V9.66016H65.2976ZM69.3054 9.66016V16H68.2156V9.66016H69.3054ZM75.3464 12.4082V13.2871H71.9949V12.4082H75.3464ZM72.2234 9.66016V16H71.1394V9.66016H72.2234ZM76.2253 9.66016V16H75.1355V9.66016H76.2253ZM77.6843 12.9004V12.7656C77.6843 12.3086 77.7507 11.8848 77.8835 11.4941C78.0164 11.0996 78.2078 10.7578 78.4578 10.4688C78.7078 10.1758 79.0105 9.94922 79.366 9.78906C79.7214 9.625 80.1199 9.54297 80.5613 9.54297C81.0066 9.54297 81.407 9.625 81.7625 9.78906C82.1218 9.94922 82.4265 10.1758 82.6765 10.4688C82.9304 10.7578 83.1238 11.0996 83.2566 11.4941C83.3894 11.8848 83.4558 12.3086 83.4558 12.7656V12.9004C83.4558 13.3574 83.3894 13.7812 83.2566 14.1719C83.1238 14.5625 82.9304 14.9043 82.6765 15.1973C82.4265 15.4863 82.1238 15.7129 81.7683 15.877C81.4167 16.0371 81.0183 16.1172 80.573 16.1172C80.1277 16.1172 79.7273 16.0371 79.3718 15.877C79.0164 15.7129 78.7117 15.4863 78.4578 15.1973C78.2078 14.9043 78.0164 14.5625 77.8835 14.1719C77.7507 13.7812 77.6843 13.3574 77.6843 12.9004ZM78.7683 12.7656V12.9004C78.7683 13.2168 78.8054 13.5156 78.8796 13.7969C78.9539 14.0742 79.0652 14.3203 79.2136 14.5352C79.366 14.75 79.5554 14.9199 79.782 15.0449C80.0085 15.166 80.2722 15.2266 80.573 15.2266C80.8699 15.2266 81.1296 15.166 81.3523 15.0449C81.5789 14.9199 81.7664 14.75 81.9148 14.5352C82.0632 14.3203 82.1746 14.0742 82.2488 13.7969C82.3269 13.5156 82.366 13.2168 82.366 12.9004V12.7656C82.366 12.4531 82.3269 12.1582 82.2488 11.8809C82.1746 11.5996 82.0613 11.3516 81.9089 11.1367C81.7605 10.918 81.573 10.7461 81.3464 10.6211C81.1238 10.4961 80.8621 10.4336 80.5613 10.4336C80.2644 10.4336 80.0027 10.4961 79.7761 10.6211C79.5535 10.7461 79.366 10.918 79.2136 11.1367C79.0652 11.3516 78.9539 11.5996 78.8796 11.8809C78.8054 12.1582 78.7683 12.4531 78.7683 12.7656ZM90.7683 13.2109H88.6882L88.6765 12.3438H90.3757C90.7117 12.3438 90.991 12.3105 91.2136 12.2441C91.4402 12.1777 91.6101 12.0781 91.7234 11.9453C91.8367 11.8125 91.8933 11.6484 91.8933 11.4531C91.8933 11.3008 91.8601 11.168 91.7937 11.0547C91.7312 10.9375 91.6355 10.8418 91.5066 10.7676C91.3777 10.6895 91.2175 10.6328 91.0261 10.5977C90.8386 10.5586 90.6179 10.5391 90.364 10.5391H88.9753V16H87.8914V9.66016H90.364C90.7664 9.66016 91.1277 9.69531 91.448 9.76562C91.7722 9.83594 92.0476 9.94336 92.2742 10.0879C92.5046 10.2285 92.6804 10.4082 92.8015 10.627C92.9226 10.8457 92.9832 11.1035 92.9832 11.4004C92.9832 11.5918 92.9441 11.7734 92.866 11.9453C92.7878 12.1172 92.6726 12.2695 92.5203 12.4023C92.3679 12.5352 92.1804 12.6445 91.9578 12.7305C91.7351 12.8125 91.4792 12.8652 91.1902 12.8887L90.7683 13.2109ZM90.7683 16H88.2957L88.8347 15.1211H90.7683C91.0691 15.1211 91.3191 15.084 91.5183 15.0098C91.7175 14.9316 91.866 14.8223 91.9636 14.6816C92.0652 14.5371 92.116 14.3652 92.116 14.166C92.116 13.9668 92.0652 13.7969 91.9636 13.6562C91.866 13.5117 91.7175 13.4023 91.5183 13.3281C91.3191 13.25 91.0691 13.2109 90.7683 13.2109H89.1218L89.1335 12.3438H91.1902L91.5828 12.6719C91.9304 12.6992 92.2253 12.7852 92.4675 12.9297C92.7097 13.0742 92.8933 13.2578 93.0183 13.4805C93.1433 13.6992 93.2058 13.9375 93.2058 14.1953C93.2058 14.4922 93.1492 14.7539 93.0359 14.9805C92.9265 15.207 92.7664 15.3965 92.5554 15.5488C92.3445 15.6973 92.0886 15.8105 91.7878 15.8887C91.4871 15.9629 91.1472 16 90.7683 16Z" fill="#01000C"/>
<defs>
<clipPath id="clip0_10706_149">
<rect width="116.683" height="27.2972" fill="white" transform="translate(0 17.1089)"/>
</clipPath>
</defs>
</svg>
