<svg width="152" height="152" viewBox="0 0 152 152" fill="none" xmlns="http://www.w3.org/2000/svg">
<path d="M152 0H0V152H152V0Z" fill="white"/>
<path d="M4.56 1.52002H1.52V4.56002H4.56V1.52002Z" fill="black"/>
<path d="M7.6 1.52002H4.56V4.56002H7.6V1.52002Z" fill="black"/>
<path d="M10.64 1.52002H7.6V4.56002H10.64V1.52002Z" fill="black"/>
<path d="M13.68 1.52002H10.64V4.56002H13.68V1.52002Z" fill="black"/>
<path d="M16.72 1.52002H13.68V4.56002H16.72V1.52002Z" fill="black"/>
<path d="M19.76 1.52002H16.72V4.56002H19.76V1.52002Z" fill="black"/>
<path d="M22.8 1.52002H19.76V4.56002H22.8V1.52002Z" fill="black"/>
<path d="M38 1.52002H34.96V4.56002H38V1.52002Z" fill="black"/>
<path d="M41.04 1.52002H38V4.56002H41.04V1.52002Z" fill="black"/>
<path d="M47.12 1.52002H44.08V4.56002H47.12V1.52002Z" fill="black"/>
<path d="M62.32 1.52002H59.28V4.56002H62.32V1.52002Z" fill="black"/>
<path d="M83.6 1.52002H80.56V4.56002H83.6V1.52002Z" fill="black"/>
<path d="M86.64 1.52002H83.6V4.56002H86.64V1.52002Z" fill="black"/>
<path d="M89.68 1.52002H86.64V4.56002H89.68V1.52002Z" fill="black"/>
<path d="M95.76 1.52002H92.72V4.56002H95.76V1.52002Z" fill="black"/>
<path d="M98.8 1.52002H95.76V4.56002H98.8V1.52002Z" fill="black"/>
<path d="M101.84 1.52002H98.8V4.56002H101.84V1.52002Z" fill="black"/>
<path d="M110.96 1.52002H107.92V4.56002H110.96V1.52002Z" fill="black"/>
<path d="M126.16 1.52002H123.12V4.56002H126.16V1.52002Z" fill="black"/>
<path d="M132.24 1.52002H129.2V4.56002H132.24V1.52002Z" fill="black"/>
<path d="M135.28 1.52002H132.24V4.56002H135.28V1.52002Z" fill="black"/>
<path d="M138.32 1.52002H135.28V4.56002H138.32V1.52002Z" fill="black"/>
<path d="M141.36 1.52002H138.32V4.56002H141.36V1.52002Z" fill="black"/>
<path d="M144.4 1.52002H141.36V4.56002H144.4V1.52002Z" fill="black"/>
<path d="M147.44 1.52002H144.4V4.56002H147.44V1.52002Z" fill="black"/>
<path d="M150.48 1.52002H147.44V4.56002H150.48V1.52002Z" fill="black"/>
<path d="M4.56 4.56H1.52V7.6H4.56V4.56Z" fill="black"/>
<path d="M22.8 4.56H19.76V7.6H22.8V4.56Z" fill="black"/>
<path d="M28.88 4.56H25.84V7.6H28.88V4.56Z" fill="black"/>
<path d="M31.92 4.56H28.88V7.6H31.92V4.56Z" fill="black"/>
<path d="M38 4.56H34.96V7.6H38V4.56Z" fill="black"/>
<path d="M50.16 4.56H47.12V7.6H50.16V4.56Z" fill="black"/>
<path d="M53.2 4.56H50.16V7.6H53.2V4.56Z" fill="black"/>
<path d="M56.24 4.56H53.2V7.6H56.24V4.56Z" fill="black"/>
<path d="M59.28 4.56H56.24V7.6H59.28V4.56Z" fill="black"/>
<path d="M65.36 4.56H62.32V7.6H65.36V4.56Z" fill="black"/>
<path d="M74.48 4.56H71.44V7.6H74.48V4.56Z" fill="black"/>
<path d="M83.6 4.56H80.56V7.6H83.6V4.56Z" fill="black"/>
<path d="M86.64 4.56H83.6V7.6H86.64V4.56Z" fill="black"/>
<path d="M95.76 4.56H92.72V7.6H95.76V4.56Z" fill="black"/>
<path d="M98.8 4.56H95.76V7.6H98.8V4.56Z" fill="black"/>
<path d="M104.88 4.56H101.84V7.6H104.88V4.56Z" fill="black"/>
<path d="M110.96 4.56H107.92V7.6H110.96V4.56Z" fill="black"/>
<path d="M117.04 4.56H114V7.6H117.04V4.56Z" fill="black"/>
<path d="M120.08 4.56H117.04V7.6H120.08V4.56Z" fill="black"/>
<path d="M123.12 4.56H120.08V7.6H123.12V4.56Z" fill="black"/>
<path d="M126.16 4.56H123.12V7.6H126.16V4.56Z" fill="black"/>
<path d="M132.24 4.56H129.2V7.6H132.24V4.56Z" fill="black"/>
<path d="M150.48 4.56H147.44V7.6H150.48V4.56Z" fill="black"/>
<path d="M4.56 7.59998H1.52V10.64H4.56V7.59998Z" fill="black"/>
<path d="M10.64 7.59998H7.6V10.64H10.64V7.59998Z" fill="black"/>
<path d="M13.68 7.59998H10.64V10.64H13.68V7.59998Z" fill="black"/>
<path d="M16.72 7.59998H13.68V10.64H16.72V7.59998Z" fill="black"/>
<path d="M22.8 7.59998H19.76V10.64H22.8V7.59998Z" fill="black"/>
<path d="M28.88 7.59998H25.84V10.64H28.88V7.59998Z" fill="black"/>
<path d="M31.92 7.59998H28.88V10.64H31.92V7.59998Z" fill="black"/>
<path d="M34.96 7.59998H31.92V10.64H34.96V7.59998Z" fill="black"/>
<path d="M41.04 7.59998H38V10.64H41.04V7.59998Z" fill="black"/>
<path d="M50.16 7.59998H47.12V10.64H50.16V7.59998Z" fill="black"/>
<path d="M56.24 7.59998H53.2V10.64H56.24V7.59998Z" fill="black"/>
<path d="M62.32 7.59998H59.28V10.64H62.32V7.59998Z" fill="black"/>
<path d="M71.44 7.59998H68.4V10.64H71.44V7.59998Z" fill="black"/>
<path d="M74.48 7.59998H71.44V10.64H74.48V7.59998Z" fill="black"/>
<path d="M77.52 7.59998H74.48V10.64H77.52V7.59998Z" fill="black"/>
<path d="M83.6 7.59998H80.56V10.64H83.6V7.59998Z" fill="black"/>
<path d="M95.76 7.59998H92.72V10.64H95.76V7.59998Z" fill="black"/>
<path d="M107.92 7.59998H104.88V10.64H107.92V7.59998Z" fill="black"/>
<path d="M110.96 7.59998H107.92V10.64H110.96V7.59998Z" fill="black"/>
<path d="M114 7.59998H110.96V10.64H114V7.59998Z" fill="black"/>
<path d="M117.04 7.59998H114V10.64H117.04V7.59998Z" fill="black"/>
<path d="M123.12 7.59998H120.08V10.64H123.12V7.59998Z" fill="black"/>
<path d="M126.16 7.59998H123.12V10.64H126.16V7.59998Z" fill="black"/>
<path d="M132.24 7.59998H129.2V10.64H132.24V7.59998Z" fill="black"/>
<path d="M138.32 7.59998H135.28V10.64H138.32V7.59998Z" fill="black"/>
<path d="M141.36 7.59998H138.32V10.64H141.36V7.59998Z" fill="black"/>
<path d="M144.4 7.59998H141.36V10.64H144.4V7.59998Z" fill="black"/>
<path d="M150.48 7.59998H147.44V10.64H150.48V7.59998Z" fill="black"/>
<path d="M4.56 10.64H1.52V13.68H4.56V10.64Z" fill="black"/>
<path d="M10.64 10.64H7.6V13.68H10.64V10.64Z" fill="black"/>
<path d="M13.68 10.64H10.64V13.68H13.68V10.64Z" fill="black"/>
<path d="M16.72 10.64H13.68V13.68H16.72V10.64Z" fill="black"/>
<path d="M22.8 10.64H19.76V13.68H22.8V10.64Z" fill="black"/>
<path d="M28.88 10.64H25.84V13.68H28.88V10.64Z" fill="black"/>
<path d="M31.92 10.64H28.88V13.68H31.92V10.64Z" fill="black"/>
<path d="M34.96 10.64H31.92V13.68H34.96V10.64Z" fill="black"/>
<path d="M47.12 10.64H44.08V13.68H47.12V10.64Z" fill="black"/>
<path d="M53.2 10.64H50.16V13.68H53.2V10.64Z" fill="black"/>
<path d="M59.28 10.64H56.24V13.68H59.28V10.64Z" fill="black"/>
<path d="M68.4 10.64H65.36V13.68H68.4V10.64Z" fill="black"/>
<path d="M74.48 10.64H71.44V13.68H74.48V10.64Z" fill="black"/>
<path d="M83.6 10.64H80.56V13.68H83.6V10.64Z" fill="black"/>
<path d="M86.64 10.64H83.6V13.68H86.64V10.64Z" fill="black"/>
<path d="M89.68 10.64H86.64V13.68H89.68V10.64Z" fill="black"/>
<path d="M95.76 10.64H92.72V13.68H95.76V10.64Z" fill="black"/>
<path d="M101.84 10.64H98.8V13.68H101.84V10.64Z" fill="black"/>
<path d="M107.92 10.64H104.88V13.68H107.92V10.64Z" fill="black"/>
<path d="M123.12 10.64H120.08V13.68H123.12V10.64Z" fill="black"/>
<path d="M132.24 10.64H129.2V13.68H132.24V10.64Z" fill="black"/>
<path d="M138.32 10.64H135.28V13.68H138.32V10.64Z" fill="black"/>
<path d="M141.36 10.64H138.32V13.68H141.36V10.64Z" fill="black"/>
<path d="M144.4 10.64H141.36V13.68H144.4V10.64Z" fill="black"/>
<path d="M150.48 10.64H147.44V13.68H150.48V10.64Z" fill="black"/>
<path d="M4.56 13.68H1.52V16.72H4.56V13.68Z" fill="black"/>
<path d="M10.64 13.68H7.6V16.72H10.64V13.68Z" fill="black"/>
<path d="M13.68 13.68H10.64V16.72H13.68V13.68Z" fill="black"/>
<path d="M16.72 13.68H13.68V16.72H16.72V13.68Z" fill="black"/>
<path d="M22.8 13.68H19.76V16.72H22.8V13.68Z" fill="black"/>
<path d="M28.88 13.68H25.84V16.72H28.88V13.68Z" fill="black"/>
<path d="M31.92 13.68H28.88V16.72H31.92V13.68Z" fill="black"/>
<path d="M44.08 13.68H41.04V16.72H44.08V13.68Z" fill="black"/>
<path d="M47.12 13.68H44.08V16.72H47.12V13.68Z" fill="black"/>
<path d="M53.2 13.68H50.16V16.72H53.2V13.68Z" fill="black"/>
<path d="M56.24 13.68H53.2V16.72H56.24V13.68Z" fill="black"/>
<path d="M59.28 13.68H56.24V16.72H59.28V13.68Z" fill="black"/>
<path d="M71.44 13.68H68.4V16.72H71.44V13.68Z" fill="black"/>
<path d="M74.48 13.68H71.44V16.72H74.48V13.68Z" fill="black"/>
<path d="M77.52 13.68H74.48V16.72H77.52V13.68Z" fill="black"/>
<path d="M80.56 13.68H77.52V16.72H80.56V13.68Z" fill="black"/>
<path d="M83.6 13.68H80.56V16.72H83.6V13.68Z" fill="black"/>
<path d="M86.64 13.68H83.6V16.72H86.64V13.68Z" fill="black"/>
<path d="M92.72 13.68H89.68V16.72H92.72V13.68Z" fill="black"/>
<path d="M95.76 13.68H92.72V16.72H95.76V13.68Z" fill="black"/>
<path d="M98.8 13.68H95.76V16.72H98.8V13.68Z" fill="black"/>
<path d="M107.92 13.68H104.88V16.72H107.92V13.68Z" fill="black"/>
<path d="M117.04 13.68H114V16.72H117.04V13.68Z" fill="black"/>
<path d="M132.24 13.68H129.2V16.72H132.24V13.68Z" fill="black"/>
<path d="M138.32 13.68H135.28V16.72H138.32V13.68Z" fill="black"/>
<path d="M141.36 13.68H138.32V16.72H141.36V13.68Z" fill="black"/>
<path d="M144.4 13.68H141.36V16.72H144.4V13.68Z" fill="black"/>
<path d="M150.48 13.68H147.44V16.72H150.48V13.68Z" fill="black"/>
<path d="M4.56 16.72H1.52V19.76H4.56V16.72Z" fill="black"/>
<path d="M22.8 16.72H19.76V19.76H22.8V16.72Z" fill="black"/>
<path d="M28.88 16.72H25.84V19.76H28.88V16.72Z" fill="black"/>
<path d="M34.96 16.72H31.92V19.76H34.96V16.72Z" fill="black"/>
<path d="M38 16.72H34.96V19.76H38V16.72Z" fill="black"/>
<path d="M47.12 16.72H44.08V19.76H47.12V16.72Z" fill="black"/>
<path d="M50.16 16.72H47.12V19.76H50.16V16.72Z" fill="black"/>
<path d="M59.28 16.72H56.24V19.76H59.28V16.72Z" fill="black"/>
<path d="M62.32 16.72H59.28V19.76H62.32V16.72Z" fill="black"/>
<path d="M65.36 16.72H62.32V19.76H65.36V16.72Z" fill="black"/>
<path d="M68.4 16.72H65.36V19.76H68.4V16.72Z" fill="black"/>
<path d="M71.44 16.72H68.4V19.76H71.44V16.72Z" fill="black"/>
<path d="M83.6 16.72H80.56V19.76H83.6V16.72Z" fill="black"/>
<path d="M86.64 16.72H83.6V19.76H86.64V16.72Z" fill="black"/>
<path d="M89.68 16.72H86.64V19.76H89.68V16.72Z" fill="black"/>
<path d="M92.72 16.72H89.68V19.76H92.72V16.72Z" fill="black"/>
<path d="M95.76 16.72H92.72V19.76H95.76V16.72Z" fill="black"/>
<path d="M98.8 16.72H95.76V19.76H98.8V16.72Z" fill="black"/>
<path d="M104.88 16.72H101.84V19.76H104.88V16.72Z" fill="black"/>
<path d="M110.96 16.72H107.92V19.76H110.96V16.72Z" fill="black"/>
<path d="M120.08 16.72H117.04V19.76H120.08V16.72Z" fill="black"/>
<path d="M132.24 16.72H129.2V19.76H132.24V16.72Z" fill="black"/>
<path d="M150.48 16.72H147.44V19.76H150.48V16.72Z" fill="black"/>
<path d="M4.56 19.76H1.52V22.8H4.56V19.76Z" fill="black"/>
<path d="M7.6 19.76H4.56V22.8H7.6V19.76Z" fill="black"/>
<path d="M10.64 19.76H7.6V22.8H10.64V19.76Z" fill="black"/>
<path d="M13.68 19.76H10.64V22.8H13.68V19.76Z" fill="black"/>
<path d="M16.72 19.76H13.68V22.8H16.72V19.76Z" fill="black"/>
<path d="M19.76 19.76H16.72V22.8H19.76V19.76Z" fill="black"/>
<path d="M22.8 19.76H19.76V22.8H22.8V19.76Z" fill="black"/>
<path d="M28.88 19.76H25.84V22.8H28.88V19.76Z" fill="black"/>
<path d="M34.96 19.76H31.92V22.8H34.96V19.76Z" fill="black"/>
<path d="M41.04 19.76H38V22.8H41.04V19.76Z" fill="black"/>
<path d="M47.12 19.76H44.08V22.8H47.12V19.76Z" fill="black"/>
<path d="M53.2 19.76H50.16V22.8H53.2V19.76Z" fill="black"/>
<path d="M59.28 19.76H56.24V22.8H59.28V19.76Z" fill="black"/>
<path d="M65.36 19.76H62.32V22.8H65.36V19.76Z" fill="black"/>
<path d="M71.44 19.76H68.4V22.8H71.44V19.76Z" fill="black"/>
<path d="M77.52 19.76H74.48V22.8H77.52V19.76Z" fill="black"/>
<path d="M83.6 19.76H80.56V22.8H83.6V19.76Z" fill="black"/>
<path d="M89.68 19.76H86.64V22.8H89.68V19.76Z" fill="black"/>
<path d="M95.76 19.76H92.72V22.8H95.76V19.76Z" fill="black"/>
<path d="M101.84 19.76H98.8V22.8H101.84V19.76Z" fill="black"/>
<path d="M107.92 19.76H104.88V22.8H107.92V19.76Z" fill="black"/>
<path d="M114 19.76H110.96V22.8H114V19.76Z" fill="black"/>
<path d="M120.08 19.76H117.04V22.8H120.08V19.76Z" fill="black"/>
<path d="M126.16 19.76H123.12V22.8H126.16V19.76Z" fill="black"/>
<path d="M132.24 19.76H129.2V22.8H132.24V19.76Z" fill="black"/>
<path d="M135.28 19.76H132.24V22.8H135.28V19.76Z" fill="black"/>
<path d="M138.32 19.76H135.28V22.8H138.32V19.76Z" fill="black"/>
<path d="M141.36 19.76H138.32V22.8H141.36V19.76Z" fill="black"/>
<path d="M144.4 19.76H141.36V22.8H144.4V19.76Z" fill="black"/>
<path d="M147.44 19.76H144.4V22.8H147.44V19.76Z" fill="black"/>
<path d="M150.48 19.76H147.44V22.8H150.48V19.76Z" fill="black"/>
<path d="M34.96 22.8H31.92V25.84H34.96V22.8Z" fill="black"/>
<path d="M38 22.8H34.96V25.84H38V22.8Z" fill="black"/>
<path d="M41.04 22.8H38V25.84H41.04V22.8Z" fill="black"/>
<path d="M50.16 22.8H47.12V25.84H50.16V22.8Z" fill="black"/>
<path d="M53.2 22.8H50.16V25.84H53.2V22.8Z" fill="black"/>
<path d="M68.4 22.8H65.36V25.84H68.4V22.8Z" fill="black"/>
<path d="M71.44 22.8H68.4V25.84H71.44V22.8Z" fill="black"/>
<path d="M83.6 22.8H80.56V25.84H83.6V22.8Z" fill="black"/>
<path d="M86.64 22.8H83.6V25.84H86.64V22.8Z" fill="black"/>
<path d="M101.84 22.8H98.8V25.84H101.84V22.8Z" fill="black"/>
<path d="M104.88 22.8H101.84V25.84H104.88V22.8Z" fill="black"/>
<path d="M110.96 22.8H107.92V25.84H110.96V22.8Z" fill="black"/>
<path d="M117.04 22.8H114V25.84H117.04V22.8Z" fill="black"/>
<path d="M123.12 22.8H120.08V25.84H123.12V22.8Z" fill="black"/>
<path d="M10.64 25.84H7.6V28.88H10.64V25.84Z" fill="black"/>
<path d="M19.76 25.84H16.72V28.88H19.76V25.84Z" fill="black"/>
<path d="M22.8 25.84H19.76V28.88H22.8V25.84Z" fill="black"/>
<path d="M25.84 25.84H22.8V28.88H25.84V25.84Z" fill="black"/>
<path d="M28.88 25.84H25.84V28.88H28.88V25.84Z" fill="black"/>
<path d="M31.92 25.84H28.88V28.88H31.92V25.84Z" fill="black"/>
<path d="M38 25.84H34.96V28.88H38V25.84Z" fill="black"/>
<path d="M53.2 25.84H50.16V28.88H53.2V25.84Z" fill="black"/>
<path d="M65.36 25.84H62.32V28.88H65.36V25.84Z" fill="black"/>
<path d="M68.4 25.84H65.36V28.88H68.4V25.84Z" fill="black"/>
<path d="M71.44 25.84H68.4V28.88H71.44V25.84Z" fill="black"/>
<path d="M74.48 25.84H71.44V28.88H74.48V25.84Z" fill="black"/>
<path d="M77.52 25.84H74.48V28.88H77.52V25.84Z" fill="black"/>
<path d="M80.56 25.84H77.52V28.88H80.56V25.84Z" fill="black"/>
<path d="M83.6 25.84H80.56V28.88H83.6V25.84Z" fill="black"/>
<path d="M89.68 25.84H86.64V28.88H89.68V25.84Z" fill="black"/>
<path d="M98.8 25.84H95.76V28.88H98.8V25.84Z" fill="black"/>
<path d="M104.88 25.84H101.84V28.88H104.88V25.84Z" fill="black"/>
<path d="M126.16 25.84H123.12V28.88H126.16V25.84Z" fill="black"/>
<path d="M129.2 25.84H126.16V28.88H129.2V25.84Z" fill="black"/>
<path d="M135.28 25.84H132.24V28.88H135.28V25.84Z" fill="black"/>
<path d="M138.32 25.84H135.28V28.88H138.32V25.84Z" fill="black"/>
<path d="M141.36 25.84H138.32V28.88H141.36V25.84Z" fill="black"/>
<path d="M144.4 25.84H141.36V28.88H144.4V25.84Z" fill="black"/>
<path d="M147.44 25.84H144.4V28.88H147.44V25.84Z" fill="black"/>
<path d="M4.56 28.88H1.52V31.92H4.56V28.88Z" fill="black"/>
<path d="M7.6 28.88H4.56V31.92H7.6V28.88Z" fill="black"/>
<path d="M13.68 28.88H10.64V31.92H13.68V28.88Z" fill="black"/>
<path d="M25.84 28.88H22.8V31.92H25.84V28.88Z" fill="black"/>
<path d="M31.92 28.88H28.88V31.92H31.92V28.88Z" fill="black"/>
<path d="M41.04 28.88H38V31.92H41.04V28.88Z" fill="black"/>
<path d="M44.08 28.88H41.04V31.92H44.08V28.88Z" fill="black"/>
<path d="M47.12 28.88H44.08V31.92H47.12V28.88Z" fill="black"/>
<path d="M50.16 28.88H47.12V31.92H50.16V28.88Z" fill="black"/>
<path d="M53.2 28.88H50.16V31.92H53.2V28.88Z" fill="black"/>
<path d="M59.28 28.88H56.24V31.92H59.28V28.88Z" fill="black"/>
<path d="M62.32 28.88H59.28V31.92H62.32V28.88Z" fill="black"/>
<path d="M65.36 28.88H62.32V31.92H65.36V28.88Z" fill="black"/>
<path d="M77.52 28.88H74.48V31.92H77.52V28.88Z" fill="black"/>
<path d="M80.56 28.88H77.52V31.92H80.56V28.88Z" fill="black"/>
<path d="M83.6 28.88H80.56V31.92H83.6V28.88Z" fill="black"/>
<path d="M86.64 28.88H83.6V31.92H86.64V28.88Z" fill="black"/>
<path d="M89.68 28.88H86.64V31.92H89.68V28.88Z" fill="black"/>
<path d="M95.76 28.88H92.72V31.92H95.76V28.88Z" fill="black"/>
<path d="M101.84 28.88H98.8V31.92H101.84V28.88Z" fill="black"/>
<path d="M104.88 28.88H101.84V31.92H104.88V28.88Z" fill="black"/>
<path d="M110.96 28.88H107.92V31.92H110.96V28.88Z" fill="black"/>
<path d="M114 28.88H110.96V31.92H114V28.88Z" fill="black"/>
<path d="M123.12 28.88H120.08V31.92H123.12V28.88Z" fill="black"/>
<path d="M132.24 28.88H129.2V31.92H132.24V28.88Z" fill="black"/>
<path d="M138.32 28.88H135.28V31.92H138.32V28.88Z" fill="black"/>
<path d="M141.36 28.88H138.32V31.92H141.36V28.88Z" fill="black"/>
<path d="M4.56 31.92H1.52V34.96H4.56V31.92Z" fill="black"/>
<path d="M10.64 31.92H7.6V34.96H10.64V31.92Z" fill="black"/>
<path d="M13.68 31.92H10.64V34.96H13.68V31.92Z" fill="black"/>
<path d="M16.72 31.92H13.68V34.96H16.72V31.92Z" fill="black"/>
<path d="M22.8 31.92H19.76V34.96H22.8V31.92Z" fill="black"/>
<path d="M25.84 31.92H22.8V34.96H25.84V31.92Z" fill="black"/>
<path d="M31.92 31.92H28.88V34.96H31.92V31.92Z" fill="black"/>
<path d="M53.2 31.92H50.16V34.96H53.2V31.92Z" fill="black"/>
<path d="M56.24 31.92H53.2V34.96H56.24V31.92Z" fill="black"/>
<path d="M59.28 31.92H56.24V34.96H59.28V31.92Z" fill="black"/>
<path d="M62.32 31.92H59.28V34.96H62.32V31.92Z" fill="black"/>
<path d="M65.36 31.92H62.32V34.96H65.36V31.92Z" fill="black"/>
<path d="M71.44 31.92H68.4V34.96H71.44V31.92Z" fill="black"/>
<path d="M77.52 31.92H74.48V34.96H77.52V31.92Z" fill="black"/>
<path d="M86.64 31.92H83.6V34.96H86.64V31.92Z" fill="black"/>
<path d="M92.72 31.92H89.68V34.96H92.72V31.92Z" fill="black"/>
<path d="M95.76 31.92H92.72V34.96H95.76V31.92Z" fill="black"/>
<path d="M98.8 31.92H95.76V34.96H98.8V31.92Z" fill="black"/>
<path d="M101.84 31.92H98.8V34.96H101.84V31.92Z" fill="black"/>
<path d="M107.92 31.92H104.88V34.96H107.92V31.92Z" fill="black"/>
<path d="M110.96 31.92H107.92V34.96H110.96V31.92Z" fill="black"/>
<path d="M114 31.92H110.96V34.96H114V31.92Z" fill="black"/>
<path d="M117.04 31.92H114V34.96H117.04V31.92Z" fill="black"/>
<path d="M123.12 31.92H120.08V34.96H123.12V31.92Z" fill="black"/>
<path d="M132.24 31.92H129.2V34.96H132.24V31.92Z" fill="black"/>
<path d="M138.32 31.92H135.28V34.96H138.32V31.92Z" fill="black"/>
<path d="M141.36 31.92H138.32V34.96H141.36V31.92Z" fill="black"/>
<path d="M7.6 34.96H4.56V38H7.6V34.96Z" fill="black"/>
<path d="M10.64 34.96H7.6V38H10.64V34.96Z" fill="black"/>
<path d="M13.68 34.96H10.64V38H13.68V34.96Z" fill="black"/>
<path d="M16.72 34.96H13.68V38H16.72V34.96Z" fill="black"/>
<path d="M19.76 34.96H16.72V38H19.76V34.96Z" fill="black"/>
<path d="M31.92 34.96H28.88V38H31.92V34.96Z" fill="black"/>
<path d="M34.96 34.96H31.92V38H34.96V34.96Z" fill="black"/>
<path d="M41.04 34.96H38V38H41.04V34.96Z" fill="black"/>
<path d="M53.2 34.96H50.16V38H53.2V34.96Z" fill="black"/>
<path d="M68.4 34.96H65.36V38H68.4V34.96Z" fill="black"/>
<path d="M71.44 34.96H68.4V38H71.44V34.96Z" fill="black"/>
<path d="M83.6 34.96H80.56V38H83.6V34.96Z" fill="black"/>
<path d="M89.68 34.96H86.64V38H89.68V34.96Z" fill="black"/>
<path d="M92.72 34.96H89.68V38H92.72V34.96Z" fill="black"/>
<path d="M95.76 34.96H92.72V38H95.76V34.96Z" fill="black"/>
<path d="M104.88 34.96H101.84V38H104.88V34.96Z" fill="black"/>
<path d="M114 34.96H110.96V38H114V34.96Z" fill="black"/>
<path d="M123.12 34.96H120.08V38H123.12V34.96Z" fill="black"/>
<path d="M129.2 34.96H126.16V38H129.2V34.96Z" fill="black"/>
<path d="M135.28 34.96H132.24V38H135.28V34.96Z" fill="black"/>
<path d="M138.32 34.96H135.28V38H138.32V34.96Z" fill="black"/>
<path d="M144.4 34.96H141.36V38H144.4V34.96Z" fill="black"/>
<path d="M150.48 34.96H147.44V38H150.48V34.96Z" fill="black"/>
<path d="M7.6 38H4.56V41.04H7.6V38Z" fill="black"/>
<path d="M13.68 38H10.64V41.04H13.68V38Z" fill="black"/>
<path d="M19.76 38H16.72V41.04H19.76V38Z" fill="black"/>
<path d="M22.8 38H19.76V41.04H22.8V38Z" fill="black"/>
<path d="M28.88 38H25.84V41.04H28.88V38Z" fill="black"/>
<path d="M41.04 38H38V41.04H41.04V38Z" fill="black"/>
<path d="M44.08 38H41.04V41.04H44.08V38Z" fill="black"/>
<path d="M50.16 38H47.12V41.04H50.16V38Z" fill="black"/>
<path d="M53.2 38H50.16V41.04H53.2V38Z" fill="black"/>
<path d="M59.28 38H56.24V41.04H59.28V38Z" fill="black"/>
<path d="M62.32 38H59.28V41.04H62.32V38Z" fill="black"/>
<path d="M71.44 38H68.4V41.04H71.44V38Z" fill="black"/>
<path d="M80.56 38H77.52V41.04H80.56V38Z" fill="black"/>
<path d="M83.6 38H80.56V41.04H83.6V38Z" fill="black"/>
<path d="M98.8 38H95.76V41.04H98.8V38Z" fill="black"/>
<path d="M101.84 38H98.8V41.04H101.84V38Z" fill="black"/>
<path d="M104.88 38H101.84V41.04H104.88V38Z" fill="black"/>
<path d="M110.96 38H107.92V41.04H110.96V38Z" fill="black"/>
<path d="M114 38H110.96V41.04H114V38Z" fill="black"/>
<path d="M117.04 38H114V41.04H117.04V38Z" fill="black"/>
<path d="M129.2 38H126.16V41.04H129.2V38Z" fill="black"/>
<path d="M144.4 38H141.36V41.04H144.4V38Z" fill="black"/>
<path d="M150.48 38H147.44V41.04H150.48V38Z" fill="black"/>
<path d="M4.56 41.04H1.52V44.08H4.56V41.04Z" fill="black"/>
<path d="M19.76 41.04H16.72V44.08H19.76V41.04Z" fill="black"/>
<path d="M25.84 41.04H22.8V44.08H25.84V41.04Z" fill="black"/>
<path d="M28.88 41.04H25.84V44.08H28.88V41.04Z" fill="black"/>
<path d="M34.96 41.04H31.92V44.08H34.96V41.04Z" fill="black"/>
<path d="M38 41.04H34.96V44.08H38V41.04Z" fill="black"/>
<path d="M41.04 41.04H38V44.08H41.04V41.04Z" fill="black"/>
<path d="M44.08 41.04H41.04V44.08H44.08V41.04Z" fill="black"/>
<path d="M50.16 41.04H47.12V44.08H50.16V41.04Z" fill="black"/>
<path d="M56.24 41.04H53.2V44.08H56.24V41.04Z" fill="black"/>
<path d="M59.28 41.04H56.24V44.08H59.28V41.04Z" fill="black"/>
<path d="M62.32 41.04H59.28V44.08H62.32V41.04Z" fill="black"/>
<path d="M65.36 41.04H62.32V44.08H65.36V41.04Z" fill="black"/>
<path d="M89.68 41.04H86.64V44.08H89.68V41.04Z" fill="black"/>
<path d="M95.76 41.04H92.72V44.08H95.76V41.04Z" fill="black"/>
<path d="M101.84 41.04H98.8V44.08H101.84V41.04Z" fill="black"/>
<path d="M107.92 41.04H104.88V44.08H107.92V41.04Z" fill="black"/>
<path d="M114 41.04H110.96V44.08H114V41.04Z" fill="black"/>
<path d="M117.04 41.04H114V44.08H117.04V41.04Z" fill="black"/>
<path d="M120.08 41.04H117.04V44.08H120.08V41.04Z" fill="black"/>
<path d="M129.2 41.04H126.16V44.08H129.2V41.04Z" fill="black"/>
<path d="M138.32 41.04H135.28V44.08H138.32V41.04Z" fill="black"/>
<path d="M141.36 41.04H138.32V44.08H141.36V41.04Z" fill="black"/>
<path d="M147.44 41.04H144.4V44.08H147.44V41.04Z" fill="black"/>
<path d="M150.48 41.04H147.44V44.08H150.48V41.04Z" fill="black"/>
<path d="M4.56 44.08H1.52V47.12H4.56V44.08Z" fill="black"/>
<path d="M16.72 44.08H13.68V47.12H16.72V44.08Z" fill="black"/>
<path d="M19.76 44.08H16.72V47.12H19.76V44.08Z" fill="black"/>
<path d="M22.8 44.08H19.76V47.12H22.8V44.08Z" fill="black"/>
<path d="M25.84 44.08H22.8V47.12H25.84V44.08Z" fill="black"/>
<path d="M31.92 44.08H28.88V47.12H31.92V44.08Z" fill="black"/>
<path d="M34.96 44.08H31.92V47.12H34.96V44.08Z" fill="black"/>
<path d="M38 44.08H34.96V47.12H38V44.08Z" fill="black"/>
<path d="M50.16 44.08H47.12V47.12H50.16V44.08Z" fill="black"/>
<path d="M53.2 44.08H50.16V47.12H53.2V44.08Z" fill="black"/>
<path d="M56.24 44.08H53.2V47.12H56.24V44.08Z" fill="black"/>
<path d="M59.28 44.08H56.24V47.12H59.28V44.08Z" fill="black"/>
<path d="M65.36 44.08H62.32V47.12H65.36V44.08Z" fill="black"/>
<path d="M68.4 44.08H65.36V47.12H68.4V44.08Z" fill="black"/>
<path d="M74.48 44.08H71.44V47.12H74.48V44.08Z" fill="black"/>
<path d="M89.68 44.08H86.64V47.12H89.68V44.08Z" fill="black"/>
<path d="M107.92 44.08H104.88V47.12H107.92V44.08Z" fill="black"/>
<path d="M114 44.08H110.96V47.12H114V44.08Z" fill="black"/>
<path d="M117.04 44.08H114V47.12H117.04V44.08Z" fill="black"/>
<path d="M132.24 44.08H129.2V47.12H132.24V44.08Z" fill="black"/>
<path d="M135.28 44.08H132.24V47.12H135.28V44.08Z" fill="black"/>
<path d="M138.32 44.08H135.28V47.12H138.32V44.08Z" fill="black"/>
<path d="M141.36 44.08H138.32V47.12H141.36V44.08Z" fill="black"/>
<path d="M4.56 47.12H1.52V50.16H4.56V47.12Z" fill="black"/>
<path d="M19.76 47.12H16.72V50.16H19.76V47.12Z" fill="black"/>
<path d="M25.84 47.12H22.8V50.16H25.84V47.12Z" fill="black"/>
<path d="M28.88 47.12H25.84V50.16H28.88V47.12Z" fill="black"/>
<path d="M34.96 47.12H31.92V50.16H34.96V47.12Z" fill="black"/>
<path d="M38 47.12H34.96V50.16H38V47.12Z" fill="black"/>
<path d="M53.2 47.12H50.16V50.16H53.2V47.12Z" fill="black"/>
<path d="M68.4 47.12H65.36V50.16H68.4V47.12Z" fill="black"/>
<path d="M74.48 47.12H71.44V50.16H74.48V47.12Z" fill="black"/>
<path d="M77.52 47.12H74.48V50.16H77.52V47.12Z" fill="black"/>
<path d="M83.6 47.12H80.56V50.16H83.6V47.12Z" fill="black"/>
<path d="M89.68 47.12H86.64V50.16H89.68V47.12Z" fill="black"/>
<path d="M95.76 47.12H92.72V50.16H95.76V47.12Z" fill="black"/>
<path d="M104.88 47.12H101.84V50.16H104.88V47.12Z" fill="black"/>
<path d="M110.96 47.12H107.92V50.16H110.96V47.12Z" fill="black"/>
<path d="M114 47.12H110.96V50.16H114V47.12Z" fill="black"/>
<path d="M123.12 47.12H120.08V50.16H123.12V47.12Z" fill="black"/>
<path d="M129.2 47.12H126.16V50.16H129.2V47.12Z" fill="black"/>
<path d="M135.28 47.12H132.24V50.16H135.28V47.12Z" fill="black"/>
<path d="M138.32 47.12H135.28V50.16H138.32V47.12Z" fill="black"/>
<path d="M141.36 47.12H138.32V50.16H141.36V47.12Z" fill="black"/>
<path d="M144.4 47.12H141.36V50.16H144.4V47.12Z" fill="black"/>
<path d="M150.48 47.12H147.44V50.16H150.48V47.12Z" fill="black"/>
<path d="M7.6 50.16H4.56V53.2H7.6V50.16Z" fill="black"/>
<path d="M10.64 50.16H7.6V53.2H10.64V50.16Z" fill="black"/>
<path d="M13.68 50.16H10.64V53.2H13.68V50.16Z" fill="black"/>
<path d="M16.72 50.16H13.68V53.2H16.72V50.16Z" fill="black"/>
<path d="M22.8 50.16H19.76V53.2H22.8V50.16Z" fill="black"/>
<path d="M25.84 50.16H22.8V53.2H25.84V50.16Z" fill="black"/>
<path d="M28.88 50.16H25.84V53.2H28.88V50.16Z" fill="black"/>
<path d="M38 50.16H34.96V53.2H38V50.16Z" fill="black"/>
<path d="M41.04 50.16H38V53.2H41.04V50.16Z" fill="black"/>
<path d="M50.16 50.16H47.12V53.2H50.16V50.16Z" fill="black"/>
<path d="M53.2 50.16H50.16V53.2H53.2V50.16Z" fill="black"/>
<path d="M59.28 50.16H56.24V53.2H59.28V50.16Z" fill="black"/>
<path d="M68.4 50.16H65.36V53.2H68.4V50.16Z" fill="black"/>
<path d="M74.48 50.16H71.44V53.2H74.48V50.16Z" fill="black"/>
<path d="M92.72 50.16H89.68V53.2H92.72V50.16Z" fill="black"/>
<path d="M95.76 50.16H92.72V53.2H95.76V50.16Z" fill="black"/>
<path d="M98.8 50.16H95.76V53.2H98.8V50.16Z" fill="black"/>
<path d="M110.96 50.16H107.92V53.2H110.96V50.16Z" fill="black"/>
<path d="M114 50.16H110.96V53.2H114V50.16Z" fill="black"/>
<path d="M117.04 50.16H114V53.2H117.04V50.16Z" fill="black"/>
<path d="M129.2 50.16H126.16V53.2H129.2V50.16Z" fill="black"/>
<path d="M141.36 50.16H138.32V53.2H141.36V50.16Z" fill="black"/>
<path d="M150.48 50.16H147.44V53.2H150.48V50.16Z" fill="black"/>
<path d="M4.56 53.2H1.52V56.24H4.56V53.2Z" fill="black"/>
<path d="M10.64 53.2H7.6V56.24H10.64V53.2Z" fill="black"/>
<path d="M13.68 53.2H10.64V56.24H13.68V53.2Z" fill="black"/>
<path d="M16.72 53.2H13.68V56.24H16.72V53.2Z" fill="black"/>
<path d="M19.76 53.2H16.72V56.24H19.76V53.2Z" fill="black"/>
<path d="M25.84 53.2H22.8V56.24H25.84V53.2Z" fill="black"/>
<path d="M28.88 53.2H25.84V56.24H28.88V53.2Z" fill="black"/>
<path d="M31.92 53.2H28.88V56.24H31.92V53.2Z" fill="black"/>
<path d="M38 53.2H34.96V56.24H38V53.2Z" fill="black"/>
<path d="M59.28 53.2H56.24V56.24H59.28V53.2Z" fill="black"/>
<path d="M65.36 53.2H62.32V56.24H65.36V53.2Z" fill="black"/>
<path d="M71.44 53.2H68.4V56.24H71.44V53.2Z" fill="black"/>
<path d="M77.52 53.2H74.48V56.24H77.52V53.2Z" fill="black"/>
<path d="M92.72 53.2H89.68V56.24H92.72V53.2Z" fill="black"/>
<path d="M98.8 53.2H95.76V56.24H98.8V53.2Z" fill="black"/>
<path d="M114 53.2H110.96V56.24H114V53.2Z" fill="black"/>
<path d="M117.04 53.2H114V56.24H117.04V53.2Z" fill="black"/>
<path d="M126.16 53.2H123.12V56.24H126.16V53.2Z" fill="black"/>
<path d="M129.2 53.2H126.16V56.24H129.2V53.2Z" fill="black"/>
<path d="M132.24 53.2H129.2V56.24H132.24V53.2Z" fill="black"/>
<path d="M138.32 53.2H135.28V56.24H138.32V53.2Z" fill="black"/>
<path d="M141.36 53.2H138.32V56.24H141.36V53.2Z" fill="black"/>
<path d="M150.48 53.2H147.44V56.24H150.48V53.2Z" fill="black"/>
<path d="M4.56 56.24H1.52V59.28H4.56V56.24Z" fill="black"/>
<path d="M10.64 56.24H7.6V59.28H10.64V56.24Z" fill="black"/>
<path d="M13.68 56.24H10.64V59.28H13.68V56.24Z" fill="black"/>
<path d="M19.76 56.24H16.72V59.28H19.76V56.24Z" fill="black"/>
<path d="M22.8 56.24H19.76V59.28H22.8V56.24Z" fill="black"/>
<path d="M28.88 56.24H25.84V59.28H28.88V56.24Z" fill="black"/>
<path d="M31.92 56.24H28.88V59.28H31.92V56.24Z" fill="black"/>
<path d="M41.04 56.24H38V59.28H41.04V56.24Z" fill="black"/>
<path d="M44.08 56.24H41.04V59.28H44.08V56.24Z" fill="black"/>
<path d="M47.12 56.24H44.08V59.28H47.12V56.24Z" fill="black"/>
<path d="M56.24 56.24H53.2V59.28H56.24V56.24Z" fill="black"/>
<path d="M62.32 56.24H59.28V59.28H62.32V56.24Z" fill="black"/>
<path d="M65.36 56.24H62.32V59.28H65.36V56.24Z" fill="black"/>
<path d="M83.6 56.24H80.56V59.28H83.6V56.24Z" fill="black"/>
<path d="M89.68 56.24H86.64V59.28H89.68V56.24Z" fill="black"/>
<path d="M95.76 56.24H92.72V59.28H95.76V56.24Z" fill="black"/>
<path d="M98.8 56.24H95.76V59.28H98.8V56.24Z" fill="black"/>
<path d="M101.84 56.24H98.8V59.28H101.84V56.24Z" fill="black"/>
<path d="M104.88 56.24H101.84V59.28H104.88V56.24Z" fill="black"/>
<path d="M114 56.24H110.96V59.28H114V56.24Z" fill="black"/>
<path d="M117.04 56.24H114V59.28H117.04V56.24Z" fill="black"/>
<path d="M123.12 56.24H120.08V59.28H123.12V56.24Z" fill="black"/>
<path d="M132.24 56.24H129.2V59.28H132.24V56.24Z" fill="black"/>
<path d="M138.32 56.24H135.28V59.28H138.32V56.24Z" fill="black"/>
<path d="M144.4 56.24H141.36V59.28H144.4V56.24Z" fill="black"/>
<path d="M4.56 59.28H1.52V62.32H4.56V59.28Z" fill="black"/>
<path d="M7.6 59.28H4.56V62.32H7.6V59.28Z" fill="black"/>
<path d="M10.64 59.28H7.6V62.32H10.64V59.28Z" fill="black"/>
<path d="M16.72 59.28H13.68V62.32H16.72V59.28Z" fill="black"/>
<path d="M28.88 59.28H25.84V62.32H28.88V59.28Z" fill="black"/>
<path d="M34.96 59.28H31.92V62.32H34.96V59.28Z" fill="black"/>
<path d="M38 59.28H34.96V62.32H38V59.28Z" fill="black"/>
<path d="M41.04 59.28H38V62.32H41.04V59.28Z" fill="black"/>
<path d="M47.12 59.28H44.08V62.32H47.12V59.28Z" fill="black"/>
<path d="M56.24 59.28H53.2V62.32H56.24V59.28Z" fill="black"/>
<path d="M62.32 59.28H59.28V62.32H62.32V59.28Z" fill="black"/>
<path d="M68.4 59.28H65.36V62.32H68.4V59.28Z" fill="black"/>
<path d="M74.48 59.28H71.44V62.32H74.48V59.28Z" fill="black"/>
<path d="M86.64 59.28H83.6V62.32H86.64V59.28Z" fill="black"/>
<path d="M92.72 59.28H89.68V62.32H92.72V59.28Z" fill="black"/>
<path d="M95.76 59.28H92.72V62.32H95.76V59.28Z" fill="black"/>
<path d="M98.8 59.28H95.76V62.32H98.8V59.28Z" fill="black"/>
<path d="M104.88 59.28H101.84V62.32H104.88V59.28Z" fill="black"/>
<path d="M123.12 59.28H120.08V62.32H123.12V59.28Z" fill="black"/>
<path d="M129.2 59.28H126.16V62.32H129.2V59.28Z" fill="black"/>
<path d="M150.48 59.28H147.44V62.32H150.48V59.28Z" fill="black"/>
<path d="M4.56 62.32H1.52V65.36H4.56V62.32Z" fill="black"/>
<path d="M7.6 62.32H4.56V65.36H7.6V62.32Z" fill="black"/>
<path d="M10.64 62.32H7.6V65.36H10.64V62.32Z" fill="black"/>
<path d="M16.72 62.32H13.68V65.36H16.72V62.32Z" fill="black"/>
<path d="M19.76 62.32H16.72V65.36H19.76V62.32Z" fill="black"/>
<path d="M22.8 62.32H19.76V65.36H22.8V62.32Z" fill="black"/>
<path d="M31.92 62.32H28.88V65.36H31.92V62.32Z" fill="black"/>
<path d="M44.08 62.32H41.04V65.36H44.08V62.32Z" fill="black"/>
<path d="M47.12 62.32H44.08V65.36H47.12V62.32Z" fill="black"/>
<path d="M50.16 62.32H47.12V65.36H50.16V62.32Z" fill="black"/>
<path d="M59.28 62.32H56.24V65.36H59.28V62.32Z" fill="black"/>
<path d="M62.32 62.32H59.28V65.36H62.32V62.32Z" fill="black"/>
<path d="M65.36 62.32H62.32V65.36H65.36V62.32Z" fill="black"/>
<path d="M74.48 62.32H71.44V65.36H74.48V62.32Z" fill="black"/>
<path d="M86.64 62.32H83.6V65.36H86.64V62.32Z" fill="black"/>
<path d="M89.68 62.32H86.64V65.36H89.68V62.32Z" fill="black"/>
<path d="M95.76 62.32H92.72V65.36H95.76V62.32Z" fill="black"/>
<path d="M101.84 62.32H98.8V65.36H101.84V62.32Z" fill="black"/>
<path d="M104.88 62.32H101.84V65.36H104.88V62.32Z" fill="black"/>
<path d="M114 62.32H110.96V65.36H114V62.32Z" fill="black"/>
<path d="M123.12 62.32H120.08V65.36H123.12V62.32Z" fill="black"/>
<path d="M126.16 62.32H123.12V65.36H126.16V62.32Z" fill="black"/>
<path d="M138.32 62.32H135.28V65.36H138.32V62.32Z" fill="black"/>
<path d="M144.4 62.32H141.36V65.36H144.4V62.32Z" fill="black"/>
<path d="M147.44 62.32H144.4V65.36H147.44V62.32Z" fill="black"/>
<path d="M150.48 62.32H147.44V65.36H150.48V62.32Z" fill="black"/>
<path d="M7.6 65.36H4.56V68.4H7.6V65.36Z" fill="black"/>
<path d="M13.68 65.36H10.64V68.4H13.68V65.36Z" fill="black"/>
<path d="M19.76 65.36H16.72V68.4H19.76V65.36Z" fill="black"/>
<path d="M28.88 65.36H25.84V68.4H28.88V65.36Z" fill="black"/>
<path d="M34.96 65.36H31.92V68.4H34.96V65.36Z" fill="black"/>
<path d="M44.08 65.36H41.04V68.4H44.08V65.36Z" fill="black"/>
<path d="M53.2 65.36H50.16V68.4H53.2V65.36Z" fill="black"/>
<path d="M56.24 65.36H53.2V68.4H56.24V65.36Z" fill="black"/>
<path d="M59.28 65.36H56.24V68.4H59.28V65.36Z" fill="black"/>
<path d="M65.36 65.36H62.32V68.4H65.36V65.36Z" fill="black"/>
<path d="M68.4 65.36H65.36V68.4H68.4V65.36Z" fill="black"/>
<path d="M83.6 65.36H80.56V68.4H83.6V65.36Z" fill="black"/>
<path d="M86.64 65.36H83.6V68.4H86.64V65.36Z" fill="black"/>
<path d="M92.72 65.36H89.68V68.4H92.72V65.36Z" fill="black"/>
<path d="M95.76 65.36H92.72V68.4H95.76V65.36Z" fill="black"/>
<path d="M101.84 65.36H98.8V68.4H101.84V65.36Z" fill="black"/>
<path d="M104.88 65.36H101.84V68.4H104.88V65.36Z" fill="black"/>
<path d="M107.92 65.36H104.88V68.4H107.92V65.36Z" fill="black"/>
<path d="M114 65.36H110.96V68.4H114V65.36Z" fill="black"/>
<path d="M120.08 65.36H117.04V68.4H120.08V65.36Z" fill="black"/>
<path d="M123.12 65.36H120.08V68.4H123.12V65.36Z" fill="black"/>
<path d="M129.2 65.36H126.16V68.4H129.2V65.36Z" fill="black"/>
<path d="M135.28 65.36H132.24V68.4H135.28V65.36Z" fill="black"/>
<path d="M138.32 65.36H135.28V68.4H138.32V65.36Z" fill="black"/>
<path d="M141.36 65.36H138.32V68.4H141.36V65.36Z" fill="black"/>
<path d="M10.64 68.4H7.6V71.44H10.64V68.4Z" fill="black"/>
<path d="M16.72 68.4H13.68V71.44H16.72V68.4Z" fill="black"/>
<path d="M19.76 68.4H16.72V71.44H19.76V68.4Z" fill="black"/>
<path d="M22.8 68.4H19.76V71.44H22.8V68.4Z" fill="black"/>
<path d="M25.84 68.4H22.8V71.44H25.84V68.4Z" fill="black"/>
<path d="M28.88 68.4H25.84V71.44H28.88V68.4Z" fill="black"/>
<path d="M31.92 68.4H28.88V71.44H31.92V68.4Z" fill="black"/>
<path d="M34.96 68.4H31.92V71.44H34.96V68.4Z" fill="black"/>
<path d="M38 68.4H34.96V71.44H38V68.4Z" fill="black"/>
<path d="M44.08 68.4H41.04V71.44H44.08V68.4Z" fill="black"/>
<path d="M59.28 68.4H56.24V71.44H59.28V68.4Z" fill="black"/>
<path d="M65.36 68.4H62.32V71.44H65.36V68.4Z" fill="black"/>
<path d="M71.44 68.4H68.4V71.44H71.44V68.4Z" fill="black"/>
<path d="M74.48 68.4H71.44V71.44H74.48V68.4Z" fill="black"/>
<path d="M77.52 68.4H74.48V71.44H77.52V68.4Z" fill="black"/>
<path d="M80.56 68.4H77.52V71.44H80.56V68.4Z" fill="black"/>
<path d="M83.6 68.4H80.56V71.44H83.6V68.4Z" fill="black"/>
<path d="M92.72 68.4H89.68V71.44H92.72V68.4Z" fill="black"/>
<path d="M101.84 68.4H98.8V71.44H101.84V68.4Z" fill="black"/>
<path d="M104.88 68.4H101.84V71.44H104.88V68.4Z" fill="black"/>
<path d="M107.92 68.4H104.88V71.44H107.92V68.4Z" fill="black"/>
<path d="M114 68.4H110.96V71.44H114V68.4Z" fill="black"/>
<path d="M117.04 68.4H114V71.44H117.04V68.4Z" fill="black"/>
<path d="M126.16 68.4H123.12V71.44H126.16V68.4Z" fill="black"/>
<path d="M129.2 68.4H126.16V71.44H129.2V68.4Z" fill="black"/>
<path d="M132.24 68.4H129.2V71.44H132.24V68.4Z" fill="black"/>
<path d="M135.28 68.4H132.24V71.44H135.28V68.4Z" fill="black"/>
<path d="M138.32 68.4H135.28V71.44H138.32V68.4Z" fill="black"/>
<path d="M141.36 68.4H138.32V71.44H141.36V68.4Z" fill="black"/>
<path d="M150.48 68.4H147.44V71.44H150.48V68.4Z" fill="black"/>
<path d="M4.56 71.44H1.52V74.48H4.56V71.44Z" fill="black"/>
<path d="M7.6 71.44H4.56V74.48H7.6V71.44Z" fill="black"/>
<path d="M10.64 71.44H7.6V74.48H10.64V71.44Z" fill="black"/>
<path d="M16.72 71.44H13.68V74.48H16.72V71.44Z" fill="black"/>
<path d="M28.88 71.44H25.84V74.48H28.88V71.44Z" fill="black"/>
<path d="M31.92 71.44H28.88V74.48H31.92V71.44Z" fill="black"/>
<path d="M34.96 71.44H31.92V74.48H34.96V71.44Z" fill="black"/>
<path d="M38 71.44H34.96V74.48H38V71.44Z" fill="black"/>
<path d="M47.12 71.44H44.08V74.48H47.12V71.44Z" fill="black"/>
<path d="M53.2 71.44H50.16V74.48H53.2V71.44Z" fill="black"/>
<path d="M59.28 71.44H56.24V74.48H59.28V71.44Z" fill="black"/>
<path d="M62.32 71.44H59.28V74.48H62.32V71.44Z" fill="black"/>
<path d="M65.36 71.44H62.32V74.48H65.36V71.44Z" fill="black"/>
<path d="M71.44 71.44H68.4V74.48H71.44V71.44Z" fill="black"/>
<path d="M83.6 71.44H80.56V74.48H83.6V71.44Z" fill="black"/>
<path d="M86.64 71.44H83.6V74.48H86.64V71.44Z" fill="black"/>
<path d="M89.68 71.44H86.64V74.48H89.68V71.44Z" fill="black"/>
<path d="M110.96 71.44H107.92V74.48H110.96V71.44Z" fill="black"/>
<path d="M114 71.44H110.96V74.48H114V71.44Z" fill="black"/>
<path d="M123.12 71.44H120.08V74.48H123.12V71.44Z" fill="black"/>
<path d="M126.16 71.44H123.12V74.48H126.16V71.44Z" fill="black"/>
<path d="M138.32 71.44H135.28V74.48H138.32V71.44Z" fill="black"/>
<path d="M141.36 71.44H138.32V74.48H141.36V71.44Z" fill="black"/>
<path d="M150.48 71.44H147.44V74.48H150.48V71.44Z" fill="black"/>
<path d="M10.64 74.48H7.6V77.52H10.64V74.48Z" fill="black"/>
<path d="M16.72 74.48H13.68V77.52H16.72V74.48Z" fill="black"/>
<path d="M22.8 74.48H19.76V77.52H22.8V74.48Z" fill="black"/>
<path d="M28.88 74.48H25.84V77.52H28.88V74.48Z" fill="black"/>
<path d="M31.92 74.48H28.88V77.52H31.92V74.48Z" fill="black"/>
<path d="M50.16 74.48H47.12V77.52H50.16V74.48Z" fill="black"/>
<path d="M56.24 74.48H53.2V77.52H56.24V74.48Z" fill="black"/>
<path d="M59.28 74.48H56.24V77.52H59.28V74.48Z" fill="black"/>
<path d="M65.36 74.48H62.32V77.52H65.36V74.48Z" fill="black"/>
<path d="M71.44 74.48H68.4V77.52H71.44V74.48Z" fill="black"/>
<path d="M77.52 74.48H74.48V77.52H77.52V74.48Z" fill="black"/>
<path d="M83.6 74.48H80.56V77.52H83.6V74.48Z" fill="black"/>
<path d="M95.76 74.48H92.72V77.52H95.76V74.48Z" fill="black"/>
<path d="M104.88 74.48H101.84V77.52H104.88V74.48Z" fill="black"/>
<path d="M117.04 74.48H114V77.52H117.04V74.48Z" fill="black"/>
<path d="M126.16 74.48H123.12V77.52H126.16V74.48Z" fill="black"/>
<path d="M132.24 74.48H129.2V77.52H132.24V74.48Z" fill="black"/>
<path d="M138.32 74.48H135.28V77.52H138.32V74.48Z" fill="black"/>
<path d="M147.44 74.48H144.4V77.52H147.44V74.48Z" fill="black"/>
<path d="M4.56 77.52H1.52V80.56H4.56V77.52Z" fill="black"/>
<path d="M7.6 77.52H4.56V80.56H7.6V77.52Z" fill="black"/>
<path d="M13.68 77.52H10.64V80.56H13.68V77.52Z" fill="black"/>
<path d="M16.72 77.52H13.68V80.56H16.72V77.52Z" fill="black"/>
<path d="M28.88 77.52H25.84V80.56H28.88V77.52Z" fill="black"/>
<path d="M31.92 77.52H28.88V80.56H31.92V77.52Z" fill="black"/>
<path d="M47.12 77.52H44.08V80.56H47.12V77.52Z" fill="black"/>
<path d="M50.16 77.52H47.12V80.56H50.16V77.52Z" fill="black"/>
<path d="M53.2 77.52H50.16V80.56H53.2V77.52Z" fill="black"/>
<path d="M56.24 77.52H53.2V80.56H56.24V77.52Z" fill="black"/>
<path d="M59.28 77.52H56.24V80.56H59.28V77.52Z" fill="black"/>
<path d="M62.32 77.52H59.28V80.56H62.32V77.52Z" fill="black"/>
<path d="M71.44 77.52H68.4V80.56H71.44V77.52Z" fill="black"/>
<path d="M83.6 77.52H80.56V80.56H83.6V77.52Z" fill="black"/>
<path d="M101.84 77.52H98.8V80.56H101.84V77.52Z" fill="black"/>
<path d="M104.88 77.52H101.84V80.56H104.88V77.52Z" fill="black"/>
<path d="M107.92 77.52H104.88V80.56H107.92V77.52Z" fill="black"/>
<path d="M114 77.52H110.96V80.56H114V77.52Z" fill="black"/>
<path d="M117.04 77.52H114V80.56H117.04V77.52Z" fill="black"/>
<path d="M120.08 77.52H117.04V80.56H120.08V77.52Z" fill="black"/>
<path d="M126.16 77.52H123.12V80.56H126.16V77.52Z" fill="black"/>
<path d="M138.32 77.52H135.28V80.56H138.32V77.52Z" fill="black"/>
<path d="M141.36 77.52H138.32V80.56H141.36V77.52Z" fill="black"/>
<path d="M147.44 77.52H144.4V80.56H147.44V77.52Z" fill="black"/>
<path d="M4.56 80.56H1.52V83.6H4.56V80.56Z" fill="black"/>
<path d="M13.68 80.56H10.64V83.6H13.68V80.56Z" fill="black"/>
<path d="M16.72 80.56H13.68V83.6H16.72V80.56Z" fill="black"/>
<path d="M19.76 80.56H16.72V83.6H19.76V80.56Z" fill="black"/>
<path d="M22.8 80.56H19.76V83.6H22.8V80.56Z" fill="black"/>
<path d="M25.84 80.56H22.8V83.6H25.84V80.56Z" fill="black"/>
<path d="M28.88 80.56H25.84V83.6H28.88V80.56Z" fill="black"/>
<path d="M47.12 80.56H44.08V83.6H47.12V80.56Z" fill="black"/>
<path d="M50.16 80.56H47.12V83.6H50.16V80.56Z" fill="black"/>
<path d="M56.24 80.56H53.2V83.6H56.24V80.56Z" fill="black"/>
<path d="M62.32 80.56H59.28V83.6H62.32V80.56Z" fill="black"/>
<path d="M65.36 80.56H62.32V83.6H65.36V80.56Z" fill="black"/>
<path d="M71.44 80.56H68.4V83.6H71.44V80.56Z" fill="black"/>
<path d="M74.48 80.56H71.44V83.6H74.48V80.56Z" fill="black"/>
<path d="M77.52 80.56H74.48V83.6H77.52V80.56Z" fill="black"/>
<path d="M80.56 80.56H77.52V83.6H80.56V80.56Z" fill="black"/>
<path d="M83.6 80.56H80.56V83.6H83.6V80.56Z" fill="black"/>
<path d="M86.64 80.56H83.6V83.6H86.64V80.56Z" fill="black"/>
<path d="M89.68 80.56H86.64V83.6H89.68V80.56Z" fill="black"/>
<path d="M92.72 80.56H89.68V83.6H92.72V80.56Z" fill="black"/>
<path d="M95.76 80.56H92.72V83.6H95.76V80.56Z" fill="black"/>
<path d="M114 80.56H110.96V83.6H114V80.56Z" fill="black"/>
<path d="M117.04 80.56H114V83.6H117.04V80.56Z" fill="black"/>
<path d="M126.16 80.56H123.12V83.6H126.16V80.56Z" fill="black"/>
<path d="M129.2 80.56H126.16V83.6H129.2V80.56Z" fill="black"/>
<path d="M132.24 80.56H129.2V83.6H132.24V80.56Z" fill="black"/>
<path d="M135.28 80.56H132.24V83.6H135.28V80.56Z" fill="black"/>
<path d="M138.32 80.56H135.28V83.6H138.32V80.56Z" fill="black"/>
<path d="M147.44 80.56H144.4V83.6H147.44V80.56Z" fill="black"/>
<path d="M150.48 80.56H147.44V83.6H150.48V80.56Z" fill="black"/>
<path d="M4.56 83.6H1.52V86.64H4.56V83.6Z" fill="black"/>
<path d="M13.68 83.6H10.64V86.64H13.68V83.6Z" fill="black"/>
<path d="M19.76 83.6H16.72V86.64H19.76V83.6Z" fill="black"/>
<path d="M25.84 83.6H22.8V86.64H25.84V83.6Z" fill="black"/>
<path d="M28.88 83.6H25.84V86.64H28.88V83.6Z" fill="black"/>
<path d="M41.04 83.6H38V86.64H41.04V83.6Z" fill="black"/>
<path d="M44.08 83.6H41.04V86.64H44.08V83.6Z" fill="black"/>
<path d="M47.12 83.6H44.08V86.64H47.12V83.6Z" fill="black"/>
<path d="M50.16 83.6H47.12V86.64H50.16V83.6Z" fill="black"/>
<path d="M56.24 83.6H53.2V86.64H56.24V83.6Z" fill="black"/>
<path d="M59.28 83.6H56.24V86.64H59.28V83.6Z" fill="black"/>
<path d="M71.44 83.6H68.4V86.64H71.44V83.6Z" fill="black"/>
<path d="M74.48 83.6H71.44V86.64H74.48V83.6Z" fill="black"/>
<path d="M80.56 83.6H77.52V86.64H80.56V83.6Z" fill="black"/>
<path d="M83.6 83.6H80.56V86.64H83.6V83.6Z" fill="black"/>
<path d="M86.64 83.6H83.6V86.64H86.64V83.6Z" fill="black"/>
<path d="M95.76 83.6H92.72V86.64H95.76V83.6Z" fill="black"/>
<path d="M101.84 83.6H98.8V86.64H101.84V83.6Z" fill="black"/>
<path d="M104.88 83.6H101.84V86.64H104.88V83.6Z" fill="black"/>
<path d="M110.96 83.6H107.92V86.64H110.96V83.6Z" fill="black"/>
<path d="M114 83.6H110.96V86.64H114V83.6Z" fill="black"/>
<path d="M117.04 83.6H114V86.64H117.04V83.6Z" fill="black"/>
<path d="M126.16 83.6H123.12V86.64H126.16V83.6Z" fill="black"/>
<path d="M135.28 83.6H132.24V86.64H135.28V83.6Z" fill="black"/>
<path d="M150.48 83.6H147.44V86.64H150.48V83.6Z" fill="black"/>
<path d="M13.68 86.64H10.64V89.68H13.68V86.64Z" fill="black"/>
<path d="M16.72 86.64H13.68V89.68H16.72V86.64Z" fill="black"/>
<path d="M19.76 86.64H16.72V89.68H19.76V86.64Z" fill="black"/>
<path d="M22.8 86.64H19.76V89.68H22.8V86.64Z" fill="black"/>
<path d="M28.88 86.64H25.84V89.68H28.88V86.64Z" fill="black"/>
<path d="M34.96 86.64H31.92V89.68H34.96V86.64Z" fill="black"/>
<path d="M44.08 86.64H41.04V89.68H44.08V86.64Z" fill="black"/>
<path d="M47.12 86.64H44.08V89.68H47.12V86.64Z" fill="black"/>
<path d="M50.16 86.64H47.12V89.68H50.16V86.64Z" fill="black"/>
<path d="M56.24 86.64H53.2V89.68H56.24V86.64Z" fill="black"/>
<path d="M59.28 86.64H56.24V89.68H59.28V86.64Z" fill="black"/>
<path d="M65.36 86.64H62.32V89.68H65.36V86.64Z" fill="black"/>
<path d="M74.48 86.64H71.44V89.68H74.48V86.64Z" fill="black"/>
<path d="M80.56 86.64H77.52V89.68H80.56V86.64Z" fill="black"/>
<path d="M92.72 86.64H89.68V89.68H92.72V86.64Z" fill="black"/>
<path d="M98.8 86.64H95.76V89.68H98.8V86.64Z" fill="black"/>
<path d="M101.84 86.64H98.8V89.68H101.84V86.64Z" fill="black"/>
<path d="M132.24 86.64H129.2V89.68H132.24V86.64Z" fill="black"/>
<path d="M135.28 86.64H132.24V89.68H135.28V86.64Z" fill="black"/>
<path d="M141.36 86.64H138.32V89.68H141.36V86.64Z" fill="black"/>
<path d="M150.48 86.64H147.44V89.68H150.48V86.64Z" fill="black"/>
<path d="M4.56 89.68H1.52V92.72H4.56V89.68Z" fill="black"/>
<path d="M7.6 89.68H4.56V92.72H7.6V89.68Z" fill="black"/>
<path d="M16.72 89.68H13.68V92.72H16.72V89.68Z" fill="black"/>
<path d="M19.76 89.68H16.72V92.72H19.76V89.68Z" fill="black"/>
<path d="M25.84 89.68H22.8V92.72H25.84V89.68Z" fill="black"/>
<path d="M31.92 89.68H28.88V92.72H31.92V89.68Z" fill="black"/>
<path d="M34.96 89.68H31.92V92.72H34.96V89.68Z" fill="black"/>
<path d="M38 89.68H34.96V92.72H38V89.68Z" fill="black"/>
<path d="M50.16 89.68H47.12V92.72H50.16V89.68Z" fill="black"/>
<path d="M59.28 89.68H56.24V92.72H59.28V89.68Z" fill="black"/>
<path d="M68.4 89.68H65.36V92.72H68.4V89.68Z" fill="black"/>
<path d="M71.44 89.68H68.4V92.72H71.44V89.68Z" fill="black"/>
<path d="M83.6 89.68H80.56V92.72H83.6V89.68Z" fill="black"/>
<path d="M86.64 89.68H83.6V92.72H86.64V89.68Z" fill="black"/>
<path d="M101.84 89.68H98.8V92.72H101.84V89.68Z" fill="black"/>
<path d="M104.88 89.68H101.84V92.72H104.88V89.68Z" fill="black"/>
<path d="M114 89.68H110.96V92.72H114V89.68Z" fill="black"/>
<path d="M123.12 89.68H120.08V92.72H123.12V89.68Z" fill="black"/>
<path d="M132.24 89.68H129.2V92.72H132.24V89.68Z" fill="black"/>
<path d="M135.28 89.68H132.24V92.72H135.28V89.68Z" fill="black"/>
<path d="M138.32 89.68H135.28V92.72H138.32V89.68Z" fill="black"/>
<path d="M141.36 89.68H138.32V92.72H141.36V89.68Z" fill="black"/>
<path d="M150.48 89.68H147.44V92.72H150.48V89.68Z" fill="black"/>
<path d="M4.56 92.72H1.52V95.76H4.56V92.72Z" fill="black"/>
<path d="M7.6 92.72H4.56V95.76H7.6V92.72Z" fill="black"/>
<path d="M10.64 92.72H7.6V95.76H10.64V92.72Z" fill="black"/>
<path d="M16.72 92.72H13.68V95.76H16.72V92.72Z" fill="black"/>
<path d="M22.8 92.72H19.76V95.76H22.8V92.72Z" fill="black"/>
<path d="M28.88 92.72H25.84V95.76H28.88V92.72Z" fill="black"/>
<path d="M31.92 92.72H28.88V95.76H31.92V92.72Z" fill="black"/>
<path d="M34.96 92.72H31.92V95.76H34.96V92.72Z" fill="black"/>
<path d="M38 92.72H34.96V95.76H38V92.72Z" fill="black"/>
<path d="M41.04 92.72H38V95.76H41.04V92.72Z" fill="black"/>
<path d="M44.08 92.72H41.04V95.76H44.08V92.72Z" fill="black"/>
<path d="M47.12 92.72H44.08V95.76H47.12V92.72Z" fill="black"/>
<path d="M50.16 92.72H47.12V95.76H50.16V92.72Z" fill="black"/>
<path d="M53.2 92.72H50.16V95.76H53.2V92.72Z" fill="black"/>
<path d="M56.24 92.72H53.2V95.76H56.24V92.72Z" fill="black"/>
<path d="M59.28 92.72H56.24V95.76H59.28V92.72Z" fill="black"/>
<path d="M65.36 92.72H62.32V95.76H65.36V92.72Z" fill="black"/>
<path d="M71.44 92.72H68.4V95.76H71.44V92.72Z" fill="black"/>
<path d="M80.56 92.72H77.52V95.76H80.56V92.72Z" fill="black"/>
<path d="M89.68 92.72H86.64V95.76H89.68V92.72Z" fill="black"/>
<path d="M92.72 92.72H89.68V95.76H92.72V92.72Z" fill="black"/>
<path d="M95.76 92.72H92.72V95.76H95.76V92.72Z" fill="black"/>
<path d="M101.84 92.72H98.8V95.76H101.84V92.72Z" fill="black"/>
<path d="M104.88 92.72H101.84V95.76H104.88V92.72Z" fill="black"/>
<path d="M107.92 92.72H104.88V95.76H107.92V92.72Z" fill="black"/>
<path d="M110.96 92.72H107.92V95.76H110.96V92.72Z" fill="black"/>
<path d="M114 92.72H110.96V95.76H114V92.72Z" fill="black"/>
<path d="M123.12 92.72H120.08V95.76H123.12V92.72Z" fill="black"/>
<path d="M126.16 92.72H123.12V95.76H126.16V92.72Z" fill="black"/>
<path d="M132.24 92.72H129.2V95.76H132.24V92.72Z" fill="black"/>
<path d="M135.28 92.72H132.24V95.76H135.28V92.72Z" fill="black"/>
<path d="M147.44 92.72H144.4V95.76H147.44V92.72Z" fill="black"/>
<path d="M150.48 92.72H147.44V95.76H150.48V92.72Z" fill="black"/>
<path d="M4.56 95.76H1.52V98.8H4.56V95.76Z" fill="black"/>
<path d="M7.6 95.76H4.56V98.8H7.6V95.76Z" fill="black"/>
<path d="M13.68 95.76H10.64V98.8H13.68V95.76Z" fill="black"/>
<path d="M16.72 95.76H13.68V98.8H16.72V95.76Z" fill="black"/>
<path d="M28.88 95.76H25.84V98.8H28.88V95.76Z" fill="black"/>
<path d="M34.96 95.76H31.92V98.8H34.96V95.76Z" fill="black"/>
<path d="M38 95.76H34.96V98.8H38V95.76Z" fill="black"/>
<path d="M41.04 95.76H38V98.8H41.04V95.76Z" fill="black"/>
<path d="M44.08 95.76H41.04V98.8H44.08V95.76Z" fill="black"/>
<path d="M50.16 95.76H47.12V98.8H50.16V95.76Z" fill="black"/>
<path d="M59.28 95.76H56.24V98.8H59.28V95.76Z" fill="black"/>
<path d="M62.32 95.76H59.28V98.8H62.32V95.76Z" fill="black"/>
<path d="M74.48 95.76H71.44V98.8H74.48V95.76Z" fill="black"/>
<path d="M77.52 95.76H74.48V98.8H77.52V95.76Z" fill="black"/>
<path d="M80.56 95.76H77.52V98.8H80.56V95.76Z" fill="black"/>
<path d="M86.64 95.76H83.6V98.8H86.64V95.76Z" fill="black"/>
<path d="M92.72 95.76H89.68V98.8H92.72V95.76Z" fill="black"/>
<path d="M104.88 95.76H101.84V98.8H104.88V95.76Z" fill="black"/>
<path d="M117.04 95.76H114V98.8H117.04V95.76Z" fill="black"/>
<path d="M129.2 95.76H126.16V98.8H129.2V95.76Z" fill="black"/>
<path d="M132.24 95.76H129.2V98.8H132.24V95.76Z" fill="black"/>
<path d="M147.44 95.76H144.4V98.8H147.44V95.76Z" fill="black"/>
<path d="M150.48 95.76H147.44V98.8H150.48V95.76Z" fill="black"/>
<path d="M4.56 98.8H1.52V101.84H4.56V98.8Z" fill="black"/>
<path d="M13.68 98.8H10.64V101.84H13.68V98.8Z" fill="black"/>
<path d="M22.8 98.8H19.76V101.84H22.8V98.8Z" fill="black"/>
<path d="M38 98.8H34.96V101.84H38V98.8Z" fill="black"/>
<path d="M41.04 98.8H38V101.84H41.04V98.8Z" fill="black"/>
<path d="M44.08 98.8H41.04V101.84H44.08V98.8Z" fill="black"/>
<path d="M50.16 98.8H47.12V101.84H50.16V98.8Z" fill="black"/>
<path d="M59.28 98.8H56.24V101.84H59.28V98.8Z" fill="black"/>
<path d="M62.32 98.8H59.28V101.84H62.32V98.8Z" fill="black"/>
<path d="M65.36 98.8H62.32V101.84H65.36V98.8Z" fill="black"/>
<path d="M68.4 98.8H65.36V101.84H68.4V98.8Z" fill="black"/>
<path d="M71.44 98.8H68.4V101.84H71.44V98.8Z" fill="black"/>
<path d="M74.48 98.8H71.44V101.84H74.48V98.8Z" fill="black"/>
<path d="M86.64 98.8H83.6V101.84H86.64V98.8Z" fill="black"/>
<path d="M89.68 98.8H86.64V101.84H89.68V98.8Z" fill="black"/>
<path d="M92.72 98.8H89.68V101.84H92.72V98.8Z" fill="black"/>
<path d="M98.8 98.8H95.76V101.84H98.8V98.8Z" fill="black"/>
<path d="M101.84 98.8H98.8V101.84H101.84V98.8Z" fill="black"/>
<path d="M104.88 98.8H101.84V101.84H104.88V98.8Z" fill="black"/>
<path d="M123.12 98.8H120.08V101.84H123.12V98.8Z" fill="black"/>
<path d="M132.24 98.8H129.2V101.84H132.24V98.8Z" fill="black"/>
<path d="M135.28 98.8H132.24V101.84H135.28V98.8Z" fill="black"/>
<path d="M150.48 98.8H147.44V101.84H150.48V98.8Z" fill="black"/>
<path d="M4.56 101.84H1.52V104.88H4.56V101.84Z" fill="black"/>
<path d="M7.6 101.84H4.56V104.88H7.6V101.84Z" fill="black"/>
<path d="M16.72 101.84H13.68V104.88H16.72V101.84Z" fill="black"/>
<path d="M28.88 101.84H25.84V104.88H28.88V101.84Z" fill="black"/>
<path d="M31.92 101.84H28.88V104.88H31.92V101.84Z" fill="black"/>
<path d="M38 101.84H34.96V104.88H38V101.84Z" fill="black"/>
<path d="M44.08 101.84H41.04V104.88H44.08V101.84Z" fill="black"/>
<path d="M50.16 101.84H47.12V104.88H50.16V101.84Z" fill="black"/>
<path d="M56.24 101.84H53.2V104.88H56.24V101.84Z" fill="black"/>
<path d="M80.56 101.84H77.52V104.88H80.56V101.84Z" fill="black"/>
<path d="M83.6 101.84H80.56V104.88H83.6V101.84Z" fill="black"/>
<path d="M95.76 101.84H92.72V104.88H95.76V101.84Z" fill="black"/>
<path d="M104.88 101.84H101.84V104.88H104.88V101.84Z" fill="black"/>
<path d="M107.92 101.84H104.88V104.88H107.92V101.84Z" fill="black"/>
<path d="M114 101.84H110.96V104.88H114V101.84Z" fill="black"/>
<path d="M117.04 101.84H114V104.88H117.04V101.84Z" fill="black"/>
<path d="M123.12 101.84H120.08V104.88H123.12V101.84Z" fill="black"/>
<path d="M126.16 101.84H123.12V104.88H126.16V101.84Z" fill="black"/>
<path d="M132.24 101.84H129.2V104.88H132.24V101.84Z" fill="black"/>
<path d="M135.28 101.84H132.24V104.88H135.28V101.84Z" fill="black"/>
<path d="M141.36 101.84H138.32V104.88H141.36V101.84Z" fill="black"/>
<path d="M147.44 101.84H144.4V104.88H147.44V101.84Z" fill="black"/>
<path d="M4.56 104.88H1.52V107.92H4.56V104.88Z" fill="black"/>
<path d="M13.68 104.88H10.64V107.92H13.68V104.88Z" fill="black"/>
<path d="M16.72 104.88H13.68V107.92H16.72V104.88Z" fill="black"/>
<path d="M22.8 104.88H19.76V107.92H22.8V104.88Z" fill="black"/>
<path d="M28.88 104.88H25.84V107.92H28.88V104.88Z" fill="black"/>
<path d="M44.08 104.88H41.04V107.92H44.08V104.88Z" fill="black"/>
<path d="M47.12 104.88H44.08V107.92H47.12V104.88Z" fill="black"/>
<path d="M50.16 104.88H47.12V107.92H50.16V104.88Z" fill="black"/>
<path d="M56.24 104.88H53.2V107.92H56.24V104.88Z" fill="black"/>
<path d="M65.36 104.88H62.32V107.92H65.36V104.88Z" fill="black"/>
<path d="M77.52 104.88H74.48V107.92H77.52V104.88Z" fill="black"/>
<path d="M83.6 104.88H80.56V107.92H83.6V104.88Z" fill="black"/>
<path d="M92.72 104.88H89.68V107.92H92.72V104.88Z" fill="black"/>
<path d="M98.8 104.88H95.76V107.92H98.8V104.88Z" fill="black"/>
<path d="M101.84 104.88H98.8V107.92H101.84V104.88Z" fill="black"/>
<path d="M104.88 104.88H101.84V107.92H104.88V104.88Z" fill="black"/>
<path d="M114 104.88H110.96V107.92H114V104.88Z" fill="black"/>
<path d="M120.08 104.88H117.04V107.92H120.08V104.88Z" fill="black"/>
<path d="M123.12 104.88H120.08V107.92H123.12V104.88Z" fill="black"/>
<path d="M126.16 104.88H123.12V107.92H126.16V104.88Z" fill="black"/>
<path d="M129.2 104.88H126.16V107.92H129.2V104.88Z" fill="black"/>
<path d="M132.24 104.88H129.2V107.92H132.24V104.88Z" fill="black"/>
<path d="M141.36 104.88H138.32V107.92H141.36V104.88Z" fill="black"/>
<path d="M147.44 104.88H144.4V107.92H147.44V104.88Z" fill="black"/>
<path d="M4.56 107.92H1.52V110.96H4.56V107.92Z" fill="black"/>
<path d="M13.68 107.92H10.64V110.96H13.68V107.92Z" fill="black"/>
<path d="M19.76 107.92H16.72V110.96H19.76V107.92Z" fill="black"/>
<path d="M28.88 107.92H25.84V110.96H28.88V107.92Z" fill="black"/>
<path d="M31.92 107.92H28.88V110.96H31.92V107.92Z" fill="black"/>
<path d="M38 107.92H34.96V110.96H38V107.92Z" fill="black"/>
<path d="M44.08 107.92H41.04V110.96H44.08V107.92Z" fill="black"/>
<path d="M56.24 107.92H53.2V110.96H56.24V107.92Z" fill="black"/>
<path d="M59.28 107.92H56.24V110.96H59.28V107.92Z" fill="black"/>
<path d="M71.44 107.92H68.4V110.96H71.44V107.92Z" fill="black"/>
<path d="M74.48 107.92H71.44V110.96H74.48V107.92Z" fill="black"/>
<path d="M77.52 107.92H74.48V110.96H77.52V107.92Z" fill="black"/>
<path d="M80.56 107.92H77.52V110.96H80.56V107.92Z" fill="black"/>
<path d="M86.64 107.92H83.6V110.96H86.64V107.92Z" fill="black"/>
<path d="M92.72 107.92H89.68V110.96H92.72V107.92Z" fill="black"/>
<path d="M95.76 107.92H92.72V110.96H95.76V107.92Z" fill="black"/>
<path d="M98.8 107.92H95.76V110.96H98.8V107.92Z" fill="black"/>
<path d="M104.88 107.92H101.84V110.96H104.88V107.92Z" fill="black"/>
<path d="M110.96 107.92H107.92V110.96H110.96V107.92Z" fill="black"/>
<path d="M114 107.92H110.96V110.96H114V107.92Z" fill="black"/>
<path d="M117.04 107.92H114V110.96H117.04V107.92Z" fill="black"/>
<path d="M126.16 107.92H123.12V110.96H126.16V107.92Z" fill="black"/>
<path d="M129.2 107.92H126.16V110.96H129.2V107.92Z" fill="black"/>
<path d="M135.28 107.92H132.24V110.96H135.28V107.92Z" fill="black"/>
<path d="M141.36 107.92H138.32V110.96H141.36V107.92Z" fill="black"/>
<path d="M144.4 107.92H141.36V110.96H144.4V107.92Z" fill="black"/>
<path d="M150.48 107.92H147.44V110.96H150.48V107.92Z" fill="black"/>
<path d="M10.64 110.96H7.6V114H10.64V110.96Z" fill="black"/>
<path d="M13.68 110.96H10.64V114H13.68V110.96Z" fill="black"/>
<path d="M16.72 110.96H13.68V114H16.72V110.96Z" fill="black"/>
<path d="M19.76 110.96H16.72V114H19.76V110.96Z" fill="black"/>
<path d="M22.8 110.96H19.76V114H22.8V110.96Z" fill="black"/>
<path d="M31.92 110.96H28.88V114H31.92V110.96Z" fill="black"/>
<path d="M34.96 110.96H31.92V114H34.96V110.96Z" fill="black"/>
<path d="M41.04 110.96H38V114H41.04V110.96Z" fill="black"/>
<path d="M47.12 110.96H44.08V114H47.12V110.96Z" fill="black"/>
<path d="M59.28 110.96H56.24V114H59.28V110.96Z" fill="black"/>
<path d="M65.36 110.96H62.32V114H65.36V110.96Z" fill="black"/>
<path d="M68.4 110.96H65.36V114H68.4V110.96Z" fill="black"/>
<path d="M71.44 110.96H68.4V114H71.44V110.96Z" fill="black"/>
<path d="M77.52 110.96H74.48V114H77.52V110.96Z" fill="black"/>
<path d="M80.56 110.96H77.52V114H80.56V110.96Z" fill="black"/>
<path d="M83.6 110.96H80.56V114H83.6V110.96Z" fill="black"/>
<path d="M95.76 110.96H92.72V114H95.76V110.96Z" fill="black"/>
<path d="M101.84 110.96H98.8V114H101.84V110.96Z" fill="black"/>
<path d="M104.88 110.96H101.84V114H104.88V110.96Z" fill="black"/>
<path d="M117.04 110.96H114V114H117.04V110.96Z" fill="black"/>
<path d="M126.16 110.96H123.12V114H126.16V110.96Z" fill="black"/>
<path d="M132.24 110.96H129.2V114H132.24V110.96Z" fill="black"/>
<path d="M141.36 110.96H138.32V114H141.36V110.96Z" fill="black"/>
<path d="M150.48 110.96H147.44V114H150.48V110.96Z" fill="black"/>
<path d="M4.56 114H1.52V117.04H4.56V114Z" fill="black"/>
<path d="M16.72 114H13.68V117.04H16.72V114Z" fill="black"/>
<path d="M19.76 114H16.72V117.04H19.76V114Z" fill="black"/>
<path d="M25.84 114H22.8V117.04H25.84V114Z" fill="black"/>
<path d="M28.88 114H25.84V117.04H28.88V114Z" fill="black"/>
<path d="M38 114H34.96V117.04H38V114Z" fill="black"/>
<path d="M41.04 114H38V117.04H41.04V114Z" fill="black"/>
<path d="M53.2 114H50.16V117.04H53.2V114Z" fill="black"/>
<path d="M56.24 114H53.2V117.04H56.24V114Z" fill="black"/>
<path d="M62.32 114H59.28V117.04H62.32V114Z" fill="black"/>
<path d="M86.64 114H83.6V117.04H86.64V114Z" fill="black"/>
<path d="M89.68 114H86.64V117.04H89.68V114Z" fill="black"/>
<path d="M92.72 114H89.68V117.04H92.72V114Z" fill="black"/>
<path d="M95.76 114H92.72V117.04H95.76V114Z" fill="black"/>
<path d="M101.84 114H98.8V117.04H101.84V114Z" fill="black"/>
<path d="M104.88 114H101.84V117.04H104.88V114Z" fill="black"/>
<path d="M107.92 114H104.88V117.04H107.92V114Z" fill="black"/>
<path d="M114 114H110.96V117.04H114V114Z" fill="black"/>
<path d="M117.04 114H114V117.04H117.04V114Z" fill="black"/>
<path d="M120.08 114H117.04V117.04H120.08V114Z" fill="black"/>
<path d="M123.12 114H120.08V117.04H123.12V114Z" fill="black"/>
<path d="M126.16 114H123.12V117.04H126.16V114Z" fill="black"/>
<path d="M132.24 114H129.2V117.04H132.24V114Z" fill="black"/>
<path d="M135.28 114H132.24V117.04H135.28V114Z" fill="black"/>
<path d="M138.32 114H135.28V117.04H138.32V114Z" fill="black"/>
<path d="M141.36 114H138.32V117.04H141.36V114Z" fill="black"/>
<path d="M7.6 117.04H4.56V120.08H7.6V117.04Z" fill="black"/>
<path d="M19.76 117.04H16.72V120.08H19.76V117.04Z" fill="black"/>
<path d="M22.8 117.04H19.76V120.08H22.8V117.04Z" fill="black"/>
<path d="M25.84 117.04H22.8V120.08H25.84V117.04Z" fill="black"/>
<path d="M34.96 117.04H31.92V120.08H34.96V117.04Z" fill="black"/>
<path d="M44.08 117.04H41.04V120.08H44.08V117.04Z" fill="black"/>
<path d="M50.16 117.04H47.12V120.08H50.16V117.04Z" fill="black"/>
<path d="M53.2 117.04H50.16V120.08H53.2V117.04Z" fill="black"/>
<path d="M62.32 117.04H59.28V120.08H62.32V117.04Z" fill="black"/>
<path d="M68.4 117.04H65.36V120.08H68.4V117.04Z" fill="black"/>
<path d="M71.44 117.04H68.4V120.08H71.44V117.04Z" fill="black"/>
<path d="M74.48 117.04H71.44V120.08H74.48V117.04Z" fill="black"/>
<path d="M92.72 117.04H89.68V120.08H92.72V117.04Z" fill="black"/>
<path d="M101.84 117.04H98.8V120.08H101.84V117.04Z" fill="black"/>
<path d="M104.88 117.04H101.84V120.08H104.88V117.04Z" fill="black"/>
<path d="M107.92 117.04H104.88V120.08H107.92V117.04Z" fill="black"/>
<path d="M114 117.04H110.96V120.08H114V117.04Z" fill="black"/>
<path d="M120.08 117.04H117.04V120.08H120.08V117.04Z" fill="black"/>
<path d="M123.12 117.04H120.08V120.08H123.12V117.04Z" fill="black"/>
<path d="M126.16 117.04H123.12V120.08H126.16V117.04Z" fill="black"/>
<path d="M132.24 117.04H129.2V120.08H132.24V117.04Z" fill="black"/>
<path d="M141.36 117.04H138.32V120.08H141.36V117.04Z" fill="black"/>
<path d="M150.48 117.04H147.44V120.08H150.48V117.04Z" fill="black"/>
<path d="M7.6 120.08H4.56V123.12H7.6V120.08Z" fill="black"/>
<path d="M10.64 120.08H7.6V123.12H10.64V120.08Z" fill="black"/>
<path d="M13.68 120.08H10.64V123.12H13.68V120.08Z" fill="black"/>
<path d="M31.92 120.08H28.88V123.12H31.92V120.08Z" fill="black"/>
<path d="M41.04 120.08H38V123.12H41.04V120.08Z" fill="black"/>
<path d="M47.12 120.08H44.08V123.12H47.12V120.08Z" fill="black"/>
<path d="M53.2 120.08H50.16V123.12H53.2V120.08Z" fill="black"/>
<path d="M59.28 120.08H56.24V123.12H59.28V120.08Z" fill="black"/>
<path d="M65.36 120.08H62.32V123.12H65.36V120.08Z" fill="black"/>
<path d="M68.4 120.08H65.36V123.12H68.4V120.08Z" fill="black"/>
<path d="M71.44 120.08H68.4V123.12H71.44V120.08Z" fill="black"/>
<path d="M74.48 120.08H71.44V123.12H74.48V120.08Z" fill="black"/>
<path d="M77.52 120.08H74.48V123.12H77.52V120.08Z" fill="black"/>
<path d="M80.56 120.08H77.52V123.12H80.56V120.08Z" fill="black"/>
<path d="M86.64 120.08H83.6V123.12H86.64V120.08Z" fill="black"/>
<path d="M92.72 120.08H89.68V123.12H92.72V120.08Z" fill="black"/>
<path d="M95.76 120.08H92.72V123.12H95.76V120.08Z" fill="black"/>
<path d="M104.88 120.08H101.84V123.12H104.88V120.08Z" fill="black"/>
<path d="M114 120.08H110.96V123.12H114V120.08Z" fill="black"/>
<path d="M117.04 120.08H114V123.12H117.04V120.08Z" fill="black"/>
<path d="M144.4 120.08H141.36V123.12H144.4V120.08Z" fill="black"/>
<path d="M147.44 120.08H144.4V123.12H147.44V120.08Z" fill="black"/>
<path d="M150.48 120.08H147.44V123.12H150.48V120.08Z" fill="black"/>
<path d="M4.56 123.12H1.52V126.16H4.56V123.12Z" fill="black"/>
<path d="M7.6 123.12H4.56V126.16H7.6V123.12Z" fill="black"/>
<path d="M10.64 123.12H7.6V126.16H10.64V123.12Z" fill="black"/>
<path d="M22.8 123.12H19.76V126.16H22.8V123.12Z" fill="black"/>
<path d="M31.92 123.12H28.88V126.16H31.92V123.12Z" fill="black"/>
<path d="M34.96 123.12H31.92V126.16H34.96V123.12Z" fill="black"/>
<path d="M41.04 123.12H38V126.16H41.04V123.12Z" fill="black"/>
<path d="M44.08 123.12H41.04V126.16H44.08V123.12Z" fill="black"/>
<path d="M47.12 123.12H44.08V126.16H47.12V123.12Z" fill="black"/>
<path d="M53.2 123.12H50.16V126.16H53.2V123.12Z" fill="black"/>
<path d="M56.24 123.12H53.2V126.16H56.24V123.12Z" fill="black"/>
<path d="M65.36 123.12H62.32V126.16H65.36V123.12Z" fill="black"/>
<path d="M71.44 123.12H68.4V126.16H71.44V123.12Z" fill="black"/>
<path d="M74.48 123.12H71.44V126.16H74.48V123.12Z" fill="black"/>
<path d="M77.52 123.12H74.48V126.16H77.52V123.12Z" fill="black"/>
<path d="M80.56 123.12H77.52V126.16H80.56V123.12Z" fill="black"/>
<path d="M83.6 123.12H80.56V126.16H83.6V123.12Z" fill="black"/>
<path d="M92.72 123.12H89.68V126.16H92.72V123.12Z" fill="black"/>
<path d="M101.84 123.12H98.8V126.16H101.84V123.12Z" fill="black"/>
<path d="M117.04 123.12H114V126.16H117.04V123.12Z" fill="black"/>
<path d="M123.12 123.12H120.08V126.16H123.12V123.12Z" fill="black"/>
<path d="M126.16 123.12H123.12V126.16H126.16V123.12Z" fill="black"/>
<path d="M129.2 123.12H126.16V126.16H129.2V123.12Z" fill="black"/>
<path d="M132.24 123.12H129.2V126.16H132.24V123.12Z" fill="black"/>
<path d="M135.28 123.12H132.24V126.16H135.28V123.12Z" fill="black"/>
<path d="M138.32 123.12H135.28V126.16H138.32V123.12Z" fill="black"/>
<path d="M150.48 123.12H147.44V126.16H150.48V123.12Z" fill="black"/>
<path d="M28.88 126.16H25.84V129.2H28.88V126.16Z" fill="black"/>
<path d="M34.96 126.16H31.92V129.2H34.96V126.16Z" fill="black"/>
<path d="M38 126.16H34.96V129.2H38V126.16Z" fill="black"/>
<path d="M44.08 126.16H41.04V129.2H44.08V126.16Z" fill="black"/>
<path d="M62.32 126.16H59.28V129.2H62.32V126.16Z" fill="black"/>
<path d="M68.4 126.16H65.36V129.2H68.4V126.16Z" fill="black"/>
<path d="M71.44 126.16H68.4V129.2H71.44V126.16Z" fill="black"/>
<path d="M83.6 126.16H80.56V129.2H83.6V126.16Z" fill="black"/>
<path d="M86.64 126.16H83.6V129.2H86.64V126.16Z" fill="black"/>
<path d="M95.76 126.16H92.72V129.2H95.76V126.16Z" fill="black"/>
<path d="M98.8 126.16H95.76V129.2H98.8V126.16Z" fill="black"/>
<path d="M101.84 126.16H98.8V129.2H101.84V126.16Z" fill="black"/>
<path d="M104.88 126.16H101.84V129.2H104.88V126.16Z" fill="black"/>
<path d="M114 126.16H110.96V129.2H114V126.16Z" fill="black"/>
<path d="M120.08 126.16H117.04V129.2H120.08V126.16Z" fill="black"/>
<path d="M123.12 126.16H120.08V129.2H123.12V126.16Z" fill="black"/>
<path d="M126.16 126.16H123.12V129.2H126.16V126.16Z" fill="black"/>
<path d="M138.32 126.16H135.28V129.2H138.32V126.16Z" fill="black"/>
<path d="M141.36 126.16H138.32V129.2H141.36V126.16Z" fill="black"/>
<path d="M147.44 126.16H144.4V129.2H147.44V126.16Z" fill="black"/>
<path d="M4.56 129.2H1.52V132.24H4.56V129.2Z" fill="black"/>
<path d="M7.6 129.2H4.56V132.24H7.6V129.2Z" fill="black"/>
<path d="M10.64 129.2H7.6V132.24H10.64V129.2Z" fill="black"/>
<path d="M13.68 129.2H10.64V132.24H13.68V129.2Z" fill="black"/>
<path d="M16.72 129.2H13.68V132.24H16.72V129.2Z" fill="black"/>
<path d="M19.76 129.2H16.72V132.24H19.76V129.2Z" fill="black"/>
<path d="M22.8 129.2H19.76V132.24H22.8V129.2Z" fill="black"/>
<path d="M28.88 129.2H25.84V132.24H28.88V129.2Z" fill="black"/>
<path d="M34.96 129.2H31.92V132.24H34.96V129.2Z" fill="black"/>
<path d="M41.04 129.2H38V132.24H41.04V129.2Z" fill="black"/>
<path d="M47.12 129.2H44.08V132.24H47.12V129.2Z" fill="black"/>
<path d="M53.2 129.2H50.16V132.24H53.2V129.2Z" fill="black"/>
<path d="M56.24 129.2H53.2V132.24H56.24V129.2Z" fill="black"/>
<path d="M62.32 129.2H59.28V132.24H62.32V129.2Z" fill="black"/>
<path d="M65.36 129.2H62.32V132.24H65.36V129.2Z" fill="black"/>
<path d="M71.44 129.2H68.4V132.24H71.44V129.2Z" fill="black"/>
<path d="M77.52 129.2H74.48V132.24H77.52V129.2Z" fill="black"/>
<path d="M83.6 129.2H80.56V132.24H83.6V129.2Z" fill="black"/>
<path d="M86.64 129.2H83.6V132.24H86.64V129.2Z" fill="black"/>
<path d="M101.84 129.2H98.8V132.24H101.84V129.2Z" fill="black"/>
<path d="M107.92 129.2H104.88V132.24H107.92V129.2Z" fill="black"/>
<path d="M110.96 129.2H107.92V132.24H110.96V129.2Z" fill="black"/>
<path d="M114 129.2H110.96V132.24H114V129.2Z" fill="black"/>
<path d="M117.04 129.2H114V132.24H117.04V129.2Z" fill="black"/>
<path d="M120.08 129.2H117.04V132.24H120.08V129.2Z" fill="black"/>
<path d="M126.16 129.2H123.12V132.24H126.16V129.2Z" fill="black"/>
<path d="M132.24 129.2H129.2V132.24H132.24V129.2Z" fill="black"/>
<path d="M138.32 129.2H135.28V132.24H138.32V129.2Z" fill="black"/>
<path d="M141.36 129.2H138.32V132.24H141.36V129.2Z" fill="black"/>
<path d="M147.44 129.2H144.4V132.24H147.44V129.2Z" fill="black"/>
<path d="M4.56 132.24H1.52V135.28H4.56V132.24Z" fill="black"/>
<path d="M22.8 132.24H19.76V135.28H22.8V132.24Z" fill="black"/>
<path d="M28.88 132.24H25.84V135.28H28.88V132.24Z" fill="black"/>
<path d="M34.96 132.24H31.92V135.28H34.96V132.24Z" fill="black"/>
<path d="M41.04 132.24H38V135.28H41.04V132.24Z" fill="black"/>
<path d="M44.08 132.24H41.04V135.28H44.08V132.24Z" fill="black"/>
<path d="M47.12 132.24H44.08V135.28H47.12V132.24Z" fill="black"/>
<path d="M53.2 132.24H50.16V135.28H53.2V132.24Z" fill="black"/>
<path d="M56.24 132.24H53.2V135.28H56.24V132.24Z" fill="black"/>
<path d="M65.36 132.24H62.32V135.28H65.36V132.24Z" fill="black"/>
<path d="M71.44 132.24H68.4V135.28H71.44V132.24Z" fill="black"/>
<path d="M83.6 132.24H80.56V135.28H83.6V132.24Z" fill="black"/>
<path d="M86.64 132.24H83.6V135.28H86.64V132.24Z" fill="black"/>
<path d="M89.68 132.24H86.64V135.28H89.68V132.24Z" fill="black"/>
<path d="M92.72 132.24H89.68V135.28H92.72V132.24Z" fill="black"/>
<path d="M95.76 132.24H92.72V135.28H95.76V132.24Z" fill="black"/>
<path d="M98.8 132.24H95.76V135.28H98.8V132.24Z" fill="black"/>
<path d="M104.88 132.24H101.84V135.28H104.88V132.24Z" fill="black"/>
<path d="M110.96 132.24H107.92V135.28H110.96V132.24Z" fill="black"/>
<path d="M114 132.24H110.96V135.28H114V132.24Z" fill="black"/>
<path d="M123.12 132.24H120.08V135.28H123.12V132.24Z" fill="black"/>
<path d="M126.16 132.24H123.12V135.28H126.16V132.24Z" fill="black"/>
<path d="M138.32 132.24H135.28V135.28H138.32V132.24Z" fill="black"/>
<path d="M144.4 132.24H141.36V135.28H144.4V132.24Z" fill="black"/>
<path d="M147.44 132.24H144.4V135.28H147.44V132.24Z" fill="black"/>
<path d="M150.48 132.24H147.44V135.28H150.48V132.24Z" fill="black"/>
<path d="M4.56 135.28H1.52V138.32H4.56V135.28Z" fill="black"/>
<path d="M10.64 135.28H7.6V138.32H10.64V135.28Z" fill="black"/>
<path d="M13.68 135.28H10.64V138.32H13.68V135.28Z" fill="black"/>
<path d="M16.72 135.28H13.68V138.32H16.72V135.28Z" fill="black"/>
<path d="M22.8 135.28H19.76V138.32H22.8V135.28Z" fill="black"/>
<path d="M31.92 135.28H28.88V138.32H31.92V135.28Z" fill="black"/>
<path d="M41.04 135.28H38V138.32H41.04V135.28Z" fill="black"/>
<path d="M44.08 135.28H41.04V138.32H44.08V135.28Z" fill="black"/>
<path d="M47.12 135.28H44.08V138.32H47.12V135.28Z" fill="black"/>
<path d="M50.16 135.28H47.12V138.32H50.16V135.28Z" fill="black"/>
<path d="M56.24 135.28H53.2V138.32H56.24V135.28Z" fill="black"/>
<path d="M71.44 135.28H68.4V138.32H71.44V135.28Z" fill="black"/>
<path d="M74.48 135.28H71.44V138.32H74.48V135.28Z" fill="black"/>
<path d="M77.52 135.28H74.48V138.32H77.52V135.28Z" fill="black"/>
<path d="M80.56 135.28H77.52V138.32H80.56V135.28Z" fill="black"/>
<path d="M83.6 135.28H80.56V138.32H83.6V135.28Z" fill="black"/>
<path d="M89.68 135.28H86.64V138.32H89.68V135.28Z" fill="black"/>
<path d="M92.72 135.28H89.68V138.32H92.72V135.28Z" fill="black"/>
<path d="M98.8 135.28H95.76V138.32H98.8V135.28Z" fill="black"/>
<path d="M101.84 135.28H98.8V138.32H101.84V135.28Z" fill="black"/>
<path d="M104.88 135.28H101.84V138.32H104.88V135.28Z" fill="black"/>
<path d="M117.04 135.28H114V138.32H117.04V135.28Z" fill="black"/>
<path d="M123.12 135.28H120.08V138.32H123.12V135.28Z" fill="black"/>
<path d="M126.16 135.28H123.12V138.32H126.16V135.28Z" fill="black"/>
<path d="M129.2 135.28H126.16V138.32H129.2V135.28Z" fill="black"/>
<path d="M132.24 135.28H129.2V138.32H132.24V135.28Z" fill="black"/>
<path d="M135.28 135.28H132.24V138.32H135.28V135.28Z" fill="black"/>
<path d="M138.32 135.28H135.28V138.32H138.32V135.28Z" fill="black"/>
<path d="M141.36 135.28H138.32V138.32H141.36V135.28Z" fill="black"/>
<path d="M144.4 135.28H141.36V138.32H144.4V135.28Z" fill="black"/>
<path d="M150.48 135.28H147.44V138.32H150.48V135.28Z" fill="black"/>
<path d="M4.56 138.32H1.52V141.36H4.56V138.32Z" fill="black"/>
<path d="M10.64 138.32H7.6V141.36H10.64V138.32Z" fill="black"/>
<path d="M13.68 138.32H10.64V141.36H13.68V138.32Z" fill="black"/>
<path d="M16.72 138.32H13.68V141.36H16.72V138.32Z" fill="black"/>
<path d="M22.8 138.32H19.76V141.36H22.8V138.32Z" fill="black"/>
<path d="M34.96 138.32H31.92V141.36H34.96V138.32Z" fill="black"/>
<path d="M38 138.32H34.96V141.36H38V138.32Z" fill="black"/>
<path d="M41.04 138.32H38V141.36H41.04V138.32Z" fill="black"/>
<path d="M44.08 138.32H41.04V141.36H44.08V138.32Z" fill="black"/>
<path d="M47.12 138.32H44.08V141.36H47.12V138.32Z" fill="black"/>
<path d="M56.24 138.32H53.2V141.36H56.24V138.32Z" fill="black"/>
<path d="M59.28 138.32H56.24V141.36H59.28V138.32Z" fill="black"/>
<path d="M62.32 138.32H59.28V141.36H62.32V138.32Z" fill="black"/>
<path d="M65.36 138.32H62.32V141.36H65.36V138.32Z" fill="black"/>
<path d="M71.44 138.32H68.4V141.36H71.44V138.32Z" fill="black"/>
<path d="M74.48 138.32H71.44V141.36H74.48V138.32Z" fill="black"/>
<path d="M77.52 138.32H74.48V141.36H77.52V138.32Z" fill="black"/>
<path d="M83.6 138.32H80.56V141.36H83.6V138.32Z" fill="black"/>
<path d="M86.64 138.32H83.6V141.36H86.64V138.32Z" fill="black"/>
<path d="M101.84 138.32H98.8V141.36H101.84V138.32Z" fill="black"/>
<path d="M114 138.32H110.96V141.36H114V138.32Z" fill="black"/>
<path d="M117.04 138.32H114V141.36H117.04V138.32Z" fill="black"/>
<path d="M120.08 138.32H117.04V141.36H120.08V138.32Z" fill="black"/>
<path d="M126.16 138.32H123.12V141.36H126.16V138.32Z" fill="black"/>
<path d="M129.2 138.32H126.16V141.36H129.2V138.32Z" fill="black"/>
<path d="M135.28 138.32H132.24V141.36H135.28V138.32Z" fill="black"/>
<path d="M141.36 138.32H138.32V141.36H141.36V138.32Z" fill="black"/>
<path d="M147.44 138.32H144.4V141.36H147.44V138.32Z" fill="black"/>
<path d="M4.56 141.36H1.52V144.4H4.56V141.36Z" fill="black"/>
<path d="M10.64 141.36H7.6V144.4H10.64V141.36Z" fill="black"/>
<path d="M13.68 141.36H10.64V144.4H13.68V141.36Z" fill="black"/>
<path d="M16.72 141.36H13.68V144.4H16.72V141.36Z" fill="black"/>
<path d="M22.8 141.36H19.76V144.4H22.8V141.36Z" fill="black"/>
<path d="M28.88 141.36H25.84V144.4H28.88V141.36Z" fill="black"/>
<path d="M31.92 141.36H28.88V144.4H31.92V141.36Z" fill="black"/>
<path d="M34.96 141.36H31.92V144.4H34.96V141.36Z" fill="black"/>
<path d="M38 141.36H34.96V144.4H38V141.36Z" fill="black"/>
<path d="M41.04 141.36H38V144.4H41.04V141.36Z" fill="black"/>
<path d="M50.16 141.36H47.12V144.4H50.16V141.36Z" fill="black"/>
<path d="M68.4 141.36H65.36V144.4H68.4V141.36Z" fill="black"/>
<path d="M71.44 141.36H68.4V144.4H71.44V141.36Z" fill="black"/>
<path d="M80.56 141.36H77.52V144.4H80.56V141.36Z" fill="black"/>
<path d="M83.6 141.36H80.56V144.4H83.6V141.36Z" fill="black"/>
<path d="M92.72 141.36H89.68V144.4H92.72V141.36Z" fill="black"/>
<path d="M101.84 141.36H98.8V144.4H101.84V141.36Z" fill="black"/>
<path d="M107.92 141.36H104.88V144.4H107.92V141.36Z" fill="black"/>
<path d="M110.96 141.36H107.92V144.4H110.96V141.36Z" fill="black"/>
<path d="M114 141.36H110.96V144.4H114V141.36Z" fill="black"/>
<path d="M123.12 141.36H120.08V144.4H123.12V141.36Z" fill="black"/>
<path d="M126.16 141.36H123.12V144.4H126.16V141.36Z" fill="black"/>
<path d="M138.32 141.36H135.28V144.4H138.32V141.36Z" fill="black"/>
<path d="M141.36 141.36H138.32V144.4H141.36V141.36Z" fill="black"/>
<path d="M147.44 141.36H144.4V144.4H147.44V141.36Z" fill="black"/>
<path d="M150.48 141.36H147.44V144.4H150.48V141.36Z" fill="black"/>
<path d="M4.56 144.4H1.52V147.44H4.56V144.4Z" fill="black"/>
<path d="M22.8 144.4H19.76V147.44H22.8V144.4Z" fill="black"/>
<path d="M31.92 144.4H28.88V147.44H31.92V144.4Z" fill="black"/>
<path d="M38 144.4H34.96V147.44H38V144.4Z" fill="black"/>
<path d="M44.08 144.4H41.04V147.44H44.08V144.4Z" fill="black"/>
<path d="M56.24 144.4H53.2V147.44H56.24V144.4Z" fill="black"/>
<path d="M62.32 144.4H59.28V147.44H62.32V144.4Z" fill="black"/>
<path d="M74.48 144.4H71.44V147.44H74.48V144.4Z" fill="black"/>
<path d="M77.52 144.4H74.48V147.44H77.52V144.4Z" fill="black"/>
<path d="M80.56 144.4H77.52V147.44H80.56V144.4Z" fill="black"/>
<path d="M86.64 144.4H83.6V147.44H86.64V144.4Z" fill="black"/>
<path d="M89.68 144.4H86.64V147.44H89.68V144.4Z" fill="black"/>
<path d="M92.72 144.4H89.68V147.44H92.72V144.4Z" fill="black"/>
<path d="M98.8 144.4H95.76V147.44H98.8V144.4Z" fill="black"/>
<path d="M101.84 144.4H98.8V147.44H101.84V144.4Z" fill="black"/>
<path d="M104.88 144.4H101.84V147.44H104.88V144.4Z" fill="black"/>
<path d="M110.96 144.4H107.92V147.44H110.96V144.4Z" fill="black"/>
<path d="M114 144.4H110.96V147.44H114V144.4Z" fill="black"/>
<path d="M117.04 144.4H114V147.44H117.04V144.4Z" fill="black"/>
<path d="M126.16 144.4H123.12V147.44H126.16V144.4Z" fill="black"/>
<path d="M138.32 144.4H135.28V147.44H138.32V144.4Z" fill="black"/>
<path d="M141.36 144.4H138.32V147.44H141.36V144.4Z" fill="black"/>
<path d="M144.4 144.4H141.36V147.44H144.4V144.4Z" fill="black"/>
<path d="M147.44 144.4H144.4V147.44H147.44V144.4Z" fill="black"/>
<path d="M150.48 144.4H147.44V147.44H150.48V144.4Z" fill="black"/>
<path d="M4.56 147.44H1.52V150.48H4.56V147.44Z" fill="black"/>
<path d="M7.6 147.44H4.56V150.48H7.6V147.44Z" fill="black"/>
<path d="M10.64 147.44H7.6V150.48H10.64V147.44Z" fill="black"/>
<path d="M13.68 147.44H10.64V150.48H13.68V147.44Z" fill="black"/>
<path d="M16.72 147.44H13.68V150.48H16.72V147.44Z" fill="black"/>
<path d="M19.76 147.44H16.72V150.48H19.76V147.44Z" fill="black"/>
<path d="M22.8 147.44H19.76V150.48H22.8V147.44Z" fill="black"/>
<path d="M34.96 147.44H31.92V150.48H34.96V147.44Z" fill="black"/>
<path d="M44.08 147.44H41.04V150.48H44.08V147.44Z" fill="black"/>
<path d="M47.12 147.44H44.08V150.48H47.12V147.44Z" fill="black"/>
<path d="M50.16 147.44H47.12V150.48H50.16V147.44Z" fill="black"/>
<path d="M53.2 147.44H50.16V150.48H53.2V147.44Z" fill="black"/>
<path d="M65.36 147.44H62.32V150.48H65.36V147.44Z" fill="black"/>
<path d="M71.44 147.44H68.4V150.48H71.44V147.44Z" fill="black"/>
<path d="M77.52 147.44H74.48V150.48H77.52V147.44Z" fill="black"/>
<path d="M80.56 147.44H77.52V150.48H80.56V147.44Z" fill="black"/>
<path d="M95.76 147.44H92.72V150.48H95.76V147.44Z" fill="black"/>
<path d="M98.8 147.44H95.76V150.48H98.8V147.44Z" fill="black"/>
<path d="M101.84 147.44H98.8V150.48H101.84V147.44Z" fill="black"/>
<path d="M110.96 147.44H107.92V150.48H110.96V147.44Z" fill="black"/>
<path d="M114 147.44H110.96V150.48H114V147.44Z" fill="black"/>
<path d="M117.04 147.44H114V150.48H117.04V147.44Z" fill="black"/>
<path d="M126.16 147.44H123.12V150.48H126.16V147.44Z" fill="black"/>
<path d="M138.32 147.44H135.28V150.48H138.32V147.44Z" fill="black"/>
<path d="M150.48 147.44H147.44V150.48H150.48V147.44Z" fill="black"/>
</svg>
