<svg width="112" height="44" viewBox="0 0 112 44" fill="none" xmlns="http://www.w3.org/2000/svg">
<path d="M37.6328 38H34.5391L40.1719 22H43.75L49.3906 38H46.2969L42.0234 25.2813H41.8984L37.6328 38ZM37.7344 31.7266H46.1719V34.0547H37.7344V31.7266Z" fill="#01000C"/>
<path d="M53.6174 31.9276V38H51.1749V27.6364H53.5094V29.3974H53.6309C53.8693 28.8171 54.2493 28.3561 54.7711 28.0142C55.2974 27.6723 55.9474 27.5014 56.7211 27.5014C57.4363 27.5014 58.0592 27.6544 58.59 27.9602C59.1253 28.2661 59.5391 28.7092 59.8315 29.2894C60.1284 29.8697 60.2746 30.5736 60.2701 31.4013V38H57.8276V31.7791C57.8276 31.0864 57.6477 30.5444 57.2878 30.1531C56.9325 29.7617 56.4399 29.5661 55.8102 29.5661C55.3829 29.5661 55.0028 29.6605 54.6699 29.8494C54.3416 30.0339 54.0829 30.3015 53.894 30.6523C53.7096 31.0032 53.6174 31.4283 53.6174 31.9276Z" fill="#01000C"/>
<path d="M66.5989 38.1822C65.7847 38.1822 65.056 37.973 64.4128 37.5547C63.7696 37.1364 63.2613 36.5291 62.888 35.733C62.5146 34.9368 62.3279 33.9697 62.3279 32.8317C62.3279 31.6802 62.5169 30.7086 62.8947 29.9169C63.277 29.1207 63.7921 28.5202 64.4398 28.1154C65.0875 27.7061 65.8095 27.5014 66.6056 27.5014C67.2129 27.5014 67.7122 27.6049 68.1035 27.8118C68.4949 28.0142 68.8052 28.2594 69.0346 28.5472C69.264 28.8306 69.4417 29.0982 69.5676 29.3501H69.6689V24.1818H72.1181V38H69.7161V36.3672H69.5676C69.4417 36.6191 69.2595 36.8867 69.0211 37.1701C68.7827 37.449 68.4679 37.6874 68.0765 37.8853C67.6852 38.0832 67.1926 38.1822 66.5989 38.1822ZM67.2804 36.1783C67.7976 36.1783 68.2385 36.0388 68.6028 35.7599C68.9672 35.4766 69.2438 35.083 69.4327 34.5792C69.6216 34.0754 69.7161 33.4884 69.7161 32.8182C69.7161 32.148 69.6216 31.5655 69.4327 31.0707C69.2483 30.5759 68.9739 30.1913 68.6096 29.9169C68.2497 29.6425 67.8066 29.5053 67.2804 29.5053C66.7361 29.5053 66.2818 29.647 65.9174 29.9304C65.5531 30.2138 65.2787 30.6051 65.0943 31.1044C64.9099 31.6037 64.8176 32.175 64.8176 32.8182C64.8176 33.4659 64.9099 34.0439 65.0943 34.5522C65.2832 35.056 65.5598 35.4541 65.9242 35.7464C66.293 36.0343 66.7451 36.1783 67.2804 36.1783Z" fill="#01000C"/>
<path d="M74.7208 38V27.6364H77.089V29.3636H77.197C77.3859 28.7654 77.7098 28.3043 78.1686 27.9805C78.6319 27.6521 79.1604 27.4879 79.7542 27.4879C79.8891 27.4879 80.0398 27.4947 80.2062 27.5082C80.3772 27.5172 80.5188 27.5329 80.6313 27.5554V29.8022C80.5278 29.7662 80.3637 29.7347 80.1388 29.7077C79.9184 29.6763 79.7047 29.6605 79.4978 29.6605C79.0525 29.6605 78.6521 29.7572 78.2968 29.9506C77.9459 30.1396 77.6693 30.4027 77.4669 30.7401C77.2645 31.0774 77.1633 31.4665 77.1633 31.9073V38H74.7208Z" fill="#01000C"/>
<path d="M86.3478 38.2024C85.3358 38.2024 84.4586 37.9798 83.7164 37.5344C82.9743 37.0891 82.3985 36.4661 81.9892 35.6655C81.5843 34.8648 81.3819 33.9292 81.3819 32.8587C81.3819 31.7881 81.5843 30.8503 81.9892 30.0451C82.3985 29.2399 82.9743 28.6147 83.7164 28.1694C84.4586 27.7241 85.3358 27.5014 86.3478 27.5014C87.3599 27.5014 88.237 27.7241 88.9792 28.1694C89.7214 28.6147 90.2949 29.2399 90.6998 30.0451C91.1091 30.8503 91.3137 31.7881 91.3137 32.8587C91.3137 33.9292 91.1091 34.8648 90.6998 35.6655C90.2949 36.4661 89.7214 37.0891 88.9792 37.5344C88.237 37.9798 87.3599 38.2024 86.3478 38.2024ZM86.3613 36.2457C86.9101 36.2457 87.3689 36.0951 87.7377 35.7937C88.1066 35.4878 88.381 35.0785 88.5609 34.5657C88.7453 34.0529 88.8375 33.4817 88.8375 32.8519C88.8375 32.2177 88.7453 31.6442 88.5609 31.1314C88.381 30.6141 88.1066 30.2025 87.7377 29.8967C87.3689 29.5908 86.9101 29.4379 86.3613 29.4379C85.7991 29.4379 85.3313 29.5908 84.9579 29.8967C84.5891 30.2025 84.3124 30.6141 84.128 31.1314C83.9481 31.6442 83.8581 32.2177 83.8581 32.8519C83.8581 33.4817 83.9481 34.0529 84.128 34.5657C84.3124 35.0785 84.5891 35.4878 84.9579 35.7937C85.3313 36.0951 85.7991 36.2457 86.3613 36.2457Z" fill="#01000C"/>
<path d="M93.3868 38V27.6364H95.8293V38H93.3868ZM94.6148 26.1655C94.228 26.1655 93.8951 26.0373 93.6162 25.7809C93.3373 25.52 93.1979 25.2074 93.1979 24.843C93.1979 24.4742 93.3373 24.1616 93.6162 23.9052C93.8951 23.6443 94.228 23.5138 94.6148 23.5138C95.0061 23.5138 95.339 23.6443 95.6134 23.9052C95.8923 24.1616 96.0317 24.4742 96.0317 24.843C96.0317 25.2074 95.8923 25.52 95.6134 25.7809C95.339 26.0373 95.0061 26.1655 94.6148 26.1655Z" fill="#01000C"/>
<path d="M102.187 38.1822C101.373 38.1822 100.644 37.973 100.001 37.5547C99.3575 37.1364 98.8492 36.5291 98.4759 35.733C98.1025 34.9368 97.9158 33.9697 97.9158 32.8317C97.9158 31.6802 98.1048 30.7086 98.4826 29.9169C98.8649 29.1207 99.38 28.5202 100.028 28.1154C100.675 27.7061 101.397 27.5014 102.194 27.5014C102.801 27.5014 103.3 27.6049 103.691 27.8118C104.083 28.0142 104.393 28.2594 104.623 28.5472C104.852 28.8306 105.03 29.0982 105.156 29.3501H105.257V24.1818H107.706V38H105.304V36.3672H105.156C105.03 36.6191 104.847 36.8867 104.609 37.1701C104.371 37.449 104.056 37.6874 103.664 37.8853C103.273 38.0832 102.781 38.1822 102.187 38.1822ZM102.868 36.1783C103.386 36.1783 103.826 36.0388 104.191 35.7599C104.555 35.4766 104.832 35.083 105.021 34.5792C105.21 34.0754 105.304 33.4884 105.304 32.8182C105.304 32.148 105.21 31.5655 105.021 31.0707C104.836 30.5759 104.562 30.1913 104.197 29.9169C103.838 29.6425 103.395 29.5053 102.868 29.5053C102.324 29.5053 101.87 29.647 101.505 29.9304C101.141 30.2138 100.867 30.6051 100.682 31.1044C100.498 31.6037 100.406 32.175 100.406 32.8182C100.406 33.4659 100.498 34.0439 100.682 34.5522C100.871 35.056 101.148 35.4541 101.512 35.7464C101.881 36.0343 102.333 36.1783 102.868 36.1783Z" fill="#01000C"/>
<path d="M40.7546 13.2871H41.8796C41.821 13.8262 41.6667 14.3086 41.4167 14.7344C41.1667 15.1602 40.8132 15.498 40.3562 15.748C39.8992 15.9941 39.3289 16.1172 38.6453 16.1172C38.1453 16.1172 37.6902 16.0234 37.28 15.8359C36.8738 15.6484 36.5242 15.3828 36.2312 15.0391C35.9382 14.6914 35.7117 14.2754 35.5515 13.791C35.3953 13.3027 35.3171 12.7598 35.3171 12.1621V11.3125C35.3171 10.7148 35.3953 10.1738 35.5515 9.68945C35.7117 9.20117 35.9402 8.7832 36.2371 8.43555C36.5378 8.08789 36.8992 7.82031 37.321 7.63281C37.7429 7.44531 38.2175 7.35156 38.7449 7.35156C39.3894 7.35156 39.9343 7.47266 40.3796 7.71484C40.825 7.95703 41.1707 8.29297 41.4167 8.72266C41.6667 9.14844 41.821 9.64258 41.8796 10.2051H40.7546C40.7 9.80664 40.5984 9.46484 40.45 9.17969C40.3015 8.89062 40.0906 8.66797 39.8171 8.51172C39.5437 8.35547 39.1863 8.27734 38.7449 8.27734C38.366 8.27734 38.032 8.34961 37.7429 8.49414C37.4578 8.63867 37.2175 8.84375 37.0222 9.10938C36.8308 9.375 36.6863 9.69336 36.5886 10.0645C36.491 10.4355 36.4421 10.8477 36.4421 11.3008V12.1621C36.4421 12.5801 36.4851 12.9727 36.571 13.3398C36.6609 13.707 36.7957 14.0293 36.9753 14.3066C37.155 14.584 37.3835 14.8027 37.6609 14.9629C37.9382 15.1191 38.2664 15.1973 38.6453 15.1973C39.1257 15.1973 39.5085 15.1211 39.7937 14.9688C40.0789 14.8164 40.2937 14.5977 40.4382 14.3125C40.5867 14.0273 40.6921 13.6855 40.7546 13.2871ZM44.4343 9.66016V16H43.3503V9.66016H44.4343ZM48.5945 9.66016L45.5886 13.293H44.071L43.907 12.3438H45.1492L47.2761 9.66016H48.5945ZM47.4285 16L45.0964 13.1289L45.7937 12.3438L48.8054 16H47.4285ZM53.4871 14.916V11.6523C53.4871 11.4023 53.4363 11.1855 53.3347 11.002C53.2371 10.8145 53.0886 10.6699 52.8894 10.5684C52.6902 10.4668 52.4441 10.416 52.1511 10.416C51.8777 10.416 51.6375 10.4629 51.4304 10.5566C51.2273 10.6504 51.0671 10.7734 50.95 10.9258C50.8367 11.0781 50.78 11.2422 50.78 11.418H49.696C49.696 11.1914 49.7546 10.9668 49.8718 10.7441C49.989 10.5215 50.157 10.3203 50.3757 10.1406C50.5984 9.95703 50.864 9.8125 51.1726 9.70703C51.4851 9.59766 51.8328 9.54297 52.2156 9.54297C52.6765 9.54297 53.0828 9.62109 53.4343 9.77734C53.7898 9.93359 54.0671 10.1699 54.2664 10.4863C54.4695 10.7988 54.571 11.1914 54.571 11.6641V14.6172C54.571 14.8281 54.5886 15.0527 54.6238 15.291C54.6628 15.5293 54.7195 15.7344 54.7937 15.9062V16H53.6628C53.6082 15.875 53.5652 15.709 53.5339 15.502C53.5027 15.291 53.4871 15.0957 53.4871 14.916ZM53.6746 12.1562L53.6863 12.918H52.5906C52.282 12.918 52.0066 12.9434 51.7644 12.9941C51.5222 13.041 51.3191 13.1133 51.155 13.2109C50.991 13.3086 50.866 13.4316 50.78 13.5801C50.6941 13.7246 50.6511 13.8945 50.6511 14.0898C50.6511 14.2891 50.696 14.4707 50.7859 14.6348C50.8757 14.7988 51.0105 14.9297 51.1902 15.0273C51.3738 15.1211 51.5984 15.168 51.864 15.168C52.196 15.168 52.489 15.0977 52.7429 14.957C52.9968 14.8164 53.198 14.6445 53.3464 14.4414C53.4988 14.2383 53.5808 14.041 53.5925 13.8496L54.0554 14.3711C54.0281 14.5352 53.9539 14.7168 53.8328 14.916C53.7117 15.1152 53.5496 15.3066 53.3464 15.4902C53.1472 15.6699 52.9089 15.8203 52.6316 15.9414C52.3582 16.0586 52.0496 16.1172 51.7058 16.1172C51.2761 16.1172 50.8992 16.0332 50.575 15.8652C50.2546 15.6973 50.0046 15.4727 49.825 15.1914C49.6492 14.9062 49.5613 14.5879 49.5613 14.2363C49.5613 13.8965 49.6277 13.5977 49.7605 13.3398C49.8933 13.0781 50.0847 12.8613 50.3347 12.6895C50.5847 12.5137 50.8855 12.3809 51.2371 12.291C51.5886 12.2012 51.9812 12.1562 52.4148 12.1562H53.6746ZM61.0574 9.66016V16H59.9734V9.66016H61.0574ZM60.6882 12.5723V13.4629C60.4695 13.5449 60.2468 13.6191 60.0203 13.6855C59.7976 13.748 59.5613 13.7988 59.3113 13.8379C59.0652 13.873 58.7976 13.8906 58.5085 13.8906C58.0085 13.8906 57.575 13.8047 57.2078 13.6328C56.8406 13.457 56.5574 13.1934 56.3582 12.8418C56.1589 12.4863 56.0593 12.0391 56.0593 11.5V9.64844H57.1433V11.5C57.1433 11.8516 57.196 12.1367 57.3015 12.3555C57.407 12.5742 57.5613 12.7363 57.7644 12.8418C57.9675 12.9434 58.2156 12.9941 58.5085 12.9941C58.7898 12.9941 59.0535 12.9766 59.2996 12.9414C59.5496 12.9023 59.7878 12.8516 60.0144 12.7891C60.2449 12.7266 60.4695 12.6543 60.6882 12.5723ZM66.5417 14.916V11.6523C66.5417 11.4023 66.491 11.1855 66.3894 11.002C66.2917 10.8145 66.1433 10.6699 65.9441 10.5684C65.7449 10.4668 65.4988 10.416 65.2058 10.416C64.9324 10.416 64.6921 10.4629 64.4851 10.5566C64.282 10.6504 64.1218 10.7734 64.0046 10.9258C63.8914 11.0781 63.8347 11.2422 63.8347 11.418H62.7507C62.7507 11.1914 62.8093 10.9668 62.9265 10.7441C63.0437 10.5215 63.2117 10.3203 63.4304 10.1406C63.6531 9.95703 63.9187 9.8125 64.2273 9.70703C64.5398 9.59766 64.8875 9.54297 65.2703 9.54297C65.7312 9.54297 66.1375 9.62109 66.489 9.77734C66.8445 9.93359 67.1218 10.1699 67.321 10.4863C67.5242 10.7988 67.6257 11.1914 67.6257 11.6641V14.6172C67.6257 14.8281 67.6433 15.0527 67.6785 15.291C67.7175 15.5293 67.7742 15.7344 67.8484 15.9062V16H66.7175C66.6628 15.875 66.6199 15.709 66.5886 15.502C66.5574 15.291 66.5417 15.0957 66.5417 14.916ZM66.7292 12.1562L66.741 12.918H65.6453C65.3367 12.918 65.0613 12.9434 64.8191 12.9941C64.5769 13.041 64.3738 13.1133 64.2097 13.2109C64.0457 13.3086 63.9207 13.4316 63.8347 13.5801C63.7488 13.7246 63.7058 13.8945 63.7058 14.0898C63.7058 14.2891 63.7507 14.4707 63.8406 14.6348C63.9304 14.7988 64.0652 14.9297 64.2449 15.0273C64.4285 15.1211 64.6531 15.168 64.9187 15.168C65.2507 15.168 65.5437 15.0977 65.7976 14.957C66.0515 14.8164 66.2527 14.6445 66.4011 14.4414C66.5535 14.2383 66.6355 14.041 66.6472 13.8496L67.1101 14.3711C67.0828 14.5352 67.0085 14.7168 66.8875 14.916C66.7664 15.1152 66.6042 15.3066 66.4011 15.4902C66.2019 15.6699 65.9636 15.8203 65.6863 15.9414C65.4128 16.0586 65.1042 16.1172 64.7605 16.1172C64.3308 16.1172 63.9539 16.0332 63.6296 15.8652C63.3093 15.6973 63.0593 15.4727 62.8796 15.1914C62.7039 14.9062 62.616 14.5879 62.616 14.2363C62.616 13.8965 62.6824 13.5977 62.8152 13.3398C62.948 13.0781 63.1394 12.8613 63.3894 12.6895C63.6394 12.5137 63.9402 12.3809 64.2917 12.291C64.6433 12.2012 65.0359 12.1562 65.4695 12.1562H66.7292ZM71.821 9.66016V16H70.7312V9.66016H71.821ZM73.948 9.66016V10.5391H68.6453V9.66016H73.948ZM75.905 11.8398H77.8093C78.321 11.8398 78.7527 11.9297 79.1042 12.1094C79.4558 12.2852 79.7214 12.5293 79.9011 12.8418C80.0847 13.1504 80.1765 13.502 80.1765 13.8965C80.1765 14.1895 80.1257 14.4648 80.0242 14.7227C79.9226 14.9766 79.7703 15.1992 79.5671 15.3906C79.3679 15.582 79.1199 15.7324 78.823 15.8418C78.53 15.9473 78.1921 16 77.8093 16H75.114V9.66016H76.198V15.1094H77.8093C78.1218 15.1094 78.3718 15.0527 78.5593 14.9395C78.7468 14.8262 78.8816 14.6797 78.9636 14.5C79.0457 14.3203 79.0867 14.1328 79.0867 13.9375C79.0867 13.7461 79.0457 13.5586 78.9636 13.375C78.8816 13.1914 78.7468 13.0391 78.5593 12.918C78.3718 12.793 78.1218 12.7305 77.8093 12.7305H75.905V11.8398ZM88.8074 12.4082V13.2871H85.4558V12.4082H88.8074ZM85.6843 9.66016V16H84.6003V9.66016H85.6843ZM89.6863 9.66016V16H88.5964V9.66016H89.6863ZM95.1707 14.916V11.6523C95.1707 11.4023 95.1199 11.1855 95.0183 11.002C94.9207 10.8145 94.7722 10.6699 94.573 10.5684C94.3738 10.4668 94.1277 10.416 93.8347 10.416C93.5613 10.416 93.321 10.4629 93.114 10.5566C92.9109 10.6504 92.7507 10.7734 92.6335 10.9258C92.5203 11.0781 92.4636 11.2422 92.4636 11.418H91.3796C91.3796 11.1914 91.4382 10.9668 91.5554 10.7441C91.6726 10.5215 91.8406 10.3203 92.0593 10.1406C92.282 9.95703 92.5476 9.8125 92.8562 9.70703C93.1687 9.59766 93.5164 9.54297 93.8992 9.54297C94.3601 9.54297 94.7664 9.62109 95.1179 9.77734C95.4734 9.93359 95.7507 10.1699 95.95 10.4863C96.1531 10.7988 96.2546 11.1914 96.2546 11.6641V14.6172C96.2546 14.8281 96.2722 15.0527 96.3074 15.291C96.3464 15.5293 96.4031 15.7344 96.4773 15.9062V16H95.3464C95.2917 15.875 95.2488 15.709 95.2175 15.502C95.1863 15.291 95.1707 15.0957 95.1707 14.916ZM95.3582 12.1562L95.3699 12.918H94.2742C93.9656 12.918 93.6902 12.9434 93.448 12.9941C93.2058 13.041 93.0027 13.1133 92.8386 13.2109C92.6746 13.3086 92.5496 13.4316 92.4636 13.5801C92.3777 13.7246 92.3347 13.8945 92.3347 14.0898C92.3347 14.2891 92.3796 14.4707 92.4695 14.6348C92.5593 14.7988 92.6941 14.9297 92.8738 15.0273C93.0574 15.1211 93.282 15.168 93.5476 15.168C93.8796 15.168 94.1726 15.0977 94.4265 14.957C94.6804 14.8164 94.8816 14.6445 95.03 14.4414C95.1824 14.2383 95.2644 14.041 95.2761 13.8496L95.739 14.3711C95.7117 14.5352 95.6375 14.7168 95.5164 14.916C95.3953 15.1152 95.2332 15.3066 95.03 15.4902C94.8308 15.6699 94.5925 15.8203 94.3152 15.9414C94.0417 16.0586 93.7332 16.1172 93.3894 16.1172C92.9597 16.1172 92.5828 16.0332 92.2585 15.8652C91.9382 15.6973 91.6882 15.4727 91.5085 15.1914C91.3328 14.9062 91.2449 14.5879 91.2449 14.2363C91.2449 13.8965 91.3113 13.5977 91.4441 13.3398C91.5769 13.0781 91.7683 12.8613 92.0183 12.6895C92.2683 12.5137 92.5691 12.3809 92.9207 12.291C93.2722 12.2012 93.6648 12.1562 94.0984 12.1562H95.3582Z" fill="#01000C"/>
<path d="M12.3483 14V20.5008L17.7127 14H12.3483Z" fill="#50B848"/>
<path d="M21.5355 14.899L12.3483 26.0411V28.8151C12.3483 28.7382 12.3483 28.6614 12.3872 28.5845L12.504 28.0927C12.7113 27.3852 13.0434 26.7193 13.485 26.1256L13.7965 25.7568C14.1401 25.4066 14.5304 25.1041 14.9565 24.8577C15.1838 24.7417 15.4178 24.6391 15.6573 24.5503C16.1618 24.4002 16.6878 24.3327 17.2144 24.3506L17.7439 24.4197C18.1611 24.5136 18.5642 24.6609 18.9429 24.8577C19.156 24.9811 19.3614 25.1171 19.558 25.265C20.1235 25.7325 20.5915 26.304 20.936 26.9478L21.1463 27.3935C21.3088 27.8641 21.4313 28.3473 21.5122 28.8381L21.5355 14.899Z" fill="#50B848"/>
<path d="M16.9653 25.3572C14.9565 25.3572 13.3215 27.3858 13.3215 29.8755C13.3215 32.3651 14.9565 34.4014 16.9653 34.4014C18.974 34.4014 20.6168 32.3728 20.6168 29.8755C20.6168 27.3781 18.9818 25.3572 16.9653 25.3572ZM16.9653 32.9414C15.7585 32.9414 14.7697 31.566 14.7697 29.8678C14.7697 28.1696 15.7507 26.7941 16.9653 26.7941C18.1799 26.7941 19.1687 28.1696 19.1687 29.8678C19.1687 31.566 18.1799 32.9414 16.9653 32.9414Z" fill="#50B848"/>
<path d="M12.5118 31.6735L12.395 31.1818L12.3561 30.9512V36.3839H21.5433V31.005C21.4291 31.6409 21.2356 32.2603 20.9672 32.8492L20.718 33.2718C20.3635 33.8158 19.9125 34.2921 19.3867 34.678L18.9662 34.9393C18.5875 35.1359 18.1844 35.2831 17.7672 35.3773C17.5099 35.4213 17.2497 35.447 16.9886 35.4541C16.6343 35.4447 16.282 35.3983 15.9376 35.3158C15.691 35.2433 15.4492 35.1561 15.2135 35.0546C14.6845 34.7786 14.2078 34.4147 13.8042 33.9788L13.485 33.61C13.0487 33.0254 12.7193 32.3701 12.5118 31.6735Z" fill="#50B848"/>
<path d="M0 35.5156L9.18725 24.3736V21.5612C9.18725 21.638 9.18725 21.7149 9.18725 21.7917L9.06268 22.2835C8.85437 22.9907 8.52236 23.6564 8.08167 24.2507L7.76245 24.6195C7.41423 24.9764 7.01564 25.2818 6.57901 25.5262C6.35245 25.6436 6.11838 25.7463 5.87828 25.8336C5.37406 25.985 4.84781 26.0525 4.32112 26.0334L3.79169 25.9642C3.36631 25.8725 2.95523 25.7252 2.56932 25.5262C2.35346 25.4032 2.14545 25.2671 1.94645 25.119C1.38387 24.6506 0.918534 24.0791 0.57615 23.4361L0.365933 22.9905C0.203792 22.5197 0.0813971 22.0365 0 21.5458L0 35.5156Z" fill="#50B848"/>
<path d="M4.57027 25.0191C6.57901 25.0191 8.21403 22.9905 8.21403 20.5008C8.21403 18.0112 6.58679 15.9749 4.57027 15.9749C2.55375 15.9749 0.926514 18.0035 0.926514 20.5008C0.926514 22.9982 2.56153 25.0191 4.57027 25.0191ZM4.57027 17.4348C5.78486 17.4348 6.76587 18.8103 6.76587 20.5085C6.76587 22.2067 5.77707 23.5822 4.57027 23.5822C3.36347 23.5822 2.37467 22.2067 2.37467 20.5085C2.37467 18.8103 3.36347 17.4348 4.57027 17.4348Z" fill="#50B848"/>
<path d="M9.02375 18.7104L9.14832 19.2022C9.14832 19.279 9.14832 19.3559 9.14832 19.425V14H0V19.3789C0.113795 18.743 0.307332 18.1235 0.57615 17.5347L0.825295 17.1121C1.18223 16.5812 1.63012 16.1158 2.14888 15.7366L2.56932 15.4754C2.94824 15.2791 3.35124 15.1319 3.76833 15.0374C4.02574 14.994 4.28589 14.9683 4.54691 14.9605C4.90125 14.9697 5.25359 15.0161 5.59799 15.0988C5.8441 15.1725 6.08583 15.2598 6.32207 15.3601C6.84609 15.6179 7.32247 15.9608 7.73131 16.3744L8.05052 16.7432C8.49 17.3382 8.82189 18.0038 9.03154 18.7104H9.02375Z" fill="#50B848"/>
<path d="M9.17946 29.8755L3.82283 36.3686H9.17946V29.8755Z" fill="#50B848"/>
<path d="M18.9429 14L0.529434 36.3686H2.56153L21.0139 14H18.9429Z" fill="#50B848"/>
<path d="M11.65 34.59H9.85001V36.39H11.65V34.59Z" fill="#50B848"/>
<path d="M22.4543 34.8318V36.3686C22.9721 36.4061 23.4542 36.643 23.7966 37.0283C24.1389 37.4136 24.3139 37.9164 24.2839 38.428C24.2849 38.9514 24.083 39.4555 23.7197 39.8369C23.3564 40.2183 22.8592 40.4483 22.3297 40.4796C21.3045 40.4208 20.2902 40.2402 19.3088 39.9417L9.9269 37.6365C4.76491 36.4224 0 37.8209 0 41.1481H1.55716C1.55716 39.9187 3.97855 39.0965 9.15611 40.3797L18.6859 42.6619C20.4532 43.195 22.3522 43.1136 24.0659 42.4314C24.7356 42.0746 25.2949 41.5454 25.6842 40.9C26.0735 40.2546 26.2784 39.5172 26.2771 38.7661C26.2926 38.257 26.2055 37.75 26.0207 37.2745C25.8359 36.799 25.5572 36.3645 25.2008 35.9963C24.8444 35.6281 24.4173 35.3335 23.9445 35.1296C23.4716 34.9257 22.9624 34.8166 22.4465 34.8087L22.4543 34.8318Z" fill="#50B848"/>
</svg>
